<svg xmlns="http://www.w3.org/2000/svg" version="1.0" viewBox="0 0 768 768"><path fill="#400000" fill-opacity=".2" d="M287 187.5c1.9 1.9 3.6 3.5 3.9 3.5.3 0-1-1.6-2.9-3.5s-3.6-3.5-3.9-3.5c-.3 0 1 1.6 2.9 3.5zm-77.2 46.2c.7.3 1.6.2 1.9-.1.4-.3-.2-.6-1.3-.5-1.1 0-1.4.3-.6.6zm347 0c.7.3 1.6.2 1.9-.1.4-.3-.2-.6-1.3-.5-1.1 0-1.4.3-.6.6zm-405.4 24.5-2.9 3.3 3.3-2.9c3-2.8 3.7-3.6 2.9-3.6-.2 0-1.6 1.5-3.3 3.2zm464.6.2c0 .2.8 1 1.8 1.7 1.5 1.3 1.6 1.2.3-.4s-2.1-2.1-2.1-1.3zM590.2 441c0 1.4.2 1.9.5 1.2.2-.6.2-1.8 0-2.5-.3-.6-.5-.1-.5 1.3zm0 15c0 1.4.2 1.9.5 1.2.2-.6.2-1.8 0-2.5-.3-.6-.5-.1-.5 1.3zM217 554.3c0 .2 1.5 1.6 3.3 3.3l3.2 2.9-2.9-3.3c-2.8-3-3.6-3.7-3.6-2.9zm370.8 69.4c.6.2 1.8.2 2.5 0 .6-.3.1-.5-1.3-.5-1.4 0-1.9.2-1.2.5z"/><path fill="#400000" fill-opacity=".4" d="M590.2 448.5c0 1.6.2 2.2.5 1.2.2-.9.2-2.3 0-3-.3-.6-.5.1-.5 1.8zM605 578.4c0 .2.8 1 1.8 1.7 1.5 1.3 1.6 1.2.3-.4s-2.1-2.1-2.1-1.3zm-457.7 2.3c3.2.2 8.1.2 11 0 2.9-.2.3-.3-5.8-.3-6 0-8.4.1-5.2.3zm50 0c3.2.2 8.1.2 11 0 2.9-.2.3-.3-5.8-.3-6 0-8.4.1-5.2.3z"/><path fill="#400000" fill-opacity=".6" d="M544 184.4c0 .2.8 1 1.8 1.7 1.5 1.3 1.6 1.2.3-.4s-2.1-2.1-2.1-1.3z"/><path fill="#400000" fill-opacity=".1" d="m539.5 156.2-8 8.3 8.3-8c4.5-4.4 8.2-8.1 8.2-8.2 0-.8-1.1.3-8.5 7.9zm-35 35-8 8.3 8.3-8c4.5-4.4 8.2-8.1 8.2-8.2 0-.8-1.1.3-8.5 7.9zM275 199.5c1.9 1.9 3.6 3.5 3.9 3.5.3 0-1-1.6-2.9-3.5s-3.6-3.5-3.9-3.5c-.3 0 1 1.6 2.9 3.5zm30.9.2-2.4 2.8 2.8-2.4c2.5-2.3 3.2-3.1 2.4-3.1-.2 0-1.4 1.2-2.8 2.7zm-99.1 34c.7.3 1.6.2 1.9-.1.4-.3-.2-.6-1.3-.5-1.1 0-1.4.3-.6.6zm6 0c.7.3 1.6.2 1.9-.1.4-.3-.2-.6-1.3-.5-1.1 0-1.4.3-.6.6zm341 0c.7.3 1.6.2 1.9-.1.4-.3-.2-.6-1.3-.5-1.1 0-1.4.3-.6.6zm6 0c.7.3 1.6.2 1.9-.1.4-.3-.2-.6-1.3-.5-1.1 0-1.4.3-.6.6zm55.1 142c-1.3 1.6-1.2 1.7.4.4.9-.7 1.7-1.5 1.7-1.7 0-.8-.8-.3-2.1 1.3zm-65.5 179.5-1.9 2.3 2.3-1.9c1.2-1.1 2.2-2.1 2.2-2.3 0-.8-.8-.2-2.6 1.9zm-402.1 42.5c3.1.2 8.3.2 11.5 0 3.1-.2.5-.3-5.8-.3s-8.9.1-5.7.3zm49 0c3.1.2 8.3.2 11.5 0 3.1-.2.5-.3-5.8-.3s-8.9.1-5.7.3z"/><path fill="#400000" fill-opacity=".8" d="m539 155.7-8.5 8.8 8.8-8.5c8.1-7.9 9.2-9 8.4-9-.1 0-4.1 3.9-8.7 8.7zm-35.5 35.5-8 8.3 8.3-8c4.5-4.4 8.2-8.1 8.2-8.2 0-.8-1.1.3-8.5 7.9zm-198.1 8-2.9 3.3 3.3-2.9c3-2.8 3.7-3.6 2.9-3.6-.2 0-1.6 1.5-3.3 3.2zm309.5 175.5-2.4 2.8 2.8-2.4c2.5-2.3 3.2-3.1 2.4-3.1-.2 0-1.4 1.2-2.8 2.7zM185.4 564.5c0 6 .1 8.4.3 5.2.2-3.2.2-8.1 0-11-.2-2.9-.3-.3-.3 5.8zm0 49c0 6 .1 8.4.3 5.2.2-3.2.2-8.1 0-11-.2-2.9-.3-.3-.3 5.8zm194.4.2c2.3.2 5.9.2 8 0 2-.2.1-.4-4.3-.4-4.4 0-6.1.2-3.7.4z"/><g fill="#400000" stroke-width="0"><path d="M486.3 137c-5.2 4.8-3.9 8.2 8 19.7 9.5 9.4 12.7 10.4 17.2 5.8 4.6-4.5 3-7.9-8.9-19.3-9.3-8.9-12.3-10-16.3-6.2zm42.6 7.7c-5.3 5.4-9.9 10.5-10.2 11.4-.9 2.6 2 7.8 4.7 8.5 4.6 1.1 7-.3 16.4-9.9 10.2-10.4 11.1-12.9 6.7-17.2-4.5-4.6-7-3.6-17.6 7.2zm-383 24.2c-3.1 3.1-3.9 8.3-1.9 12.2 1.3 2.4 6.1 4.9 9.4 4.9 3.8 0 8.6-4.8 9.3-9.2.5-3.3.2-4.1-3-7.3-4.6-4.6-9.5-4.9-13.8-.6zm347.3 11.5c-9.6 9.6-10.4 10.7-9.8 13.3 1 4 4 6.6 7.6 6.6 2.6 0 4.7-1.5 12.6-9.4 5.2-5.1 9.7-10.2 10-11.2 1.3-4.2-3.4-9.7-8.3-9.7-1 0-6.4 4.7-12.1 10.4zm28.4-8.2c-2.5 2.3-2.9 3.5-2.7 7.2.1 2.4 16.6 19.2 20 20.4 3.2 1.1 6.4.1 8.5-3 3.2-4.5 2.2-6.5-8.3-16.9-10.7-10.8-12.9-11.8-17.5-7.7zm-248.1 13.3c-3.8 3.7-3.2 6.8 2.2 12.6l4.7 5.1-4.7 4.5c-5.5 5.3-6.2 8.9-2.2 12.8 3.9 4 8 3.1 14.3-2.8l3.2-3.1 3.3 3.1c6.2 5.9 10.3 6.8 14.2 2.8 3.9-3.8 3.3-7.7-2-13.4l-4.4-4.7 4-4c4.6-4.5 5.6-7.2 3.8-10.6-3.3-6.2-7.4-6.3-13.9-.2l-5 4.7-5-4.7c-5.7-5.3-8.8-5.9-12.5-2.1zm-74 49.6c-33.9 5.2-60.7 29.6-68.6 62.4-2.6 11-2.6 27.5.1 38.1 6.5 25.5 25.4 47.8 48 56.6 3.3 1.2 6 2.7 6 3.3 0 .6-1.1 6-2.4 12-3.3 14.4-5 30.4-3.7 33.8 1.9 5 8.6 6.3 12.5 2.4 1.8-1.8 2.4-4.1 3.4-12.9 2.5-22.9 8-41.4 18.3-61.8 27.7-54.4 80.2-91.2 143.3-100.5 22.6-3.3 52.9-1.7 75.7 4.1 63.1 15.8 113.8 62.1 133.3 121.5 6.7 20.6 9.2 38.2 8.3 60.4-.4 9.2-1.4 18.7-2.7 24.7-3.2 15-3.2 15.1-5.9 7.7-11.5-31.8-35.2-60.7-66.1-80.7-23.7-15.4-54.8-26.4-85-30.1-10.9-1.4-40.1-1.4-51-.1-62.3 7.7-117.1 43.1-143 92.2-5.7 10.8-9.3 19.9-12.5 31.2l-2.1 7.9-2.3-5.5c-2.2-5.6-4.9-7.8-9.2-7.8-3 0-6.9 4.4-6.9 7.8 0 4.4 13.1 29.5 20.4 39.2 22.9 30.4 59.8 52.9 104.7 63.9 24.9 6.1 38.2 7.5 71.4 7.5 26.1.1 32-.2 45-2.2 49.1-7.3 87.3-24.1 115.4-50.8 13.2-12.6 21.8-24.1 29.1-38.9 14.7-29.8 19.6-59.3 15.5-93.5-1.2-10.5-3.9-24.1-6.1-31.3-.3-1 0-1.7.8-1.7 2.4 0 16.1-7 22.3-11.4 15.2-10.9 26.6-28 31.5-47 4-15.8 2.2-37-4.5-52.1-9-20.3-27.6-37.3-48.8-44.6-24.5-8.4-50.8-4.8-72.7 10-6.5 4.4-17.5 15.6-21.7 22.2l-3.7 5.6-10.5-5.3C448.3 258 417.2 251 384 251c-32.6 0-62 6.4-89.9 19.6-6.3 3-11.8 5.1-12.1 4.7-.4-.5-2.7-3.8-5.3-7.4-10.3-14.7-26.2-25.7-44.7-30.8-8.2-2.3-24.3-3.3-32.5-2zm24.9 16.4c7.4 1.6 17 5.7 23.3 9.9 7.6 5.2 20.3 19.2 20.3 22.5 0 .5-2 2.4-4.4 4.1l-4.5 3-5.7-4c-15.8-11.1-38.4-10.7-53.6.8-14.2 10.7-21.3 28.9-17.8 45.5 1.6 8 7.1 18.4 12.3 23.5l4.5 4.4-3.3 7.1c-1.7 4-3.5 8-3.8 8.9-.9 2.6-3.1 2.2-11.7-2.3-28.2-14.6-42.1-47.4-32.9-77.7 5.2-16.8 18.6-32.6 34.2-40.1 14.1-6.9 28.4-8.7 43.1-5.6zm347 0c22.5 4.8 42.7 23.4 49.5 45.7 9.2 30.3-4.7 63.1-33 77.8-4.4 2.3-8.7 4-9.5 3.8-.8-.2-3.2-4.2-5.4-8.9l-3.8-8.7 4.5-4.3c5.2-5.2 10.7-15.6 12.3-23.6 3.5-16.6-3.6-34.8-17.8-45.5-15.2-11.5-37.8-11.9-53.6-.8l-5.7 4-4.5-3c-2.4-1.7-4.4-3.6-4.4-4.1 0-3.3 12.7-17.3 20.3-22.5 14.6-9.9 33.7-13.6 51.1-9.9zm-334.2 44.9c2.1.8 4.9 2.1 6.3 3l2.5 1.6-7.5 7.1c-8.7 8.3-19.1 20.4-26 30.4-2.7 3.8-5.1 7.2-5.3 7.5-.2.3-1.9-1.2-3.7-3.3-6.9-8-8.2-21.3-3.1-31.6 3-5.9 10.2-12.4 15.9-14.5 5.3-1.8 16-1.9 20.9-.2zm314.1.2c14.2 4.8 22.8 22.1 18.2 36.7-1.6 5.2-6.6 12.7-8.5 12.7-.4 0-2.3-2.4-4.1-5.2-5.8-9-14.9-19.9-25-30l-9.8-9.8 2.4-1.6c6.8-4.5 18.4-5.7 26.8-2.8zm-146.8 94.5c39.1 3.3 74.2 17.2 102.2 40.4 25.4 21 43.1 50 48.6 79.7l1.5 7.8-5.1 7.7c-6.9 10.7-24.9 28.4-36.6 36.2-34.7 23-76.9 34.1-130.1 34.2-71.9.1-127.8-20.9-161.1-60.4-5.6-6.7-5.8-8-3.4-22.3 12.3-70.2 82.1-122.5 166-124.3 3.3 0 11.4.4 18 1z"/><path d="M283.8 305.4c-10.2 3.7-20 12.6-24.6 22.4-2.2 4.6-2.7 7.1-2.7 13.3 0 6.6.4 8.1 2.8 11.7 7.3 11.1 23.9 11.8 37.6 1.7 9.6-7.1 15.5-16.7 16.8-27.2l.6-5.5-3.1 1.6c-3.8 2-7.4 2-11 .2-2.7-1.4-2.7-1.3-2.9 2.1-.4 7.3-8.8 17-16.9 19.2-10.2 2.8-11.2-6.4-1.8-16.8 4.7-5.2 11.7-8.8 15.3-7.8 2 .5 2 .4.5-2.5-1.6-3-1.5-8.5 0-12.1.7-1.5.3-1.7-3-1.7-2.2.1-5.5.7-7.6 1.4zm198 .8c1.7 1.7 1.5 9.9-.3 12.5-1.5 2.1-1.4 2.3 1.4 3.7 4 2.1 10.8 10 12.1 14.2 3.1 9.4-3.8 11.8-14.2 4.9-4.1-2.7-9.8-10.7-9.8-13.6 0-1-1.9-2.6-4.7-4-3.6-1.8-5.4-3.5-7-6.7l-2.1-4.2-1.7 4.5c-4.4 11.3 2.4 27.3 15.6 37 13.7 10.1 30.3 9.4 37.6-1.7 2.4-3.6 2.8-5.1 2.8-11.7 0-6.2-.5-8.7-2.7-13.4-3.5-7.4-11.3-15.6-18.7-19.6-6-3.2-10.7-4.3-8.3-1.9zm-114.3 41.7c-10.1 3.4-16.9 3.8-24.1 1.6-6.8-2.1-9.1-1.9-11.9 1-5.9 5.9-1.2 12.3 10.9 15 9.5 2.1 18.4 1.5 28.8-2.1 10.3-3.5 19.4-3.3 33.4.7 9.7 2.8 11.9 3.1 19.9 2.6 10-.5 19.9-3.6 21.5-6.7 1.7-3.2 1.1-7.5-1.3-9.8-2.7-2.6-5.4-2.7-12.1-.7-7.3 2.2-15.1 1.9-24.7-1.1-6.4-2-11.1-2.7-19.9-3-10.6-.4-12.2-.2-20.5 2.5zm-186 110.3c-2.7 2.1-2.8 2.3-2.2 10.7.7 9.8 2.1 14.7 4.7 16.1 3.3 1.8 7.5 1.1 10-1.5 2.4-2.5 2.4-2.7 1.3-12.8-1-9-1.5-10.5-3.8-12.4-3.3-2.9-6.5-2.9-10-.1zm-9.3 90.1c-2 2.2-2.2 3.3-2.2 15.8 0 12.9.1 13.7 2.3 15.7 3.1 2.9 7.7 2.9 10.5-.1 2-2.2 2.2-3.3 2.2-15.8 0-12.9-.1-13.7-2.3-15.7-3.1-2.9-7.7-2.9-10.5.1zm408.5 26.1c-5.5 2-10.3 6.1-13.4 11.4-2.3 3.9-2.8 5.9-2.8 11.7 0 7.9 1.7 12.3 6.7 17.4 10 10.3 24.8 10.3 34.9.2 15.3-15.3 5.6-40.5-16.1-41.8-3.1-.2-7.2.3-9.3 1.1zm15.1 17.2c5.3 5.9 1.3 15.4-6.5 15.4-4.8 0-7.8-2.1-9.3-6.4-3.1-9.6 8.9-16.5 15.8-9zm-458.9-7.7c-2.5 2.6-3 3.7-2.4 5.9 1.4 5.9 3.3 6.7 17.4 7 12.6.3 12.8.3 15.9-2.3 3.7-3.1 4.2-7 1.3-10.6-1.8-2.3-2.6-2.4-15.5-2.7l-13.6-.4-3.1 3.1zm51.6-1.7c-5 2.9-5.8 7.2-2.1 11.5l2.4 2.8h27.4l2.4-2.8c3.2-3.7 3-6.2-.5-9.8-2.9-2.9-3-2.9-15.3-2.9-7.4 0-13.1.5-14.3 1.2zm-14 14c-4 2.3-4.4 3.9-4.5 17.6 0 12.8.1 13.4 2.5 15.7 1.3 1.4 3.6 2.5 5 2.5s3.7-1.1 5-2.5c2.4-2.3 2.5-2.9 2.5-15.4 0-7.1-.3-13.7-.6-14.6-.6-1.5-5.4-4.5-7.1-4.5-.4 0-1.7.6-2.8 1.2z"/></g><path fill="#400000" fill-opacity=".7" d="M492.5 156c4.4 4.4 8.2 8 8.5 8 .2 0-3.1-3.6-7.5-8s-8.2-8-8.5-8c-.2 0 3.1 3.6 7.5 8zm35 35c4.4 4.4 8.2 8 8.5 8 .2 0-3.1-3.6-7.5-8s-8.2-8-8.5-8c-.2 0 3.1 3.6 7.5 8zM169.4 564c0 6.3.1 8.9.3 5.7.2-3.1.2-8.3 0-11.5-.2-3.1-.3-.5-.3 5.8zm0 49.5c0 6 .1 8.4.3 5.2.2-3.2.2-8.1 0-11-.2-2.9-.3-.3-.3 5.8zm204.4.2c.7.3 1.6.2 1.9-.1.4-.3-.2-.6-1.3-.5-1.1 0-1.4.3-.6.6zm18 0c.6.2 1.8.2 2.5 0 .6-.3.1-.5-1.3-.5-1.4 0-1.9.2-1.2.5z"/><path fill="#400000" fill-opacity=".9" d="m528 144.7-8.5 8.8 8.8-8.5c8.1-7.9 9.2-9 8.4-9-.1 0-4.1 3.9-8.7 8.7zm-370 22.7c0 .2.8 1 1.8 1.7 1.5 1.3 1.6 1.2.3-.4s-2.1-2.1-2.1-1.3zm334.5 12.8-9 9.3 9.3-9c5-4.9 9.2-9.1 9.2-9.2 0-.8-1.2.4-9.5 8.9zM286.8 188l4.2 4.5 4.3-4.5 4.2-4.5-4.2 4-4.3 3.9-4.2-3.9-4.3-4 4.3 4.5zM276 199.2l3.4 3.8-3.4 3.7-3.5 3.8 4-3.8 4-3.7-4-3.8-4-3.7 3.5 3.7zm225.4 57-1.9 2.3 2.3-1.9c2.1-1.8 2.7-2.6 1.9-2.6-.2 0-1.2 1-2.3 2.2zm-349.5 2.5-3.4 3.8 3.8-3.4c2-1.9 3.7-3.6 3.7-3.8 0-.8-.8 0-4.1 3.4zm463.1-.2c1.9 1.9 3.6 3.5 3.9 3.5.3 0-1-1.6-2.9-3.5s-3.6-3.5-3.9-3.5c-.3 0 1 1.6 2.9 3.5zm-118.6 2.7-1.9 2.3 2.3-1.9c2.1-1.8 2.7-2.6 1.9-2.6-.2 0-1.2 1-2.3 2.2zM128.3 316c0 2.5.2 3.5.4 2.2.2-1.2.2-3.2 0-4.5-.2-1.2-.4-.2-.4 2.3zm511 .5c0 2.2.2 3 .4 1.7.2-1.2.2-3 0-4-.3-.9-.5.1-.4 2.3zM209 544.4c0 .2.8 1 1.8 1.7 1.5 1.3 1.6 1.2.3-.4s-2.1-2.1-2.1-1.3zm11 12.1c3.5 3.6 6.7 6.5 6.9 6.5.3 0-2.4-2.9-5.9-6.5-3.5-3.6-6.7-6.5-6.9-6.5-.3 0 2.4 2.9 5.9 6.5zm326.5.7-5 5.3 5.3-5c4.8-4.6 5.7-5.5 4.9-5.5-.1 0-2.5 2.4-5.2 5.2zm-10.6 9.5c-1.3 1.6-1.2 1.7.4.4 1.6-1.3 2.1-2.1 1.3-2.1-.2 0-1 .8-1.7 1.7zM217 582.4c0 .2.8 1 1.8 1.7 1.5 1.3 1.6 1.2.3-.4s-2.1-2.1-2.1-1.3zm370.8 6.3c.7.3 1.6.2 1.9-.1.4-.3-.2-.6-1.3-.5-1.1 0-1.4.3-.6.6zm-419.9 6c-1.3 1.6-1.2 1.7.4.4 1.6-1.3 2.1-2.1 1.3-2.1-.2 0-1 .8-1.7 1.7zm411.2 2.9c0 1.1.3 1.4.6.6.3-.7.2-1.6-.1-1.9-.3-.4-.6.2-.5 1.3zm15.8 7.1c-1.3 1.6-1.2 1.7.4.4 1.6-1.3 2.1-2.1 1.3-2.1-.2 0-1 .8-1.7 1.7zm-168.1 6c.7.3 1.6.2 1.9-.1.4-.3-.2-.6-1.3-.5-1.1 0-1.4.3-.6.6zm-67 2c.6.2 1.8.2 2.5 0 .6-.3.1-.5-1.3-.5-1.4 0-1.9.2-1.2.5zm47 0c.6.2 1.8.2 2.5 0 .6-.3.1-.5-1.3-.5-1.4 0-1.9.2-1.2.5zm199.1 3c-1.3 1.6-1.2 1.7.4.4.9-.7 1.7-1.5 1.7-1.7 0-.8-.8-.3-2.1 1.3z"/><path fill="#400000" fill-opacity=".3" d="m527.5 144.2-8 8.3 8.3-8c7.6-7.4 8.7-8.5 7.9-8.5-.1 0-3.8 3.7-8.2 8.2zM492 179.5c-4.1 4.1-7.2 7.5-6.9 7.5.2 0 3.8-3.4 7.9-7.5 4.1-4.1 7.2-7.5 6.9-7.5-.2 0-3.8 3.4-7.9 7.5zm-198.1 8.2-3.4 3.8 3.8-3.4c2-1.9 3.7-3.6 3.7-3.8 0-.8-.8 0-4.1 3.4zm-19 19-3.4 3.8 3.8-3.4c2-1.9 3.7-3.6 3.7-3.8 0-.8-.8 0-4.1 3.4zm315.2 237.9c0 1.1.3 1.4.6.6.3-.7.2-1.6-.1-1.9-.3-.4-.6.2-.5 1.3zm0 8c0 1.1.3 1.4.6.6.3-.7.2-1.6-.1-1.9-.3-.4-.6.2-.5 1.3z"/><path fill="#BFBFBF" fill-opacity=".2" d="M144.1 377.6c0 1.1.3 1.4.6.6.3-.7.2-1.6-.1-1.9-.3-.4-.6.2-.5 1.3zm0 18c0 1.1.3 1.4.6.6.3-.7.2-1.6-.1-1.9-.3-.4-.6.2-.5 1.3z"/><path fill="#BFBFBF" fill-opacity=".3" d="M144.2 381c0 1.4.2 1.9.5 1.2.2-.6.2-1.8 0-2.5-.3-.6-.5-.1-.5 1.3zm0 11c0 1.4.2 1.9.5 1.2.2-.6.2-1.8 0-2.5-.3-.6-.5-.1-.5 1.3z"/><path fill="#BFBFBF" fill-opacity=".4" d="M144.3 386.5c0 2.2.2 3 .4 1.7.2-1.2.2-3 0-4-.3-.9-.5.1-.4 2.3z"/><path fill="#BFBFBF" fill-opacity=".7" d="M465 259.4c0 .2.8 1 1.8 1.7 1.5 1.3 1.6 1.2.3-.4s-2.1-2.1-2.1-1.3z"/><path fill="#BFBFBF" fill-opacity=".8" d="M460.5 255c2.1 2.2 4.1 4 4.4 4 .3 0-1.3-1.8-3.4-4-2.1-2.2-4.1-4-4.4-4-.3 0 1.3 1.8 3.4 4z"/><path fill="#BFBFBF" fill-opacity=".9" d="M469 264.4c0 .2.8 1 1.8 1.7 1.5 1.3 1.6 1.2.3-.4s-2.1-2.1-2.1-1.3z"/><path fill="#BFBFBF" d="M318 201.7c-1.9.1-5.9.6-8.9.9l-5.3.6 3.6 3.7c4.9 5 5.7 9.7 2.3 13.7-2 2.3-3.3 2.9-6.6 2.9-3.4 0-4.7-.7-8-3.9l-4-3.9-4 3.6c-2.2 2-5.1 3.9-6.4 4.2-5.4 1.4-11.3-3.9-10.5-9.4l.4-2.9-6.3 2.3c-9.6 3.7-24 10.8-32.1 16.1l-7.4 4.7 6.9 1.7c13.8 3.6 25.7 10.3 36.5 20.8 5.2 5 12.1 13.6 14.4 18 .1.2 3.7-1.4 8-3.6 16.5-8.2 39.1-15.3 60.3-18.9 14.7-2.5 52.2-2.5 66.6 0 18 3.2 37.2 8.8 51.9 15.2l3.9 1.7-4.2-5c-23.5-28.2-63.7-51.5-101.8-59.1-16.7-3.3-36.3-4.7-49.3-3.4zm-19.8 101c-1.5 1.6-1.9 2-.7 1.1 1.1-.9 3.1-2.1 4.5-2.7 1.7-.7 2-1 .8-1-1-.1-3 1.1-4.6 2.6zm11.4-1.3c1.7.8 4 2.6 5.2 4.1 1.2 1.5 2.2 2.3 2.2 1.7 0-1.6-6.9-7.2-8.8-7.2-1 .1-.4.6 1.4 1.4zm153.6 1.3c-1.5 1.6-1.9 2-.7 1.1 1.1-.9 3.1-2.1 4.5-2.7 1.7-.7 2-1 .8-1-1-.1-3 1.1-4.6 2.6zm9.6-2c.7.3 1.6.2 1.9-.1.4-.3-.2-.6-1.3-.5-1.1 0-1.4.3-.6.6zm4.2 1.6c.8.7 2.1 1.9 2.9 2.7 1.1 1.3 1.2 1.2.3-.6-.7-1.2-1.9-2.4-2.9-2.8-1.6-.5-1.6-.4-.3.7zm-159.7 10.2c0 2.2.2 3 .4 1.7.2-1.2.2-3 0-4-.3-.9-.5.1-.4 2.3zm164.8-1.9c0 1.1.3 1.4.6.6.3-.7.2-1.6-.1-1.9-.3-.4-.6.2-.5 1.3zm-336.7 64.3c-1 8.2.2 30 2.5 43.1 4.8 27.7 15.5 53.3 31.9 76.3l5.6 7.7 1.2-2.8c.6-1.6 2.4-3.8 3.9-4.9 2.3-1.6 2.7-2.5 2.1-4.6-.5-2.2-1.2-2.7-3.9-2.7-6.9 0-9.2-4.1-10.3-18.6-.6-7.5-.5-8.3 1.5-10.3 1.2-1.2 3.5-2.4 5.2-2.8 2.5-.5 3-1 2.5-2.7-.3-1.2-.6-2.9-.6-3.9s-.8-1.7-1.8-1.7c-2.5 0-6.2-2.8-7.2-5.5-1.5-4 .8-21.6 5.7-44.1.4-1.7-.6-2.5-5.9-4.7-8.9-3.8-18.1-10.1-25.5-17.2l-6.2-6.2-.7 5.6zm228.4 16.8c.6.2 1.8.2 2.5 0 .6-.3.1-.5-1.3-.5-1.4 0-1.9.2-1.2.5zm26.5 0c.9.2 2.3.2 3 0 .6-.3-.1-.5-1.8-.5-1.6 0-2.2.2-1.2.5zm-36.5 1c.7.3 1.6.2 1.9-.1.4-.3-.2-.6-1.3-.5-1.1 0-1.4.3-.6.6zm-7 1c.7.3 1.6.2 1.9-.1.4-.3-.2-.6-1.3-.5-1.1 0-1.4.3-.6.6zm-80.9 34c-1.3 1.6-1.2 1.7.4.4 1.6-1.3 2.1-2.1 1.3-2.1-.2 0-1 .8-1.7 1.7zm227.1 1.7c0 .2.8 1 1.8 1.7 1.5 1.3 1.6 1.2.3-.4s-2.1-2.1-2.1-1.3zm-232.1 2.3c-1.3 1.6-1.2 1.7.4.4 1.6-1.3 2.1-2.1 1.3-2.1-.2 0-1 .8-1.7 1.7zm238.1 2.6c0 .1 3.5 3.6 7.8 7.7l7.7 7.5-7.5-7.8c-6.9-7.1-8-8.2-8-7.4zm-249.5 7.9-7 7.3 7.3-7c6.7-6.4 7.7-7.5 6.9-7.5-.1 0-3.4 3.3-7.2 7.2zm-10.6 11.5c-1.3 1.6-1.2 1.7.4.4 1.6-1.3 2.1-2.1 1.3-2.1-.2 0-1 .8-1.7 1.7zm277.1-1.3c0 .2.8 1 1.8 1.7 1.5 1.3 1.6 1.2.3-.4s-2.1-2.1-2.1-1.3zm-305.9 66.2c0 1.1.3 1.4.6.6.3-.7.2-1.6-.1-1.9-.3-.4-.6.2-.5 1.3zm-1 10c0 1.1.3 1.4.6.6.3-.7.2-1.6-.1-1.9-.3-.4-.6.2-.5 1.3zm5.4 8.4c1 1.1 2 2 2.3 2 .3 0-.3-.9-1.3-2s-2-2-2.3-2c-.3 0 .3.9 1.3 2zm317.9.2-1.9 2.3 2.3-1.9c1.2-1.1 2.2-2.1 2.2-2.3 0-.8-.8-.2-2.6 1.9zM239.5 552c1 1.1 2 2 2.3 2 .3 0-.3-.9-1.3-2s-2-2-2.3-2c-.3 0 .3.9 1.3 2zm287.9.2-1.9 2.3 2.3-1.9c2.1-1.8 2.7-2.6 1.9-2.6-.2 0-1.2 1-2.3 2.2zM244 555.4c0 .2.8 1 1.8 1.7 1.5 1.3 1.6 1.2.3-.4s-2.1-2.1-2.1-1.3zm101.8 39.3c.7.3 1.6.2 1.9-.1.4-.3-.2-.6-1.3-.5-1.1 0-1.4.3-.6.6zm9 1c.7.3 1.6.2 1.9-.1.4-.3-.2-.6-1.3-.5-1.1 0-1.4.3-.6.6zm57 0c.7.3 1.6.2 1.9-.1.4-.3-.2-.6-1.3-.5-1.1 0-1.4.3-.6.6zm-42 1c1.2.2 3.2.2 4.5 0 1.2-.2.2-.4-2.3-.4s-3.5.2-2.2.4zm25 0c1.2.2 3 .2 4 0 .9-.3-.1-.5-2.3-.4-2.2 0-3 .2-1.7.4z"/><path fill="gray" d="M306 206.5c1.9 1.9 3.6 3.5 3.9 3.5.3 0-1-1.6-2.9-3.5s-3.6-3.5-3.9-3.5c-.3 0 1 1.6 2.9 3.5zm-35.8 8.5c0 1.4.2 1.9.5 1.2.2-.6.2-1.8 0-2.5-.3-.6-.5-.1-.5 1.3zm41 0c0 1.4.2 1.9.5 1.2.2-.6.2-1.8 0-2.5-.3-.6-.5-.1-.5 1.3zm-20.2.3c0 .2 1.5 1.6 3.3 3.3l3.2 2.9-2.9-3.3c-2.8-3-3.6-3.7-3.6-2.9zm-20 4.1c0 .2.8 1 1.8 1.7 1.5 1.3 1.6 1.2.3-.4s-2.1-2.1-2.1-1.3zm6.8 4.3c.7.3 1.6.2 1.9-.1.4-.3-.2-.6-1.3-.5-1.1 0-1.4.3-.6.6zm-68.5 27c.9.2 2.3.2 3 0 .6-.3-.1-.5-1.8-.5-1.6 0-2.2.2-1.2.5zm161 0c.9.2 2.5.2 3.5 0 .9-.3.1-.5-1.8-.5-1.9 0-2.7.2-1.7.5zm24 0c.9.2 2.5.2 3.5 0 .9-.3.1-.5-1.8-.5-1.9 0-2.7.2-1.7.5zm162 0c.9.2 2.3.2 3 0 .6-.3-.1-.5-1.8-.5-1.6 0-2.2.2-1.2.5zm-197.5 1c.7.3 1.6.2 1.9-.1.4-.3-.2-.6-1.3-.5-1.1 0-1.4.3-.6.6zm-90.3 6.3c2.7 2.7 5.1 5 5.4 5 .3 0-1.7-2.3-4.4-5-2.7-2.8-5.1-5-5.4-5-.3 0 1.7 2.2 4.4 5zm-102.6 9.7c-1.3 1.6-1.2 1.7.4.4 1.6-1.3 2.1-2.1 1.3-2.1-.2 0-1 .8-1.7 1.7zm434.1-1.3c0 .2.8 1 1.8 1.7 1.5 1.3 1.6 1.2.3-.4s-2.1-2.1-2.1-1.3zm-439.1 6.3c-1.3 1.6-1.2 1.7.4.4.9-.7 1.7-1.5 1.7-1.7 0-.8-.8-.3-2.1 1.3zm33 19-2.4 2.8 2.8-2.4c2.5-2.3 3.2-3.1 2.4-3.1-.2 0-1.4 1.2-2.8 2.7zm379.1-.2c1.3 1.4 2.6 2.5 2.8 2.5.3 0-.5-1.1-1.8-2.5s-2.6-2.5-2.8-2.5c-.3 0 .5 1.1 1.8 2.5zM458.2 313c0 1.4.2 1.9.5 1.2.2-.6.2-1.8 0-2.5-.3-.6-.5-.1-.5 1.3zm-208.8 7.2-1.9 2.3 2.3-1.9c2.1-1.8 2.7-2.6 1.9-2.6-.2 0-1.2 1-2.3 2.2zm45.6-.8c0 .2.8 1 1.8 1.7 1.5 1.3 1.6 1.2.3-.4s-2.1-2.1-2.1-1.3zm224.5 2.6c1 1.1 2 2 2.3 2 .3 0-.3-.9-1.3-2s-2-2-2.3-2c-.3 0 .3.9 1.3 2zm-339.3 3c0 1.4.2 1.9.5 1.2.2-.6.2-1.8 0-2.5-.3-.6-.5-.1-.5 1.3zm63.2 1.2-2.9 3.3 3.3-2.9c3-2.8 3.7-3.6 2.9-3.6-.2 0-1.6 1.5-3.3 3.2zm209.7-1.6c0 1.1.3 1.4.6.6.3-.7.2-1.6-.1-1.9-.3-.4-.6.2-.5 1.3zm134 0c0 1.1.3 1.4.6.6.3-.7.2-1.6-.1-1.9-.3-.4-.6.2-.5 1.3zm-282.3.1c.7.3 1.6.2 1.9-.1.4-.3-.2-.6-1.3-.5-1.1 0-1.4.3-.6.6zm165 0c.6.2 1.8.2 2.5 0 .6-.3.1-.5-1.3-.5-1.4 0-1.9.2-1.2.5zm-167.9 26-2.4 2.8 2.8-2.4c2.5-2.3 3.2-3.1 2.4-3.1-.2 0-1.4 1.2-2.8 2.7zm163.1-.2c1.3 1.4 2.6 2.5 2.8 2.5.3 0-.5-1.1-1.8-2.5s-2.6-2.5-2.8-2.5c-.3 0 .5 1.1 1.8 2.5zm-39.2 17.2c.7.3 1.6.2 1.9-.1.4-.3-.2-.6-1.3-.5-1.1 0-1.4.3-.6.6zm-53 7c.7.3 1.6.2 1.9-.1.4-.3-.2-.6-1.3-.5-1.1 0-1.4.3-.6.6zm30 0c.7.3 1.6.2 1.9-.1.4-.3-.2-.6-1.3-.5-1.1 0-1.4.3-.6.6zM520 421.4c0 .2.8 1 1.8 1.7 1.5 1.3 1.6 1.2.3-.4s-2.1-2.1-2.1-1.3zm-267.1 3.3c-1.3 1.6-1.2 1.7.4.4.9-.7 1.7-1.5 1.7-1.7 0-.8-.8-.3-2.1 1.3zm-74.8 2.9c0 1.1.3 1.4.6.6.3-.7.2-1.6-.1-1.9-.3-.4-.6.2-.5 1.3zm63.8 8.1c-1.3 1.6-1.2 1.7.4.4.9-.7 1.7-1.5 1.7-1.7 0-.8-.8-.3-2.1 1.3zm292.1-.3c0 .2.8 1 1.8 1.7 1.5 1.3 1.6 1.2.3-.4s-2.1-2.1-2.1-1.3zm39.2 6.1c0 1.6.2 2.2.5 1.2.2-.9.2-2.3 0-3-.3-.6-.5.1-.5 1.8zm-388.4 5.2c.6.2 1.8.2 2.5 0 .6-.3.1-.5-1.3-.5-1.4 0-1.9.2-1.2.5zm388.4 9.3c0 1.4.2 1.9.5 1.2.2-.6.2-1.8 0-2.5-.3-.6-.5-.1-.5 1.3zm-387.4-.3c.7.3 1.6.2 1.9-.1.4-.3-.2-.6-1.3-.5-1.1 0-1.4.3-.6.6zm-7.7 12.9c0 1.1.3 1.4.6.6.3-.7.2-1.6-.1-1.9-.3-.4-.6.2-.5 1.3zm15.7 25.1c.7.3 1.6.2 1.9-.1.4-.3-.2-.6-1.3-.5-1.1 0-1.4.3-.6.6zm-5.4 2.5-1.9 2.3 2.3-1.9c2.1-1.8 2.7-2.6 1.9-2.6-.2 0-1.2 1-2.3 2.2zm30.7 28.4c0 1.1.3 1.4.6.6.3-.7.2-1.6-.1-1.9-.3-.4-.6.2-.5 1.3zm319.8 17.1c-1.3 1.6-1.2 1.7.4.4 1.6-1.3 2.1-2.1 1.3-2.1-.2 0-1 .8-1.7 1.7zM234 547.4c0 .2.8 1 1.8 1.7 1.5 1.3 1.6 1.2.3-.4s-2.1-2.1-2.1-1.3zm296.9 2.3c-1.3 1.6-1.2 1.7.4.4 1.6-1.3 2.1-2.1 1.3-2.1-.2 0-1 .8-1.7 1.7zm-166.1 47c.7.3 1.6.2 1.9-.1.4-.3-.2-.6-1.3-.5-1.1 0-1.4.3-.6.6zm38 0c.7.3 1.6.2 1.9-.1.4-.3-.2-.6-1.3-.5-1.1 0-1.4.3-.6.6z"/><g fill="#80BFBF" stroke-width="0"><path d="m286.9 218.7-3.4 3.8 3.8-3.4c2-1.9 3.7-3.6 3.7-3.8 0-.8-.8 0-4.1 3.4zM194.2 253c-21.1 5.6-38.9 22.3-45.8 43.3-2.4 7.1-2.8 9.9-2.8 20.2 0 10.4.3 13 2.6 19.6 5.9 16.8 17 30.2 31.6 37.7 4.4 2.3 8.6 4.2 9.4 4.2.7 0 2.9-3.8 4.9-8.4l3.6-8.4-4.4-4.4c-9.6-9.4-14.8-26-12.4-39.6 4.4-24.5 24.5-40.4 49.1-38.9 9.8.5 16.8 2.9 24 8.1l5 3.6 4-2.8c2.1-1.5 3.9-3.1 4-3.6 0-1.7-7.3-10.7-13.2-16-15.7-14.3-39-20-59.6-14.6zm347 0c-9.7 2.6-19.7 8-27 14.6-6 5.4-13.2 14.2-13.2 16.2 0 .5 1.8 2.1 4 3.6l4 2.6 5-3.6c7.2-5.2 14.2-7.6 24-8.1 24.6-1.5 44.7 14.4 49.1 38.9 2.4 13.6-2.8 30.2-12.4 39.7l-4.5 4.3 3.7 8.4c2 4.6 4.2 8.4 4.9 8.4.8 0 5-1.9 9.4-4.2 14.6-7.5 25.7-20.9 31.6-37.7 2.3-6.6 2.6-9.2 2.6-19.6 0-10.3-.4-13.1-2.8-20.2-10.7-32.6-45.6-51.9-78.4-43.3z"/><path d="M366 268.2c-83 7.8-151.2 66.7-167.5 144.7-1.3 6.2-2.7 15.2-3.1 20-.6 7.4-1.1 8.9-3.3 11.2-1.4 1.4-3.2 2.8-4 3-1 .4-1.2 1.5-.7 4.6.6 3.2 1.3 4.3 3.1 4.7 3.4.9 4.2 2.8 5.6 14.3 1.2 9.1 1.1 10.3-.4 12.7-1 1.4-2.4 2.6-3.3 2.6-1.2 0-1.3.4-.3 2.1.6 1.2.9 2.9.6 3.9-.3 1.2 0 1.6 1.2 1.3 3.5-.9 7.2 1.6 9.3 6.4l2.1 4.7 2.3-8c10.2-35.5 34.2-67 68.2-89.7 21.8-14.6 48.4-24.9 77.7-30.3 13.7-2.4 45-3 61-1 69.2 8.5 126.8 49.4 149.6 106.4l3.4 8.4 1.7-6.8c4.6-18.5 5-49.2.8-68.8-15.4-72.2-73-128.4-146.5-143.1-20.9-4.2-38-5.2-57.5-3.3zm-52.4 35.1c4.5 4.1 5.5 9.7 2.8 14.8-1 1.9-1.7 4.4-1.5 5.6.4 3.9-2.9 14.6-6 19.4-5.9 9.3-14.8 15.9-24.8 18.5-17.1 4.3-30.5-6.6-28.8-23.4 1.8-17 18.6-33.4 35.8-34.9 3.5-.3 7.3-1.2 8.4-1.9 1.1-.8 3.9-1.4 6.2-1.4 3.5 0 5 .6 7.9 3.3zm164.3-1.4c2 1 5.7 2.6 8.2 3.5 17.7 6.3 30.7 27.9 25.8 42.7-3.9 11.4-15 16.8-28 13.5-7.1-1.9-11.6-4.4-17.6-9.9-11.4-10.5-16.2-27.1-10.6-37.2.9-1.7 2.4-4.6 3.4-6.7 3.9-7.6 11.1-9.9 18.8-5.9zm-78.2 43.5c3.7.8 8.8 2.2 11.3 3.1 5.7 2 16.2 2.1 21.9.1 6.3-2.3 9.4-2 12.5 1 3.4 3.5 3.5 8.6.2 11.9-6.6 6.5-27.6 8.1-42.6 3.1-11.7-3.9-20.5-3.9-32-.2-14.1 4.6-34.2 3.4-40-2.4-4.4-4.4-3.4-10.8 2.2-13.9 2.4-1.4 3.4-1.4 9.2.2 8.7 2.3 14.1 2.1 23.3-.7 4.3-1.4 8.9-2.7 10.3-2.9 5.6-1 17.3-.6 23.7.7zM151.5 375c2.1 2.2 4.1 4 4.4 4 .3 0-1.3-1.8-3.4-4-2.1-2.2-4.1-4-4.4-4-.3 0 1.3 1.8 3.4 4zm25.7 63c0 1.4.2 1.9.5 1.2.2-.6.2-1.8 0-2.5-.3-.6-.5-.1-.5 1.3z"/></g><path fill="#404040" d="M202.8 250.7c.7.3 1.6.2 1.9-.1.4-.3-.2-.6-1.3-.5-1.1 0-1.4.3-.6.6zm14 0c.7.3 1.6.2 1.9-.1.4-.3-.2-.6-1.3-.5-1.1 0-1.4.3-.6.6zm164 0c1.7.2 4.7.2 6.5 0 1.7-.2.3-.4-3.3-.4-3.6 0-5 .2-3.2.4zm169 0c.7.3 1.6.2 1.9-.1.4-.3-.2-.6-1.3-.5-1.1 0-1.4.3-.6.6zm14 0c.7.3 1.6.2 1.9-.1.4-.3-.2-.6-1.3-.5-1.1 0-1.4.3-.6.6zm-201 1c.7.3 1.6.2 1.9-.1.4-.3-.2-.6-1.3-.5-1.1 0-1.4.3-.6.6zm41 0c.7.3 1.6.2 1.9-.1.4-.3-.2-.6-1.3-.5-1.1 0-1.4.3-.6.6zm-39 16c.6.2 1.8.2 2.5 0 .6-.3.1-.5-1.3-.5-1.4 0-1.9.2-1.2.5zm36 0c.6.2 1.8.2 2.5 0 .6-.3.1-.5-1.3-.5-1.4 0-1.9.2-1.2.5zm-176.5 11c1.5.2 3.9.2 5.5 0 1.5-.2.2-.4-2.8-.4s-4.3.2-2.7.4zm314 0c1.5.2 3.9.2 5.5 0 1.5-.2.2-.4-2.8-.4s-4.3.2-2.7.4zm-394 37.8c0 3.8.2 5.3.4 3.2.2-2 .2-5.2 0-7-.2-1.7-.4-.1-.4 3.8zm479 0c0 3.8.2 5.3.4 3.2.2-2 .2-5.2 0-7-.2-1.7-.4-.1-.4 3.8zm-368.4-1.8c-1.3 1.6-1.2 1.7.4.4.9-.7 1.7-1.5 1.7-1.7 0-.8-.8-.3-2.1 1.3zm12 1-2.4 2.8 2.8-2.4c2.5-2.3 3.2-3.1 2.4-3.1-.2 0-1.4 1.2-2.8 2.7zm233.1-.2c1.3 1.4 2.6 2.5 2.8 2.5.3 0-.5-1.1-1.8-2.5s-2.6-2.5-2.8-2.5c-.3 0 .5 1.1 1.8 2.5zm13.5.5c1 1.1 2 2 2.3 2 .3 0-.3-.9-1.3-2s-2-2-2.3-2c-.3 0 .3.9 1.3 2zm-227.3 6.1c-10.3 5.1-18.5 21.6-11.4 23.1 8.6 1.9 22.2-10.1 22.5-19.7.2-5.9-3.7-7-11.1-3.4zm192.1 0c-.6.6-2.6 1.6-4.6 2.3l-3.5 1.2 1.3 3.7c2.8 8.3 11.6 15.6 19 15.9 4.5.2 5.7-1.4 5-6.2-.8-4.6-5-10.6-10.4-14.7-4.7-3.6-5.2-3.8-6.8-2.2zm49.2 7.9c1 1.1 2 2 2.3 2 .3 0-.3-.9-1.3-2s-2-2-2.3-2c-.3 0 .3.9 1.3 2zm-289.6 1.7c-1.3 1.6-1.2 1.7.4.4 1.6-1.3 2.1-2.1 1.3-2.1-.2 0-1 .8-1.7 1.7zm145.9 13c1.2.2 3 .2 4 0 .9-.3-.1-.5-2.3-.4-2.2 0-3 .2-1.7.4zm-36 6c.7.3 1.6.2 1.9-.1.4-.3-.2-.6-1.3-.5-1.1 0-1.4.3-.6.6zm9 0c.7.3 1.6.2 1.9-.1.4-.3-.2-.6-1.3-.5-1.1 0-1.4.3-.6.6zm-26.8 9.7c0 .2.8 1 1.8 1.7 1.5 1.3 1.6 1.2.3-.4s-2.1-2.1-2.1-1.3zm28.8 6.3c.7.3 1.6.2 1.9-.1.4-.3-.2-.6-1.3-.5-1.1 0-1.4.3-.6.6zm23.5 8c3.1.2 8.3.2 11.5 0 3.1-.2.5-.3-5.8-.3s-8.9.1-5.7.3zm-16.5 1c.7.3 1.6.2 1.9-.1.4-.3-.2-.6-1.3-.5-1.1 0-1.4.3-.6.6zm44 0c.7.3 1.6.2 1.9-.1.4-.3-.2-.6-1.3-.5-1.1 0-1.4.3-.6.6zm-255.8.7c0 .2.8 1 1.8 1.7 1.5 1.3 1.6 1.2.3-.4s-2.1-2.1-2.1-1.3zm228.3 14.3c.9.2 2.5.2 3.5 0 .9-.3.1-.5-1.8-.5-1.9 0-2.7.2-1.7.5zm8.5 0c1.2.2 3 .2 4 0 .9-.3-.1-.5-2.3-.4-2.2 0-3 .2-1.7.4zm181.3 34.9c0 1.1.3 1.4.6.6.3-.7.2-1.6-.1-1.9-.3-.4-.6.2-.5 1.3zm-44.6 3.4c2.1 2.2 4.1 4 4.4 4 .3 0-1.3-1.8-3.4-4-2.1-2.2-4.1-4-4.4-4-.3 0 1.3 1.8 3.4 4zm-349.3 3c0 1.4.2 1.9.5 1.2.2-.6.2-1.8 0-2.5-.3-.6-.5-.1-.5 1.3zm16 3c0 1.4.2 1.9.5 1.2.2-.6.2-1.8 0-2.5-.3-.6-.5-.1-.5 1.3zm379 0c0 1.4.2 1.9.5 1.2.2-.6.2-1.8 0-2.5-.3-.6-.5-.1-.5 1.3zm-60.7 2c1 1.1 2 2 2.3 2 .3 0-.3-.9-1.3-2s-2-2-2.3-2c-.3 0 .3.9 1.3 2zm-250.6 1.7-2.4 2.8 2.8-2.4c2.5-2.3 3.2-3.1 2.4-3.1-.2 0-1.4 1.2-2.8 2.7zm-6 6-2.4 2.8 2.8-2.4c2.5-2.3 3.2-3.1 2.4-3.1-.2 0-1.4 1.2-2.8 2.7zm263.1-1.3c0 .2.8 1 1.8 1.7 1.5 1.3 1.6 1.2.3-.4s-2.1-2.1-2.1-1.3zm54.1 18.2c0 1.1.3 1.4.6.6.3-.7.2-1.6-.1-1.9-.3-.4-.6.2-.5 1.3zM178.2 464c0 1.4.2 1.9.5 1.2.2-.6.2-1.8 0-2.5-.3-.6-.5-.1-.5 1.3zm17.9 14.6c0 1.1.3 1.4.6.6.3-.7.2-1.6-.1-1.9-.3-.4-.6.2-.5 1.3z"/><path fill="#804040" d="M375.8 250.7c.7.3 1.6.2 1.9-.1.4-.3-.2-.6-1.3-.5-1.1 0-1.4.3-.6.6zM516.5 441c1 1.1 2 2 2.3 2 .3 0-.3-.9-1.3-2s-2-2-2.3-2c-.3 0 .3.9 1.3 2zM361.8 596.7c.7.3 1.6.2 1.9-.1.4-.3-.2-.6-1.3-.5-1.1 0-1.4.3-.6.6z"/><path fill="#404000" d="M383.8 597.7c.6.2 1.8.2 2.5 0 .6-.3.1-.5-1.3-.5-1.4 0-1.9.2-1.2.5z"/><path fill="#404080" d="m248.9 428.7-2.4 2.8 2.8-2.4c2.5-2.3 3.2-3.1 2.4-3.1-.2 0-1.4 1.2-2.8 2.7z"/><path fill="#408080" d="M291.8 303.7c.6.2 1.8.2 2.5 0 .6-.3.1-.5-1.3-.5-1.4 0-1.9.2-1.2.5zM255.2 341c0 1.4.2 1.9.5 1.2.2-.6.2-1.8 0-2.5-.3-.6-.5-.1-.5 1.3zm96.6 9.7c.7.3 1.6.2 1.9-.1.4-.3-.2-.6-1.3-.5-1.1 0-1.4.3-.6.6zm251.6 12.5-1.9 2.3 2.3-1.9c1.2-1.1 2.2-2.1 2.2-2.3 0-.8-.8-.2-2.6 1.9z"/><path fill="#8080BF" d="M254 267.3c0 .2 1.5 1.6 3.3 3.3l3.2 2.9-2.9-3.3c-2.8-3-3.6-3.7-3.6-2.9zm118.8.4c.7.3 1.6.2 1.9-.1.4-.3-.2-.6-1.3-.5-1.1 0-1.4.3-.6.6zm21 0c.7.3 1.6.2 1.9-.1.4-.3-.2-.6-1.3-.5-1.1 0-1.4.3-.6.6zm116.6 2.5-2.9 3.3 3.3-2.9c1.7-1.7 3.2-3.1 3.2-3.3 0-.8-.8-.1-3.6 2.9zm-254 44-1.9 2.3 2.3-1.9c1.2-1.1 2.2-2.1 2.2-2.3 0-.8-.8-.2-2.6 1.9zm10 1-1.9 2.3 2.3-1.9c1.2-1.1 2.2-2.1 2.2-2.3 0-.8-.8-.2-2.6 1.9zm234.1-.2c1 1.1 2 2 2.3 2 .3 0-.3-.9-1.3-2s-2-2-2.3-2c-.3 0 .3.9 1.3 2zm11.5.5c1.3 1.4 2.6 2.5 2.8 2.5.3 0-.5-1.1-1.8-2.5s-2.6-2.5-2.8-2.5c-.3 0 .5 1.1 1.8 2.5zM180.2 321c0 1.4.2 1.9.5 1.2.2-.6.2-1.8 0-2.5-.3-.6-.5-.1-.5 1.3zm407 0c0 1.4.2 1.9.5 1.2.2-.6.2-1.8 0-2.5-.3-.6-.5-.1-.5 1.3zm-273 4c0 1.9.2 2.7.5 1.7.2-.9.2-2.5 0-3.5-.3-.9-.5-.1-.5 1.8zm273 3c0 1.4.2 1.9.5 1.2.2-.6.2-1.8 0-2.5-.3-.6-.5-.1-.5 1.3zm-407.1.6c0 1.1.3 1.4.6.6.3-.7.2-1.6-.1-1.9-.3-.4-.6.2-.5 1.3zm348.4 3.4c1 1.1 2 2 2.3 2 .3 0-.3-.9-1.3-2s-2-2-2.3-2c-.3 0 .3.9 1.3 2zm-291.1 1.2-1.9 2.3 2.3-1.9c2.1-1.8 2.7-2.6 1.9-2.6-.2 0-1.2 1-2.3 2.2zm182.4 17.5c.7.3 1.6.2 1.9-.1.4-.3-.2-.6-1.3-.5-1.1 0-1.4.3-.6.6zm-142 12c.7.3 1.6.2 1.9-.1.4-.3-.2-.6-1.3-.5-1.1 0-1.4.3-.6.6zm211 0c.7.3 1.6.2 1.9-.1.4-.3-.2-.6-1.3-.5-1.1 0-1.4.3-.6.6zm-137.5 5c.9.2 2.5.2 3.5 0 .9-.3.1-.5-1.8-.5-1.9 0-2.7.2-1.7.5zm18.5 7c.7.3 1.6.2 1.9-.1.4-.3-.2-.6-1.3-.5-1.1 0-1.4.3-.6.6zm-107.9 42c-1.3 1.6-1.2 1.7.4.4.9-.7 1.7-1.5 1.7-1.7 0-.8-.8-.3-2.1 1.3zm-6 5c-1.3 1.6-1.2 1.7.4.4 1.6-1.3 2.1-2.1 1.3-2.1-.2 0-1 .8-1.7 1.7zm272.1 6.7c0 .2.8 1 1.8 1.7 1.5 1.3 1.6 1.2.3-.4s-2.1-2.1-2.1-1.3zm-289.1 10.3c-1.3 1.6-1.2 1.7.4.4.9-.7 1.7-1.5 1.7-1.7 0-.8-.8-.3-2.1 1.3zM573.3 449c0 3 .2 4.3.4 2.7.2-1.5.2-3.9 0-5.5-.2-1.5-.4-.2-.4 2.8zm-379.4 35.7c-1.3 1.6-1.2 1.7.4.4.9-.7 1.7-1.5 1.7-1.7 0-.8-.8-.3-2.1 1.3zm5.1 9.7c0 .2.8 1 1.8 1.7 1.5 1.3 1.6 1.2.3-.4s-2.1-2.1-2.1-1.3z"/><path fill="maroon" d="M243.9 300.3c.6.8.7 1.8.3 2.2-.4.5-.1.5.6.1 1-.6 1-1.1.1-2.2-.6-.8-1.4-1.4-1.6-1.4-.3 0 0 .6.6 1.3zm279.2 0c-.8 1.1-.6 1.8 1.2 3.3 2.2 1.9 2.2 1.9.5-.2-1.4-1.6-1.5-2.3-.6-3.2.7-.7.9-1.2.6-1.2-.3 0-1.1.6-1.7 1.3zm17.4 19.7c1 1.1 2 2 2.3 2 .3 0-.3-.9-1.3-2s-2-2-2.3-2c-.3 0 .3.9 1.3 2zm-343.4 1.6c0 1.1.3 1.4.6.6.3-.7.2-1.6-.1-1.9-.3-.4-.6.2-.5 1.3zm27.8.1c-1.3 1.6-1.2 1.7.4.4.9-.7 1.7-1.5 1.7-1.7 0-.8-.8-.3-2.1 1.3zm345.2-.1c0 1.1.3 1.4.6.6.3-.7.2-1.6-.1-1.9-.3-.4-.6.2-.5 1.3zM197.2 328c0 1.4.2 1.9.5 1.2.2-.6.2-1.8 0-2.5-.3-.6-.5-.1-.5 1.3zm373 0c0 1.4.2 1.9.5 1.2.2-.6.2-1.8 0-2.5-.3-.6-.5-.1-.5 1.3z"/><path fill="#BF0000" d="M216.1 297.2c-6.1 2.3-12.7 8.4-15.4 14-4.2 8.9-3.9 20.2.8 28.4 4.4 7.5 4.5 7.5 12.1-3.3 3.8-5.3 12.4-15.4 19.2-22.4l12.3-12.8-2.5-1.7c-7.3-4.7-17.7-5.6-26.5-2.2zm315.7-.8c-2.1.8-4.9 2.1-6.4 3l-2.5 1.7 11.3 11.7c6.2 6.4 14.9 16.6 19.3 22.6l7.9 10.9 2.8-3.3c3.7-4.5 6.1-12.2 6.1-19.3-.1-7.3-4.7-17.2-10.1-21.7-7.6-6.2-19.8-8.7-28.4-5.6z"/><path fill="#FFF" d="M301.4 301.4c-11.6 5.1-8.5 22.6 4.1 22.6 12.8 0 15.8-17.6 3.9-22.6-4-1.7-4.1-1.7-8 0zm165.1 0c-4.3 1.9-6.6 4.9-7.2 9.4-1.3 9.7 9 16.4 17.4 11.2 3.9-2.3 5.5-5.2 5.5-9.5 0-8.5-8.4-14.4-15.7-11.1zm-97 90.7c-44.2 4.7-83.2 23.1-111.6 52.7-19.3 20.1-32.1 44.3-36.4 69.1-2.6 14.5-2.4 15.7 4.5 23.9 11.2 13.3 29.4 26.9 48.5 36.1 61.2 29.9 155.3 30.3 217.4 1 23.5-11.1 46-29.6 58.3-47.9l5.8-8.5-1.6-7.5c-3.5-17.1-10.3-33-21.1-49.3-7.3-11.1-27.7-31-40.7-39.6-35.1-23.3-80.7-34.4-123.1-30z"/><path fill="#BF8080" d="M229 542.4c0 .2.8 1 1.8 1.7 1.5 1.3 1.6 1.2.3-.4s-2.1-2.1-2.1-1.3zm304.9 4.3c-1.3 1.6-1.2 1.7.4.4 1.6-1.3 2.1-2.1 1.3-2.1-.2 0-1 .8-1.7 1.7z"/></svg>