<svg xmlns="http://www.w3.org/2000/svg" version="1.0" viewBox="0 0 768 768"><path fill-opacity=".1" d="M218.1 313.6c0 1.1.3 1.4.6.6.3-.7.2-1.6-.1-1.9-.3-.4-.6.2-.5 1.3zm331 0c0 1.1.3 1.4.6.6.3-.7.2-1.6-.1-1.9-.3-.4-.6.2-.5 1.3z"/><g stroke-width="0"><path d="M380.3 192.2c-2.7 3.4-62.7 106.5-63 108.3-.3 1.3 4.7 10.7 13.6 25.8l13.9 23.7-6.6 5.3c-29.5 23.5-49.8 39-50.6 39-1.2 0-95.7-41.2-96.9-42.3-.4-.3 5.6-8.9 13.3-18.9 7.7-10.1 14-18.9 14-19.6 0-.7-.8-2.2-1.8-3.3-.9-1.1-19.8-10.4-41.9-20.7-39.5-18.4-40.3-18.7-42.8-17.1-1.6 1-2.5 2.6-2.5 4.2 0 2.4 4.8 24.5 20.2 91.9 3.8 17 14.6 70.4 23.9 118.5 13.2 68.6 17.2 87.7 18.5 88.7 2.6 1.9 382.2 1.9 384.8 0 1.3-1 5.3-20.1 18.5-88.7 9.3-48.1 20.1-101.5 23.9-118.5 15.4-67.4 20.2-89.5 20.2-91.9 0-1.6-.9-3.2-2.5-4.2-2.5-1.6-3.3-1.3-42.8 17.1-22.1 10.3-41 19.6-41.9 20.7-1 1.1-1.8 2.6-1.8 3.3 0 .7 6.3 9.5 14 19.6 7.7 10 13.7 18.6 13.3 18.9-1.2 1.1-95.7 42.3-96.9 42.3-.8 0-21.1-15.5-50.6-39l-6.6-5.3 13.9-23.7c7.6-13 13.9-24.4 13.9-25.2 0-.9-14.3-25.9-31.8-55.6-30.3-51.5-31.9-54-34.8-54.3-1.7-.2-3.5.3-4.1 1zm31.6 62.3 27.3 46.5-14.1 24c-13.2 22.4-15.2 26.8-13.3 29.6.7 1.2 60.5 48.2 64.6 50.9 2.2 1.4 2.8 1.4 7.2-.3 8.8-3.4 103.8-45.3 106.2-46.8 4.4-2.9 3-5.8-11.3-24.4-7.4-9.6-13.4-17.8-13.2-18.3.2-.8 59.8-29 60.2-28.5.2.2-5.4 25.7-12.4 56.8-7.1 31.1-18.6 86.5-25.6 123.2L574.6 534h-27c-23.7 0-27.2.2-28.8 1.7-2.4 2.1-2.3 4.8.2 7.3 1.9 1.9 3.3 2 27.5 2 14 0 25.5.3 25.5.7 0 .5-.7 5.2-1.7 10.5l-1.6 9.8H390v-21.7l5.5-.7c17.1-2 37.2-15.5 46.9-31.4 20.8-34.3 9.2-77-26.4-97-19.2-10.7-46.6-10.2-66.3 1.4-39.1 22.8-46.1 75.5-14.4 107.7 10.1 10.2 24.9 17.9 37.2 19.3l5.5.7V566H199.3l-1.6-9.8c-1-5.3-1.7-10-1.7-10.5 0-.4 11.5-.7 25.5-.7 24.2 0 25.6-.1 27.5-2 2.4-2.4 2.5-4.7.3-7.2-1.5-1.7-3.7-1.8-28.8-1.8h-27.1l-12.8-66.8c-7.2-37-18.6-91.9-25.6-123.2-7.1-31.1-12.7-56.6-12.6-56.8.5-.5 60.1 27.7 60.3 28.5.2.5-5.8 8.7-13.2 18.3-14.3 18.6-15.7 21.5-11.2 24.4 2.3 1.5 105.7 46.9 109.3 48 2.5.8.6 2.1 40.7-29.4 25.3-19.8 28.7-22.8 28.7-25.3 0-1.7-5.1-11.4-14.1-26.7l-14.1-24 27.3-46.5c15.1-25.6 27.6-46.5 27.9-46.5.3 0 12.8 20.9 27.9 46.5zm-13 166.2c18.6 5.1 32.9 18.6 39.2 36.6 4.7 13.5 5.6 12.7-12.6 12.7h-15.4l-1.9-4.3c-2.2-4.9-7.6-10.8-12.5-13.4-2.3-1.3-5.5-1.8-11.7-1.8-6.2 0-9.4.5-11.7 1.8-4.9 2.6-10.3 8.5-12.5 13.4l-1.9 4.3h-15.4c-18.2 0-17.3.8-12.6-12.7 10-28.7 40.2-44.7 69-36.6zm-7.9 42.1c13.9 6.9 8.6 28.2-7 28.2-8.6 0-15-6.5-15-15.1 0-8.2 6.8-14.9 15-14.9 1.9 0 5.1.8 7 1.8zm-31.2 23.4c2.8 6.4 6.6 10.4 12.7 13.3 13.2 6.5 28.6 1.2 35.1-12l2.6-5.5h31l-.6 4.5c-1.6 10.4-9.7 25-17.8 32-11.6 9.9-23.8 14.6-38.3 14.8-14.5.1-25.7-3.8-37-13-9.9-8.1-18.7-23-20.2-34.3l-.6-4h31.2l1.9 4.2z"/><path d="M261.2 535.2c-1.8 1.8-1.4 6.3.6 8.1 2.5 2.3 12.9 2.3 16 .1 2.6-1.8 2.9-5.6.6-7.8-1.9-2-15.3-2.3-17.2-.4zm29.4.4c-2.3 2.2-2 6 .6 7.8 3.3 2.3 14 2.2 16.1-.2 2-2.2 2.2-6.3.5-8-1.9-1.9-15.3-1.6-17.2.4zm27 0c-2.5 2.4-2 6.1 1 8.1 2.4 1.5 2.9 1.5 5.3.2 4.9-2.8 3.2-9.9-2.4-9.9-1.3 0-3.1.7-3.9 1.6zm125 0c-2.5 2.4-2 6.1 1 8.1 2.4 1.5 2.9 1.5 5.3.2 4.9-2.8 3.2-9.9-2.4-9.9-1.3 0-3.1.7-3.9 1.6zm17.6-.4c-1.8 1.8-1.4 6.3.6 8.1 2.5 2.3 12.9 2.3 16 .1 2.6-1.8 2.9-5.6.6-7.8-1.9-2-15.3-2.3-17.2-.4zm29.4.4c-2.3 2.2-2 6 .6 7.8 3.3 2.3 14 2.2 16.1-.2 2-2.2 2.2-6.3.5-8-1.9-1.9-15.3-1.6-17.2.4z"/></g><path fill-opacity=".7" d="M288.8 577.7c52.3.2 138.1.2 190.5 0 52.3-.1 9.5-.2-95.3-.2s-147.6.1-95.2.2z"/><path fill="#404000" d="M142 288.1c0 .5.5.7 1 .4.6-.3 1-.8 1-1.1 0-.2-.4-.4-1-.4-.5 0-1 .5-1 1.1zm482.5-.1c.3.5.8 1 1.1 1 .2 0 .4-.5.4-1 0-.6-.5-1-1.1-1-.5 0-.7.4-.4 1zm-267.4 63.6c0 1.1.3 1.4.6.6.3-.7.2-1.6-.1-1.9-.3-.4-.6.2-.5 1.3zm53 0c0 1.1.3 1.4.6.6.3-.7.2-1.6-.1-1.9-.3-.4-.6.2-.5 1.3zm-57.2 6.1c-1.3 1.6-1.2 1.7.4.4 1.6-1.3 2.1-2.1 1.3-2.1-.2 0-1 .8-1.7 1.7zm60.1-1.3c0 .2.8 1 1.8 1.7 1.5 1.3 1.6 1.2.3-.4s-2.1-2.1-2.1-1.3zm-111.1 41.3c-1.3 1.6-1.2 1.7.4.4.9-.7 1.7-1.5 1.7-1.7 0-.8-.8-.3-2.1 1.3zm73.9 10c.7.3 1.6.2 1.9-.1.4-.3-.2-.6-1.3-.5-1.1 0-1.4.3-.6.6zm15 0c.7.3 1.6.2 1.9-.1.4-.3-.2-.6-1.3-.5-1.1 0-1.4.3-.6.6zm-8.5 11c.9.2 2.5.2 3.5 0 .9-.3.1-.5-1.8-.5-1.9 0-2.7.2-1.7.5zm-43.4 5c-1.3 1.6-1.2 1.7.4.4 1.6-1.3 2.1-2.1 1.3-2.1-.2 0-1 .8-1.7 1.7zm88.1-1.3c0 .2.8 1 1.8 1.7 1.5 1.3 1.6 1.2.3-.4s-2.1-2.1-2.1-1.3zm-96.1 9.3c-1.3 1.6-1.2 1.7.4.4 1.6-1.3 2.1-2.1 1.3-2.1-.2 0-1 .8-1.7 1.7zm104.1-1.3c0 .2.8 1 1.8 1.7 1.5 1.3 1.6 1.2.3-.4s-2.1-2.1-2.1-1.3zm-91.6 4.8-2.9 3.3 3.3-2.9c3-2.8 3.7-3.6 2.9-3.6-.2 0-1.6 1.5-3.3 3.2zm77.6-2.9c0 .2 1.5 1.6 3.3 3.3l3.2 2.9-2.9-3.3c-2.8-3-3.6-3.7-3.6-2.9zm-38.2 17.4c.6.2 1.8.2 2.5 0 .6-.3.1-.5-1.3-.5-1.4 0-1.9.2-1.2.5zm-67.7 18.9c0 1.1.3 1.4.6.6.3-.7.2-1.6-.1-1.9-.3-.4-.6.2-.5 1.3zm137 0c0 1.1.3 1.4.6.6.3-.7.2-1.6-.1-1.9-.3-.4-.6.2-.5 1.3zM330 519.4c0 .2.8 1 1.8 1.7 1.5 1.3 1.6 1.2.3-.4s-2.1-2.1-2.1-1.3zm105.9 1.3c-1.3 1.6-1.2 1.7.4.4.9-.7 1.7-1.5 1.7-1.7 0-.8-.8-.3-2.1 1.3zm-8 8c-1.3 1.6-1.2 1.7.4.4.9-.7 1.7-1.5 1.7-1.7 0-.8-.8-.3-2.1 1.3zm-221.1 5c7.2.2 19.2.2 26.5 0 7.2-.1 1.3-.3-13.3-.3-14.6 0-20.5.2-13.2.3zm60 0c1.8.2 4.5.2 6 0s0-.4-3.3-.4-4.5.2-2.7.4zm30 0c1.8.2 4.5.2 6 0s0-.4-3.3-.4-4.5.2-2.7.4zm169 0c1.8.2 4.5.2 6 0s0-.4-3.3-.4-4.5.2-2.7.4zm30 0c1.8.2 4.5.2 6 0s0-.4-3.3-.4-4.5.2-2.7.4zm39 0c7.2.2 19.2.2 26.5 0 7.2-.1 1.3-.3-13.3-.3-14.6 0-20.5.2-13.2.3zm-286.8.7c0 .2.8 1 1.8 1.7 1.5 1.3 1.6 1.2.3-.4s-2.1-2.1-2.1-1.3zm269.9 1.3c-1.3 1.6-1.2 1.7.4.4 1.6-1.3 2.1-2.1 1.3-2.1-.2 0-1 .8-1.7 1.7zm-208.8 3.9c0 1.1.3 1.4.6.6.3-.7.2-1.6-.1-1.9-.3-.4-.6.2-.5 1.3zm149 0c0 1.1.3 1.4.6.6.3-.7.2-1.6-.1-1.9-.3-.4-.6.2-.5 1.3zm-82.3 5.1c.7.3 1.6.2 1.9-.1.4-.3-.2-.6-1.3-.5-1.1 0-1.4.3-.6.6zm15 0c.7.3 1.6.2 1.9-.1.4-.3-.2-.6-1.3-.5-1.1 0-1.4.3-.6.6z"/><path fill="#BFBF00" d="M198.9 319.7c-1.3 1.6-1.2 1.7.4.4.9-.7 1.7-1.5 1.7-1.7 0-.8-.8-.3-2.1 1.3zm368.1-1.3c0 .2.8 1 1.8 1.7 1.5 1.3 1.6 1.2.3-.4s-2.1-2.1-2.1-1.3zm-378.1 14.3c-1.3 1.6-1.2 1.7.4.4 1.6-1.3 2.1-2.1 1.3-2.1-.2 0-1 .8-1.7 1.7zm388.1-1.3c0 .2.8 1 1.8 1.7 1.5 1.3 1.6 1.2.3-.4s-2.1-2.1-2.1-1.3zm-228.1 30.3c-1.3 1.6-1.2 1.7.4.4 1.6-1.3 2.1-2.1 1.3-2.1-.2 0-1 .8-1.7 1.7zm68.1-1.3c0 .2.8 1 1.8 1.7 1.5 1.3 1.6 1.2.3-.4s-2.1-2.1-2.1-1.3zm-73.1 5.3c-1.3 1.6-1.2 1.7.4.4.9-.7 1.7-1.5 1.7-1.7 0-.8-.8-.3-2.1 1.3zm78.1-1.3c0 .2.8 1 1.8 1.7 1.5 1.3 1.6 1.2.3-.4s-2.1-2.1-2.1-1.3zm-82.1 4.3c-1.3 1.6-1.2 1.7.4.4 1.6-1.3 2.1-2.1 1.3-2.1-.2 0-1 .8-1.7 1.7zm86.1-1.3c0 .2.8 1 1.8 1.7 1.5 1.3 1.6 1.2.3-.4s-2.1-2.1-2.1-1.3zm-91.1 5.3c-1.3 1.6-1.2 1.7.4.4 1.6-1.3 2.1-2.1 1.3-2.1-.2 0-1 .8-1.7 1.7zm96.1-1.3c0 .2.8 1 1.8 1.7 1.5 1.3 1.6 1.2.3-.4s-2.1-2.1-2.1-1.3zm5 4c0 .2.8 1 1.8 1.7 1.5 1.3 1.6 1.2.3-.4s-2.1-2.1-2.1-1.3zm-110.1 4.3c-1.3 1.6-1.2 1.7.4.4 1.6-1.3 2.1-2.1 1.3-2.1-.2 0-1 .8-1.7 1.7zm114.1-1.3c0 .2.8 1 1.8 1.7 1.5 1.3 1.6 1.2.3-.4s-2.1-2.1-2.1-1.3zm-119.1 5.3c-1.3 1.6-1.2 1.7.4.4 1.6-1.3 2.1-2.1 1.3-2.1-.2 0-1 .8-1.7 1.7zm124.1-1.3c0 .2.8 1 1.8 1.7 1.5 1.3 1.6 1.2.3-.4s-2.1-2.1-2.1-1.3zm-133.1 8.3c-1.3 1.6-1.2 1.7.4.4 1.6-1.3 2.1-2.1 1.3-2.1-.2 0-1 .8-1.7 1.7zm142.1-1.3c0 .2.8 1 1.8 1.7 1.5 1.3 1.6 1.2.3-.4s-2.1-2.1-2.1-1.3zm-147.1 5.3c-1.3 1.6-1.2 1.7.4.4.9-.7 1.7-1.5 1.7-1.7 0-.8-.8-.3-2.1 1.3zm152.1-1.3c0 .2.8 1 1.8 1.7 1.5 1.3 1.6 1.2.3-.4s-2.1-2.1-2.1-1.3zm-156.1 4.3c-1.3 1.6-1.2 1.7.4.4 1.6-1.3 2.1-2.1 1.3-2.1-.2 0-1 .8-1.7 1.7zm-5 4c-1.3 1.6-1.2 1.7.4.4 1.6-1.3 2.1-2.1 1.3-2.1-.2 0-1 .8-1.7 1.7zm170.1-1.3c0 .2.8 1 1.8 1.7 1.5 1.3 1.6 1.2.3-.4s-2.1-2.1-2.1-1.3zm-153.9 80.2c0 1.1.3 1.4.6.6.3-.7.2-1.6-.1-1.9-.3-.4-.6.2-.5 1.3zm139 0c0 1.1.3 1.4.6.6.3-.7.2-1.6-.1-1.9-.3-.4-.6.2-.5 1.3zM377.4 555c0 5.8.1 8.1.3 5.2.2-2.8.2-7.6 0-10.5-.2-2.8-.3-.5-.3 5.3zm13 0c0 5.8.1 8.1.3 5.2.2-2.8.2-7.6 0-10.5-.2-2.8-.3-.5-.3 5.3z"/><path fill="olive" d="M333 523.4c0 .2.8 1 1.8 1.7 1.5 1.3 1.6 1.2.3-.4s-2.1-2.1-2.1-1.3z"/><path fill="#FFBF00" d="M356.8 255.6 330 301.1l14.1 23.9c11.7 19.8 14 24.4 13.7 27.2-.3 3-2.8 5.3-31.8 28.1-17.3 13.6-32.7 25.5-34.2 26.3-3.5 1.9-.5 3-59.3-22.8-60.2-26.5-56.4-24.7-57.2-27.6-.9-3.9.4-6.2 13.5-23.1 6.7-8.8 12.2-16.3 12.2-16.8s-13-7-28.9-14.4c-15.9-7.5-28.7-13.1-28.5-12.5 2.7 7.5 27.5 123.6 37.4 175.3 7.2 37 13 67.4 13 67.8 0 .3 12.3.5 27.4.5 27.3 0 27.5 0 29 2.2 2.3 3.3 1.9 6.4-1 8.7-2.5 2-3.9 2.1-27.5 2.1-13.7 0-24.9.3-24.9.6s.7 4.6 1.6 9.5l1.7 8.9H377v-10c0-9.8-.1-10-2.3-10-4.6 0-14.4-3.1-22.7-7.2-12-5.9-23.9-17.8-29.8-29.8-5.8-11.8-7.6-19.4-7.6-32 .1-12.7 1.9-20.4 7.6-32 5.9-12 17.8-23.9 29.8-29.8 4.7-2.3 11.4-4.9 15-5.9 8.6-2.2 25.4-2.2 34 0 24.2 6.3 44.5 26.5 50.7 50.7 2.2 8.8 2.2 25.5 0 34-5 19.1-18.9 36.6-35.7 44.8-8.3 4.1-18.1 7.2-22.7 7.2-2.2 0-2.3.2-2.3 10v10h176.7l1.7-8.9c.9-4.9 1.6-9.2 1.6-9.5 0-.3-11.2-.6-24.9-.6-23.6 0-25-.1-27.5-2.1-2.9-2.3-3.3-5.4-1-8.7 1.5-2.2 1.7-2.2 29-2.2 15.1 0 27.4-.2 27.4-.5 0-.4 5.8-30.8 13-67.8 10.4-54.4 23.2-114.1 36.2-170.3l1.4-6-28.8 13.5c-15.8 7.4-28.8 13.9-28.8 14.4s5.5 8 12.3 16.8c6.7 8.7 12.6 17 13.1 18.3 1.5 3.8 0 7-4.1 9-8.7 4.2-104 45.9-106.7 46.7-2 .6-3.6.4-5.5-.6-1.4-.8-16.8-12.6-34.1-26.2-29-22.8-31.5-25.1-31.8-28.1-.3-2.8 2-7.4 13.7-27.2l14.1-23.9-26.8-45.5C396.5 230.5 384.3 210 384 210c-.3 0-12.5 20.5-27.2 45.6zm-77.6 279.1c2.1 1.9 2.4 6.2.4 8.8-2 2.7-14.5 3.5-18.1 1.1-3-2-3.4-6.9-.8-9.8 2.2-2.5 15.7-2.6 18.5-.1zm29.2-.1c2.6 2.5 2 8.1-.9 10-3.6 2.4-16.1 1.6-18.1-1.1-1.9-2.5-1.8-6.4.3-8.7 2.2-2.4 16.3-2.6 18.7-.2zm17.8.1c1.8 1.6 2.4 5.9 1 7.9-3.4 5.1-12.2 2.9-12.2-2.9s6.9-8.9 11.2-5zm125.7 1.4c3.1 5.5-2.5 11.7-8.1 8.8-2.9-1.5-3.8-2.8-3.8-5.8 0-6.2 8.9-8.4 11.9-3zm26.3-1.4c2.1 1.9 2.4 6.2.4 8.8-2 2.7-14.5 3.5-18.1 1.1-2.9-1.9-3.5-7.5-.9-10 2.2-2.3 16-2.2 18.6.1zm29 0c2.7 2.5 2.4 7.9-.7 9.9-3.6 2.4-16.1 1.6-18.1-1.1-1.9-2.5-1.8-6.4.3-8.7 2.2-2.5 15.7-2.6 18.5-.1z"/><path fill="#BF8000" d="m355.4 356.2-1.9 2.3 2.3-1.9c1.2-1.1 2.2-2.1 2.2-2.3 0-.8-.8-.2-2.6 1.9zm55.6-.8c0 .2.8 1 1.8 1.7 1.5 1.3 1.6 1.2.3-.4s-2.1-2.1-2.1-1.3zm-28.7 51.3c.9.2 2.5.2 3.5 0 .9-.3.1-.5-1.8-.5-1.9 0-2.7.2-1.7.5zm-4.5 13c.7.3 1.6.2 1.9-.1.4-.3-.2-.6-1.3-.5-1.1 0-1.4.3-.6.6zm11 0c.7.3 1.6.2 1.9-.1.4-.3-.2-.6-1.3-.5-1.1 0-1.4.3-.6.6zm-51.4 4.5-1.9 2.3 2.3-1.9c2.1-1.8 2.7-2.6 1.9-2.6-.2 0-1.2 1-2.3 2.2zm92.1-.2c1 1.1 2 2 2.3 2 .3 0-.3-.9-1.3-2s-2-2-2.3-2c-.3 0 .3.9 1.3 2zm-98.1 6.2-1.9 2.3 2.3-1.9c1.2-1.1 2.2-2.1 2.2-2.3 0-.8-.8-.2-2.6 1.9zm104.1-.2c1 1.1 2 2 2.3 2 .3 0-.3-.9-1.3-2s-2-2-2.3-2c-.3 0 .3.9 1.3 2zm-92.5 6.5c-2.4 2.5-4.2 4.5-3.9 4.5.3 0 2.5-2 4.9-4.5 2.4-2.5 4.2-4.5 3.9-4.5-.3 0-2.5 2-4.9 4.5zm81-.3c4.1 4.5 5 5.3 5 4.5 0-.2-2.1-2.3-4.7-4.7l-4.8-4.5 4.5 4.7zm-88.7 33.5c4.3.2 11 .2 15 0 4-.1.5-.3-7.8-.3-8.2 0-11.5.2-7.2.3zm82 0c4.2.2 11.2.2 15.5 0 4.2-.1.7-.3-7.8-.3s-12 .2-7.7.3zM314.2 476c0 1.9.2 2.7.5 1.7.2-.9.2-2.5 0-3.5-.3-.9-.5-.1-.5 1.8zm139 0c0 1.9.2 2.7.5 1.7.2-.9.2-2.5 0-3.5-.3-.9-.5-.1-.5 1.8zm-22.8 51.2-1.9 2.3 2.3-1.9c1.2-1.1 2.2-2.1 2.2-2.3 0-.8-.8-.2-2.6 1.9zm-94.4-.8c0 .2.8 1 1.8 1.7 1.5 1.3 1.6 1.2.3-.4s-2.1-2.1-2.1-1.3zm-140 19.3c0 .5 7.5.7 16.7.5 31-.4 34-.8 8.6-1-13.9-.1-25.3.1-25.3.5zm70.8 0c1.7.2 4.7.2 6.5 0 1.7-.2.3-.4-3.3-.4-3.6 0-5 .2-3.2.4zm30 0c1.8.2 4.5.2 6 0s0-.4-3.3-.4-4.5.2-2.7.4zm169 0c1.8.2 4.5.2 6 0s0-.4-3.3-.4-4.5.2-2.7.4zm29 0c1.7.2 4.7.2 6.5 0 1.7-.2.3-.4-3.3-.4-3.6 0-5 .2-3.2.4zm35.2 0c21 .7 42 .7 42 0 0-.4-11.4-.6-25.2-.5-13.9.1-21.5.3-16.8.5zm-285.8 20c24.7.2 64.9.2 89.5 0 24.7-.1 4.5-.2-44.7-.2s-69.4.1-44.8.2zm190 0c24.7.2 64.9.2 89.6 0 24.6-.1 4.4-.2-44.8-.2-49.2 0-69.4.1-44.8.2z"/><path fill="#804000" d="M379.8 449.7c.7.3 1.6.2 1.9-.1.4-.3-.2-.6-1.3-.5-1.1 0-1.4.3-.6.6zm7 0c.7.3 1.6.2 1.9-.1.4-.3-.2-.6-1.3-.5-1.1 0-1.4.3-.6.6zm53.3 17.9c0 1.1.3 1.4.6.6.3-.7.2-1.6-.1-1.9-.3-.4-.6.2-.5 1.3z"/><path fill="#FF8000" d="M377.5 419.6c-24.3 3.7-44.7 22.7-49 45.7l-.7 3.7h29.8l1.3-3.6c1.7-4.7 7.4-11 12.5-13.7 3.3-1.7 5.8-2.2 12.6-2.2s9.3.5 12.6 2.2c5.1 2.7 10.8 9 12.5 13.7l1.3 3.6h29.8l-.7-3.7c-3.7-19.8-20.1-37.7-40.2-43.6-5.7-1.7-17-2.8-21.8-2.1z"/><path fill="#404040" d="m372.9 465.7-2.4 2.8 2.8-2.4c2.5-2.3 3.2-3.1 2.4-3.1-.2 0-1.4 1.2-2.8 2.7zm21.1-.2c1.3 1.4 2.6 2.5 2.8 2.5.3 0-.5-1.1-1.8-2.5s-2.6-2.5-2.8-2.5c-.3 0 .5 1.1 1.8 2.5zm-15.2 37.2c.6.2 1.8.2 2.5 0 .6-.3.1-.5-1.3-.5-1.4 0-1.9.2-1.2.5zm8 0c.6.2 1.8.2 2.5 0 .6-.3.1-.5-1.3-.5-1.4 0-1.9.2-1.2.5zM343 516.5c1.9 1.9 3.6 3.5 3.9 3.5.3 0-1-1.6-2.9-3.5s-3.6-3.5-3.9-3.5c-.3 0 1 1.6 2.9 3.5zm80.9.2-3.4 3.8 3.8-3.4c2-1.9 3.7-3.6 3.7-3.8 0-.8-.8 0-4.1 3.4zm-41.6 17c.9.2 2.5.2 3.5 0 .9-.3.1-.5-1.8-.5-1.9 0-2.7.2-1.7.5z"/><path fill="gray" d="M382.3 461.7c.9.2 2.5.2 3.5 0 .9-.3.1-.5-1.8-.5-1.9 0-2.7.2-1.7.5zM372 485.4c0 .2.8 1 1.8 1.7 1.5 1.3 1.6 1.2.3-.4s-2.1-2.1-2.1-1.3zm21.9 1.3c-1.3 1.6-1.2 1.7.4.4.9-.7 1.7-1.5 1.7-1.7 0-.8-.8-.3-2.1 1.3z"/><path fill="#BFBFBF" d="M376.3 464c-4.7 2.8-6.6 7.2-6.1 13.7.3 3.2 1.2 6.1 2.1 7.1 1.6 1.5 2.4 1 11.6-8.2 9.1-9.1 10.1-9.8 11.8-8.5 1.5 1.1 1.4.9-.2-1-4.6-5.3-13.3-6.8-19.2-3.1zm21.9 12c0 1.4.2 1.9.5 1.2.2-.6.2-1.8 0-2.5-.3-.6-.5-.1-.5 1.3zm-15.4 14.7c.6.2 1.8.2 2.5 0 .6-.3.1-.5-1.3-.5-1.4 0-1.9.2-1.2.5zm-5 13c.7.3 1.6.2 1.9-.1.4-.3-.2-.6-1.3-.5-1.1 0-1.4.3-.6.6zm11 0c.7.3 1.6.2 1.9-.1.4-.3-.2-.6-1.3-.5-1.1 0-1.4.3-.6.6zm-6 1c.6.2 1.8.2 2.5 0 .6-.3.1-.5-1.3-.5-1.4 0-1.9.2-1.2.5zm-41.8 8.6c0 .2 1.5 1.6 3.3 3.3l3.2 2.9-2.9-3.3c-2.8-3-3.6-3.7-3.6-2.9zm82.4 2.9-2.9 3.3 3.3-2.9c1.7-1.7 3.2-3.1 3.2-3.3 0-.8-.8-.1-3.6 2.9z"/><path fill="#FFF" d="m383.7 476.8-9.7 9.8 2.9 1.7c8.9 5.3 21.1-1.5 21.1-11.8 0-4.1-1.7-8.6-3.5-9.2-.6-.2-5.4 4.1-10.8 9.5z"/><path fill="#BFBF80" d="M334.8 482.7c4.6.2 11.8.2 16 0 4.2-.1.5-.3-8.3-.3s-12.3.2-7.7.3zm83 0c4.6.2 11.8.2 16 0 4.2-.1.5-.3-8.3-.3s-12.3.2-7.7.3z"/><path fill="#FFBFBF" d="M328.5 486.7c4 21.6 22.6 40 45 44.8 8.8 1.8 12.2 1.8 21 0 22.4-4.8 41-23.2 45-44.8l.7-3.7h-30l-.7 2.7c-2.2 9.1-15.3 18.6-25.5 18.6-5.6 0-12.1-2.6-17.6-7.1-3.2-2.7-8.4-10.3-8.4-12.4 0-1.7-1.1-1.8-15.1-1.8h-15.1l.7 3.7z"/></svg>