<svg xmlns="http://www.w3.org/2000/svg" version="1.0" viewBox="0 0 768 768"><path fill-opacity=".2" d="M309.1 237.6c0 1.1.3 1.4.6.6.3-.7.2-1.6-.1-1.9-.3-.4-.6.2-.5 1.3zm149 0c0 1.1.3 1.4.6.6.3-.7.2-1.6-.1-1.9-.3-.4-.6.2-.5 1.3zm-149 16c0 1.1.3 1.4.6.6.3-.7.2-1.6-.1-1.9-.3-.4-.6.2-.5 1.3zm149 0c0 1.1.3 1.4.6.6.3-.7.2-1.6-.1-1.9-.3-.4-.6.2-.5 1.3zm-251.9 13.9c0 1.6.2 2.2.5 1.2.2-.9.2-2.3 0-3-.3-.6-.5.1-.5 1.8zm355 0c0 1.6.2 2.2.5 1.2.2-.9.2-2.3 0-3-.3-.6-.5.1-.5 1.8zM180.1 440.6c0 1.1.3 1.4.6.6.3-.7.2-1.6-.1-1.9-.3-.4-.6.2-.5 1.3zm407 0c0 1.1.3 1.4.6.6.3-.7.2-1.6-.1-1.9-.3-.4-.6.2-.5 1.3zm-407 14c0 1.1.3 1.4.6.6.3-.7.2-1.6-.1-1.9-.3-.4-.6.2-.5 1.3zm407 0c0 1.1.3 1.4.6.6.3-.7.2-1.6-.1-1.9-.3-.4-.6.2-.5 1.3zM212 574.4c0 .2.8 1 1.8 1.7 1.5 1.3 1.6 1.2.3-.4s-2.1-2.1-2.1-1.3zm341.9 1.3c-1.3 1.6-1.2 1.7.4.4 1.6-1.3 2.1-2.1 1.3-2.1-.2 0-1 .8-1.7 1.7z"/><path fill-opacity=".6" d="M172.2 494c0 1.4.2 1.9.5 1.2.2-.6.2-1.8 0-2.5-.3-.6-.5-.1-.5 1.3zm423 0c0 1.4.2 1.9.5 1.2.2-.6.2-1.8 0-2.5-.3-.6-.5-.1-.5 1.3zM374.8 639.7c.7.3 1.6.2 1.9-.1.4-.3-.2-.6-1.3-.5-1.1 0-1.4.3-.6.6zm17 0c.7.3 1.6.2 1.9-.1.4-.3-.2-.6-1.3-.5-1.1 0-1.4.3-.6.6z"/><path fill-opacity=".8" d="M270 136.5c1.9 1.9 3.6 3.5 3.9 3.5.3 0-1-1.6-2.9-3.5s-3.6-3.5-3.9-3.5c-.3 0 1 1.6 2.9 3.5zm226.9.2-3.4 3.8 3.8-3.4c2-1.9 3.7-3.6 3.7-3.8 0-.8-.8 0-4.1 3.4zM217 578.4c0 .2.8 1 1.8 1.7 1.5 1.3 1.6 1.2.3-.4s-2.1-2.1-2.1-1.3zm331.9 1.3c-1.3 1.6-1.2 1.7.4.4.9-.7 1.7-1.5 1.7-1.7 0-.8-.8-.3-2.1 1.3zm-169.1 60c.7.3 1.6.2 1.9-.1.4-.3-.2-.6-1.3-.5-1.1 0-1.4.3-.6.6zm7 0c.7.3 1.6.2 1.9-.1.4-.3-.2-.6-1.3-.5-1.1 0-1.4.3-.6.6z"/><path fill-opacity=".9" d="M308.1 228.6c0 1.1.3 1.4.6.6.3-.7.2-1.6-.1-1.9-.3-.4-.6.2-.5 1.3zm151 0c0 1.1.3 1.4.6.6.3-.7.2-1.6-.1-1.9-.3-.4-.6.2-.5 1.3zM199 559.4c0 .2.8 1 1.8 1.7 1.5 1.3 1.6 1.2.3-.4s-2.1-2.1-2.1-1.3zm367.9 1.3c-1.3 1.6-1.2 1.7.4.4 1.6-1.3 2.1-2.1 1.3-2.1-.2 0-1 .8-1.7 1.7zM212.5 574c2.1 2.2 4.1 4 4.4 4 .3 0-1.3-1.8-3.4-4-2.1-2.2-4.1-4-4.4-4-.3 0 1.3 1.8 3.4 4zm342 .2-4 4.3 4.3-4c3.9-3.6 4.7-4.5 3.9-4.5-.2 0-2.1 1.9-4.2 4.2zm-171.7 65.5c.6.2 1.8.2 2.5 0 .6-.3.1-.5-1.3-.5-1.4 0-1.9.2-1.2.5z"/><path fill-opacity=".5" d="M172.1 490.6c0 1.1.3 1.4.6.6.3-.7.2-1.6-.1-1.9-.3-.4-.6.2-.5 1.3zm423 0c0 1.1.3 1.4.6.6.3-.7.2-1.6-.1-1.9-.3-.4-.6.2-.5 1.3zm-423 7c0 1.1.3 1.4.6.6.3-.7.2-1.6-.1-1.9-.3-.4-.6.2-.5 1.3zm423 0c0 1.1.3 1.4.6.6.3-.7.2-1.6-.1-1.9-.3-.4-.6.2-.5 1.3z"/><path fill-opacity=".4" d="M309.1 243.6c0 1.1.3 1.4.6.6.3-.7.2-1.6-.1-1.9-.3-.4-.6.2-.5 1.3zm149 0c0 1.1.3 1.4.6.6.3-.7.2-1.6-.1-1.9-.3-.4-.6.2-.5 1.3zm-149 4c0 1.1.3 1.4.6.6.3-.7.2-1.6-.1-1.9-.3-.4-.6.2-.5 1.3zm149 0c0 1.1.3 1.4.6.6.3-.7.2-1.6-.1-1.9-.3-.4-.6.2-.5 1.3zM180.2 447.5c0 1.6.2 2.2.5 1.2.2-.9.2-2.3 0-3-.3-.6-.5.1-.5 1.8zm407 0c0 1.6.2 2.2.5 1.2.2-.9.2-2.3 0-3-.3-.6-.5.1-.5 1.8zM369.8 639.7c.7.3 1.6.2 1.9-.1.4-.3-.2-.6-1.3-.5-1.1 0-1.4.3-.6.6zm27 0c.7.3 1.6.2 1.9-.1.4-.3-.2-.6-1.3-.5-1.1 0-1.4.3-.6.6z"/><g stroke-width="0"><path d="M255.8 130.2c-.8.7-3.5 4-6 7.3-17.2 22.9-30.9 53.2-37.2 82.5-3.9 18.3-5 28.2-4.9 48 0 25.8 3.4 44.1 12 64.9l3.4 8.4-2.9 3.6c-9.8 12.3-20.9 31.6-27.2 47.1-8 19.9-11.1 34.6-11.6 54-.3 12.9-.6 15.1-2.9 20.1-5.4 12.1-6.9 28.3-3.9 42.7 10.5 51.1 65 99.2 135.9 120.1 39.6 11.6 84.4 13.4 126.5 5 70.2-14 131.9-58.3 151.5-108.9 8.2-21.1 8.5-42 1-58.9-2.3-5-2.6-7.2-2.9-20.1-.5-19.4-3.6-34.1-11.6-54-6.3-15.5-17.4-34.8-27.2-47.1l-2.9-3.6 3.4-8.4c8.6-20.8 12-39.1 12-64.9.1-19.8-1-29.7-4.9-48-6.3-29.3-20-59.6-37.2-82.5-8-10.6-9.5-10.9-18.2-2.8-30.9 28.5-45.8 80.1-39.4 135.6 1.1 9.3-1.3 6.4-9-11.1-3.8-8.6-7.7-16.5-8.5-17.5-2.1-2.5-4.4-2-17.4 3.9l-10.7 4.8-14.3-14.2C390.4 226 385.7 222 384 222c-1.7 0-6.4 4-16.7 14.2L353 250.4l-10.7-4.8c-13-5.9-15.3-6.4-17.4-3.9-.8 1-4.7 8.9-8.5 17.5-7.7 17.5-10.1 20.4-9 11.1 6.4-55.5-8.5-107.1-39.4-135.6-6.2-5.8-9.2-6.9-12.2-4.5zm18.4 28.3c17.1 23.9 26.1 62.9 23 99.7-1.9 22.5-7.9 47.5-16.2 67.4-1.8 4.2-.6 8.2 2.7 9 4.9 1.3 6.9-1.4 11.9-16.3 2.7-7.7 3-8.1 5.4-7.7 1.7.4 3.1 0 4.2-1.3.9-1 7-13.9 13.7-28.7 6.6-14.8 12.2-27 12.4-27.3.2-.2 4.9 1.6 10.3 4.1 9.7 4.4 11.5 5 14.3 4.7.8 0 7.4-6 14.8-13.3l13.3-13.2 13.3 13.2c7.4 7.3 14 13.3 14.8 13.3 2.8.3 4.6-.3 14.3-4.7 5.4-2.5 10.1-4.3 10.3-4.1.2.3 5.8 12.5 12.4 27.3 6.6 14.8 13 27.7 14.1 28.7 1.3 1.1 3 1.6 4.3 1.3 1.8-.5 2.4.4 4.9 7.7 5 14.9 7 17.6 11.9 16.3 3.3-.8 4.5-4.8 2.7-9-4.1-9.9-10.3-30-12.5-40.7-11.1-54.3-.5-105.9 28.3-137.3l5.1-5.6 4.4 6.2c39.9 56 49 137.8 21.1 190.7-5.2 9.8-5.6 13.6-1.8 15.3 2.1 1 3.1.9 5.4-.4 2.6-1.5 3-1.5 4.3 0 6.2 7.2 18.5 29.2 23.9 42.7 12 29.8 13.5 60.4 4.4 87.3-15.7 46.1-63.1 84.6-123.1 100.1-91.7 23.8-192.4-7.7-234.8-73.2-19.9-30.8-24.4-64.6-13.4-101.2 4.3-14.4 13.3-33.4 22-46.5 7.5-11.3 7.3-11.1 10.7-9.2 2.3 1.3 3.3 1.4 5.4.4 3.8-1.7 3.4-5.5-1.8-15.3-17.9-34-21.1-81.7-8.5-127.4 6.4-23.3 16.5-44.9 29.6-63.3l4.4-6.2 5.1 5.6c2.8 3 6.9 8 9 10.9zm-86.1 329.2c8.8 27 31.7 55.6 60.4 75.4 76.9 53.2 194.1 53.2 271 0 28.8-19.9 51.4-48.2 60.5-75.6l2.4-7 .9 4c1.6 7.2.1 21.1-3.3 31.5-17.6 53.7-86.1 99.7-163.7 110.1-72.4 9.6-150.7-15.1-197.6-62.4-24.4-24.7-37.2-53.4-34.3-77 .4-3.2.9-5.7 1.1-5.7.2 0 1.3 3 2.6 6.7z"/><path d="M250.4 228.2c-10 13.5-17.7 33.9-19.3 51.3-2.3 25.1 3.8 46.9 17.1 61 6.1 6.6 8.8 7.8 11.9 5.2 5.2-4.2 13.5-18.4 17.9-30.4 7.8-21.5 8.2-48.3 1-67.5-4.5-12-15.9-25.8-21.2-25.8-2.3 0-3.7 1.2-7.4 6.2zm15.6 19.3c11.1 22.8 8.6 55.2-6.2 79.8l-3.5 5.8-2.6-3c-3.7-4.4-7.6-13.1-9.9-22.4-1.7-6.9-2-10.1-1.5-21.2.7-18 4.5-31.2 12.9-45.2 3-5 3.3-5.2 5-3.6 1.1.9 3.7 5.3 5.8 9.8zm237.1-21.3c-8.9 8.6-14.7 20-17.8 34.7-2.1 10.4-1.3 33.6 1.5 44.3 3 10.9 7.7 21.7 13.3 30.3 9.1 14 10.9 14.5 19.7 5 13.3-14.1 19.4-35.9 17.1-61-1.6-17.4-9.3-37.8-19.3-51.3-5.8-7.8-8.1-8.1-14.5-2zm14.5 24.2c5.3 11.6 7.5 21.5 8.1 36.1.5 11.1.2 14.3-1.5 21.2-2.3 9.3-6.2 18-9.9 22.4l-2.6 3-3.5-5.8c-16.7-27.8-17.4-67.2-1.5-88.1l2.5-3.3 2.5 3.7c1.4 2 4 6.9 5.9 10.8zM276.3 430.5c-19.4 6-30.9 26.1-25.9 45.3 7.3 28.5 42.1 38.1 63 17.5 16.9-16.7 13.9-45.4-6.2-58.1-9.1-5.8-21.5-7.7-30.9-4.7zM276 451c3 3 2.7 8.3-.6 10.9-3 2.4-4.3 2.6-7.7 1-2.4-1.1-4.7-4.7-4.7-7.3 0-.7.9-2.5 2.1-4 2.6-3.3 7.9-3.6 10.9-.6zm23.8 23.7c6.1 1 11.2 2.1 11.2 2.6 0 2-4.2 7.6-7.7 10.3-5 3.8-9.7 5.3-16.8 5.3-6.9.1-12.3-2-17.7-6.8-3.2-2.7-6.7-8.7-5.7-9.5.8-.5 18.4-3.4 21.9-3.5 1.9-.1 8.6.7 14.8 1.6zM471.7 430c-18 4.6-30.7 23.8-27.8 42 2.7 16.7 15.1 29.3 31.4 32 25.3 4.1 48-19.3 42.8-44.2-1.7-8.6-5-14.5-11-20.1-7.2-6.8-14.3-9.8-23.9-10.3-4.2-.2-9.4.1-11.5.6zm-1.5 20.7c2.3 2.8 2.8 5 1.7 8.1-.9 2.8-4.4 5.2-7.3 5.2-.7 0-2.5-.9-4-2.1-3.3-2.6-3.6-7.9-.6-10.9 2.5-2.5 8.1-2.7 10.2-.3zm24.1 24c5.9 1 10.7 2.2 10.7 2.8 0 2-3.9 7.3-7.2 9.9-5.2 3.9-10.2 5.6-16.5 5.6-7.1-.1-11.9-1.7-17-5.8-3.6-2.8-8.3-9.6-7.3-10.5.9-.6 18.4-3.5 22.5-3.6 2.2-.1 8.8.7 14.8 1.6zm-130.1 16.5c-.7.7-1.2 2.4-1.2 3.9 0 3.2 2.4 5.3 9.8 8.8l5.2 2.4v5.6c-.1 8.9-3.8 12.1-13.9 12.1-7.3 0-11.6-3-12.7-8.8-.8-4.6-3-7.2-6-7.2-8 0-6.8 14.1 1.9 21.7 4.9 4.3 9.8 5.6 19.9 5.2 7.4-.4 8.9-.7 12.1-3.2 1.9-1.5 4.1-2.7 4.7-2.7.6 0 2.8 1.2 4.7 2.7 3.2 2.5 4.7 2.8 12.1 3.2 10.1.4 15-.9 19.9-5.2 8.7-7.6 9.9-21.7 1.9-21.7-3 0-5.2 2.6-6 7.2-1.1 5.8-5.4 8.8-12.7 8.8-10.1 0-13.8-3.2-13.9-12.1v-5.6l5.2-2.4c7.4-3.5 9.8-5.6 9.8-8.8 0-1.5-.5-3.2-1.2-3.9-1.7-1.7-37.9-1.7-39.6 0z"/></g><path fill-opacity=".3" d="M309.1 240.6c0 1.1.3 1.4.6.6.3-.7.2-1.6-.1-1.9-.3-.4-.6.2-.5 1.3zm149 0c0 1.1.3 1.4.6.6.3-.7.2-1.6-.1-1.9-.3-.4-.6.2-.5 1.3zm-149 10c0 1.1.3 1.4.6.6.3-.7.2-1.6-.1-1.9-.3-.4-.6.2-.5 1.3zm149 0c0 1.1.3 1.4.6.6.3-.7.2-1.6-.1-1.9-.3-.4-.6.2-.5 1.3zm-278 193c0 1.1.3 1.4.6.6.3-.7.2-1.6-.1-1.9-.3-.4-.6.2-.5 1.3zm407 0c0 1.1.3 1.4.6.6.3-.7.2-1.6-.1-1.9-.3-.4-.6.2-.5 1.3zm-407 8c0 1.1.3 1.4.6.6.3-.7.2-1.6-.1-1.9-.3-.4-.6.2-.5 1.3zm407 0c0 1.1.3 1.4.6.6.3-.7.2-1.6-.1-1.9-.3-.4-.6.2-.5 1.3zM209 571.4c0 .2.8 1 1.8 1.7 1.5 1.3 1.6 1.2.3-.4s-2.1-2.1-2.1-1.3zm347.9 1.3c-1.3 1.6-1.2 1.7.4.4 1.6-1.3 2.1-2.1 1.3-2.1-.2 0-1 .8-1.7 1.7z"/><path fill-opacity=".1" d="M268 133.3c0 .2 1.5 1.6 3.3 3.3l3.2 2.9-2.9-3.3c-2.8-3-3.6-3.7-3.6-2.9zm228.4 2.9-2.9 3.3 3.3-2.9c3-2.8 3.7-3.6 2.9-3.6-.2 0-1.6 1.5-3.3 3.2zm-187.3 98.4c0 1.1.3 1.4.6.6.3-.7.2-1.6-.1-1.9-.3-.4-.6.2-.5 1.3zm149 0c0 1.1.3 1.4.6.6.3-.7.2-1.6-.1-1.9-.3-.4-.6.2-.5 1.3zm-251.9 37.9c0 1.6.2 2.2.5 1.2.2-.9.2-2.3 0-3-.3-.6-.5.1-.5 1.8zm355 0c0 1.6.2 2.2.5 1.2.2-.9.2-2.3 0-3-.3-.6-.5.1-.5 1.8zM216.5 579c1 1.1 2 2 2.3 2 .3 0-.3-.9-1.3-2s-2-2-2.3-2c-.3 0 .3.9 1.3 2zm333.9.2-1.9 2.3 2.3-1.9c1.2-1.1 2.2-2.1 2.2-2.3 0-.8-.8-.2-2.6 1.9zm-187.6 60.5c.7.3 1.6.2 1.9-.1.4-.3-.2-.6-1.3-.5-1.1 0-1.4.3-.6.6zm41 0c.7.3 1.6.2 1.9-.1.4-.3-.2-.6-1.3-.5-1.1 0-1.4.3-.6.6z"/><path fill-opacity=".7" d="m366 236.7-13.5 13.8 13.8-13.5c7.5-7.4 13.7-13.6 13.7-13.7 0-.8-1.5.7-14 13.4zm35-.5c12.5 12.8 14 14.3 14 13.5 0-.1-6.2-6.3-13.7-13.7l-13.8-13.5 13.5 13.7z"/><path fill="#400000" d="M257.1 238.1c-.7 1.2-.8 1.8-.3 1.5.6-.4.8 16.5.5 45.7l-.4 46.2 3.1-4.9c10.7-16.5 15.5-43.1 11.5-63.4-1.6-8-8-22.6-11.2-25.5-1.8-1.5-2-1.5-3.2.4zm249.6 1.1c-7.1 9.3-11.7 25.2-11.7 40.5 0 15.6 5.5 35.3 13 46.9l3.1 4.9-.4-46.2c-.3-34.2-.2-46.1.7-45.6.6.4.4-.2-.4-1.3-.8-1-1.5-2-1.6-2.2-.1-.2-1.3 1.2-2.7 3zM253.5 244c-.9 1.6-1.3 3-1.1 3 .3 0 1.2-1.4 2.1-3 .9-1.7 1.3-3 1.1-3-.3 0-1.2 1.3-2.1 3zm260 0c.9 1.6 1.8 3 2.1 3 .2 0-.2-1.4-1.1-3-.9-1.7-1.8-3-2.1-3-.2 0 .2 1.3 1.1 3zm-263.9 7.5c-.9 2.6-.7 3.2.5 1.2.6-1 .9-2.1.6-2.3-.2-.3-.7.2-1.1 1.1zm267.4-1c0 .5.5 1.7 1 2.5s1 1 1 .5c0-.6-.5-1.7-1-2.5s-1-1.1-1-.5zm-269.4 6c-.9 2.6-.7 3.2.5 1.2.6-1 .9-2.1.6-2.3-.2-.3-.7.2-1.1 1.1zm271.4-1c0 .5.5 1.7 1 2.5s1 1 1 .5c0-.6-.5-1.7-1-2.5s-1-1.1-1-.5zm-274.9 13.1c0 1.1.3 1.4.6.6.3-.7.2-1.6-.1-1.9-.3-.4-.6.2-.5 1.3zm279 0c0 1.1.3 1.4.6.6.3-.7.2-1.6-.1-1.9-.3-.4-.6.2-.5 1.3zM243.2 274c0 1.4.2 1.9.5 1.2.2-.6.2-1.8 0-2.5-.3-.6-.5-.1-.5 1.3zm281 0c0 1.4.2 1.9.5 1.2.2-.6.2-1.8 0-2.5-.3-.6-.5-.1-.5 1.3zm-281.9 8.5c0 2.7.2 3.8.4 2.2.2-1.5.2-3.7 0-5-.2-1.2-.4 0-.4 2.8zm283 0c0 2.7.2 3.8.4 2.2.2-1.5.2-3.7 0-5-.2-1.2-.4 0-.4 2.8zm-283 15c0 2.7.2 3.8.4 2.2.2-1.5.2-3.7 0-5-.2-1.2-.4 0-.4 2.8zm283 0c0 2.7.2 3.8.4 2.2.2-1.5.2-3.7 0-5-.2-1.2-.4 0-.4 2.8zM243.2 305c0 1.4.2 1.9.5 1.2.2-.6.2-1.8 0-2.5-.3-.6-.5-.1-.5 1.3zm281 0c0 1.4.2 1.9.5 1.2.2-.6.2-1.8 0-2.5-.3-.6-.5-.1-.5 1.3zm-280.1 4.6c0 1.1.3 1.4.6.6.3-.7.2-1.6-.1-1.9-.3-.4-.6.2-.5 1.3zm279 0c0 1.1.3 1.4.6.6.3-.7.2-1.6-.1-1.9-.3-.4-.6.2-.5 1.3zm-275.1 11c0 .6.7 1.9 1.6 3 1.4 1.8 1.4 1.8.3-.6-1.4-3.1-1.9-3.6-1.9-2.4zm270.1 2.1c-1 2.6-1 2.7.4.9.8-1.1 1.5-2.3 1.5-2.8 0-1.5-.7-.8-1.9 1.9zm-266.3 4.8c.6 1.1 2.1 2.9 3.4 4 2.2 1.9 2.2 1.9-.2-1-4-4.8-4.3-5.1-3.2-3zm261.8 2.3c-2.2 2.7-2.4 3.2-.7 1.7 2-1.7 4.7-5.5 3.9-5.5-.2 0-1.6 1.7-3.2 3.8zM283.8 473.7c1.8.2 4.5.2 6 0s0-.4-3.3-.4-4.5.2-2.7.4zm194 0c1.7.2 4.7.2 6.5 0 1.7-.2.3-.4-3.3-.4-3.6 0-5 .2-3.2.4zm-202 1c.6.2 1.8.2 2.5 0 .6-.3.1-.5-1.3-.5-1.4 0-1.9.2-1.2.5zm20 0c.6.2 1.8.2 2.5 0 .6-.3.1-.5-1.3-.5-1.4 0-1.9.2-1.2.5zm174 0c.6.2 1.8.2 2.5 0 .6-.3.1-.5-1.3-.5-1.4 0-1.9.2-1.2.5zm20 0c.6.2 1.8.2 2.5 0 .6-.3.1-.5-1.3-.5-1.4 0-1.9.2-1.2.5zm-219 1c.7.3 1.6.2 1.9-.1.4-.3-.2-.6-1.3-.5-1.1 0-1.4.3-.6.6zm31 0c.7.3 1.6.2 1.9-.1.4-.3-.2-.6-1.3-.5-1.1 0-1.4.3-.6.6zm163 0c.6.2 1.8.2 2.5 0 .6-.3.1-.5-1.3-.5-1.4 0-1.9.2-1.2.5zm31 0c.7.3 1.6.2 1.9-.1.4-.3-.2-.6-1.3-.5-1.1 0-1.4.3-.6.6zm-231.5 1c.9.2 2.3.2 3 0 .6-.3-.1-.5-1.8-.5-1.6 0-2.2.2-1.2.5zm43 0c3.4.5 3.4 1.1-.3 6.1-1.7 2.3-2.8 4.2-2.5 4.2.9 0 6.5-8.3 6.5-9.7 0-.8-1.1-1.2-3.2-1.2-3.1.2-3.1.2-.5.6zm149.7.6c0 1.4 5.6 9.7 6.5 9.7.3 0-.8-1.9-2.5-4.2-3.7-5-3.7-5.6-.2-6.1 2.5-.4 2.5-.4-.5-.6-2.2 0-3.3.4-3.3 1.2zm44.3-.6c.9.2 2.3.2 3 0 .6-.3-.1-.5-1.8-.5-1.6 0-2.2.2-1.2.5zm-236.5 4.8c.6 1.1 2.3 3.1 3.9 4.5l2.8 2.5-3-3.5c-4.7-5.5-4.8-5.6-3.7-3.5zm235.3 2.8c-2.9 3.5-3 3.8-.7 1.7 2.4-2.2 5.2-6 4.4-6-.2 0-1.8 1.9-3.7 4.3zm-201.6 5.3c-2.2 1.3-3.5 2.4-3 2.4 1.2 0 7.5-3.8 7.5-4.5 0-.6.2-.7-4.5 2.1zm167.1-1.5c.6 1.1 6.4 4.2 6.9 3.7.2-.2-1.4-1.3-3.6-2.5-2.1-1.2-3.7-1.7-3.3-1.2zm-184.8 4.6c.6.2 1.8.2 2.5 0 .6-.3.1-.5-1.3-.5-1.4 0-1.9.2-1.2.5zm9 0c.6.2 1.8.2 2.5 0 .6-.3.1-.5-1.3-.5-1.4 0-1.9.2-1.2.5zm186 0c.6.2 1.8.2 2.5 0 .6-.3.1-.5-1.3-.5-1.4 0-1.9.2-1.2.5zm9 0c.6.2 1.8.2 2.5 0 .6-.3.1-.5-1.3-.5-1.4 0-1.9.2-1.2.5zm-122 43c1.2.2 3 .2 4 0 .9-.3-.1-.5-2.3-.4-2.2 0-3 .2-1.7.4zm39 0c1.2.2 3 .2 4 0 .9-.3-.1-.5-2.3-.4-2.2 0-3 .2-1.7.4z"/><path fill="#404040" d="M470.2 242c0 1.9.2 2.7.5 1.7.2-.9.2-2.5 0-3.5-.3-.9-.5-.1-.5 1.8zm-172.9 3c0 3 .2 4.3.4 2.7.2-1.5.2-3.9 0-5.5-.2-1.5-.4-.2-.4 2.8zm172.9 3c0 1.4.2 1.9.5 1.2.2-.6.2-1.8 0-2.5-.3-.6-.5-.1-.5 1.3zm12.9 23.6c0 1.1.3 1.4.6.6.3-.7.2-1.6-.1-1.9-.3-.4-.6.2-.5 1.3zm-199 15c0 1.1.3 1.4.6.6.3-.7.2-1.6-.1-1.9-.3-.4-.6.2-.5 1.3zm199 0c0 1.1.3 1.4.6.6.3-.7.2-1.6-.1-1.9-.3-.4-.6.2-.5 1.3zm-29.7 153.6-1.9 2.3 2.3-1.9c2.1-1.8 2.7-2.6 1.9-2.6-.2 0-1.2 1-2.3 2.2zm15.6 10.2c0 .2.8 1 1.8 1.7 1.5 1.3 1.6 1.2.3-.4s-2.1-2.1-2.1-1.3zm-205.9 6.2c0 1.1.3 1.4.6.6.3-.7.2-1.6-.1-1.9-.3-.4-.6.2-.5 1.3zm6.7 7.1c.6.2 1.8.2 2.5 0 .6-.3.1-.5-1.3-.5-1.4 0-1.9.2-1.2.5zm194 0c.6.2 1.8.2 2.5 0 .6-.3.1-.5-1.3-.5-1.4 0-1.9.2-1.2.5zm-279.7 36.9c0 1.1.3 1.4.6.6.3-.7.2-1.6-.1-1.9-.3-.4-.6.2-.5 1.3zm399 0c0 1.1.3 1.4.6.6.3-.7.2-1.6-.1-1.9-.3-.4-.6.2-.5 1.3zM210 528.4c0 .2.8 1 1.8 1.7 1.5 1.3 1.6 1.2.3-.4s-2.1-2.1-2.1-1.3zm345.9 1.3c-1.3 1.6-1.2 1.7.4.4 1.6-1.3 2.1-2.1 1.3-2.1-.2 0-1 .8-1.7 1.7zM218.5 538c2.7 2.7 5.1 5 5.4 5 .3 0-1.7-2.3-4.4-5-2.7-2.8-5.1-5-5.4-5-.3 0 1.7 2.2 4.4 5zm330 .2-5 5.3 5.3-5c4.8-4.6 5.7-5.5 4.9-5.5-.1 0-2.5 2.4-5.2 5.2zM228 547.4c0 .2.8 1 1.8 1.7 1.5 1.3 1.6 1.2.3-.4s-2.1-2.1-2.1-1.3zm309.9 1.3c-1.3 1.6-1.2 1.7.4.4.9-.7 1.7-1.5 1.7-1.7 0-.8-.8-.3-2.1 1.3zM209.5 554c1 1.1 2 2 2.3 2 .3 0-.3-.9-1.3-2s-2-2-2.3-2c-.3 0 .3.9 1.3 2zm26 0c1 1.1 2 2 2.3 2 .3 0-.3-.9-1.3-2s-2-2-2.3-2c-.3 0 .3.9 1.3 2zm295.9.2-1.9 2.3 2.3-1.9c1.2-1.1 2.2-2.1 2.2-2.3 0-.8-.8-.2-2.6 1.9zm26 0-1.9 2.3 2.3-1.9c1.2-1.1 2.2-2.1 2.2-2.3 0-.8-.8-.2-2.6 1.9zM216 561.3c0 .2 1.5 1.6 3.3 3.3l3.2 2.9-2.9-3.3c-2.8-3-3.6-3.7-3.6-2.9zm332.4 2.9-2.9 3.3 3.3-2.9c1.7-1.7 3.2-3.1 3.2-3.3 0-.8-.8-.1-3.6 2.9zM229 573.4c0 .2.8 1 1.8 1.7 1.5 1.3 1.6 1.2.3-.4s-2.1-2.1-2.1-1.3zm307.9 1.3c-1.3 1.6-1.2 1.7.4.4.9-.7 1.7-1.5 1.7-1.7 0-.8-.8-.3-2.1 1.3zm-184.1 27c.7.3 1.6.2 1.9-.1.4-.3-.2-.6-1.3-.5-1.1 0-1.4.3-.6.6zm61 0c.7.3 1.6.2 1.9-.1.4-.3-.2-.6-1.3-.5-1.1 0-1.4.3-.6.6zm-52 1c.6.2 1.8.2 2.5 0 .6-.3.1-.5-1.3-.5-1.4 0-1.9.2-1.2.5zm42 0c.6.2 1.8.2 2.5 0 .6-.3.1-.5-1.3-.5-1.4 0-1.9.2-1.2.5zm-21 1c.6.2 1.8.2 2.5 0 .6-.3.1-.5-1.3-.5-1.4 0-1.9.2-1.2.5zm-18 24c1.2.2 3 .2 4 0 .9-.3-.1-.5-2.3-.4-2.2 0-3 .2-1.7.4zm35 0c1.2.2 3 .2 4 0 .9-.3-.1-.5-2.3-.4-2.2 0-3 .2-1.7.4z"/><path fill="#808040" d="M260 143.4c0 .2.8 1 1.8 1.7 1.5 1.3 1.6 1.2.3-.4s-2.1-2.1-2.1-1.3zm245.9 1.3c-1.3 1.6-1.2 1.7.4.4.9-.7 1.7-1.5 1.7-1.7 0-.8-.8-.3-2.1 1.3zM265 225.4c0 .2.8 1 1.8 1.7 1.5 1.3 1.6 1.2.3-.4s-2.1-2.1-2.1-1.3zm235.9 1.3c-1.3 1.6-1.2 1.7.4.4 1.6-1.3 2.1-2.1 1.3-2.1-.2 0-1 .8-1.7 1.7zm-130.4 22.5-13 13.3 13.3-13 13.2-13 13.3 13 13.2 13-13-13.3C390.4 242 384.3 236 384 236c-.3 0-6.4 6-13.5 13.2zM184.3 493.5c0 2.2.2 3 .4 1.7.2-1.2.2-3 0-4-.3-.9-.5.1-.4 2.3zm399 0c0 2.2.2 3 .4 1.7.2-1.2.2-3 0-4-.3-.9-.5.1-.4 2.3zm-208 110.2c.9.2 2.3.2 3 0 .6-.3-.1-.5-1.8-.5-1.6 0-2.2.2-1.2.5zm15 0c.9.2 2.3.2 3 0 .6-.3-.1-.5-1.8-.5-1.6 0-2.2.2-1.2.5z"/><path fill="#404000" d="M262 223.4c0 .2.8 1 1.8 1.7 1.5 1.3 1.6 1.2.3-.4s-2.1-2.1-2.1-1.3zm241.9 1.3c-1.3 1.6-1.2 1.7.4.4 1.6-1.3 2.1-2.1 1.3-2.1-.2 0-1 .8-1.7 1.7zm42.2 7.9c0 1.1.3 1.4.6.6.3-.7.2-1.6-.1-1.9-.3-.4-.6.2-.5 1.3zm-248.8 3.9c0 2.2.2 3 .4 1.7.2-1.2.2-3 0-4-.3-.9-.5.1-.4 2.3zm172.9-.5c0 1.9.2 2.7.5 1.7.2-.9.2-2.5 0-3.5-.3-.9-.5-.1-.5 1.8zm-250.1 3.6c0 1.1.3 1.4.6.6.3-.7.2-1.6-.1-1.9-.3-.4-.6.2-.5 1.3zm327 0c0 1.1.3 1.4.6.6.3-.7.2-1.6-.1-1.9-.3-.4-.6.2-.5 1.3zM219.2 248c0 1.4.2 1.9.5 1.2.2-.6.2-1.8 0-2.5-.3-.6-.5-.1-.5 1.3zm329 0c0 1.4.2 1.9.5 1.2.2-.6.2-1.8 0-2.5-.3-.6-.5-.1-.5 1.3zm-251 5c0 1.9.2 2.7.5 1.7.2-.9.2-2.5 0-3.5-.3-.9-.5-.1-.5 1.8zm173 0c0 1.9.2 2.7.5 1.7.2-.9.2-2.5 0-3.5-.3-.9-.5-.1-.5 1.8zm-251.9 14.5c0 3.3.2 4.5.4 2.7.2-1.8.2-4.5 0-6s-.4 0-.4 3.3zm331 0c0 3.3.2 4.5.4 2.7.2-1.8.2-4.5 0-6s-.4 0-.4 3.3zm-318.2 6.1c0 1.1.3 1.4.6.6.3-.7.2-1.6-.1-1.9-.3-.4-.6.2-.5 1.3zm53.2 1.9c0 2.2.2 3 .4 1.7.2-1.2.2-3 0-4-.3-.9-.5.1-.4 2.3zm251.8-1.9c0 1.1.3 1.4.6.6.3-.7.2-1.6-.1-1.9-.3-.4-.6.2-.5 1.3zm-52.9 2.4c0 1.9.2 2.7.5 1.7.2-.9.2-2.5 0-3.5-.3-.9-.5-.1-.5 1.8zm-252.9 6.5c0 2.2.2 3 .4 1.7.2-1.2.2-3 0-4-.3-.9-.5.1-.4 2.3zm307 0c0 2.2.2 3 .4 1.7.2-1.2.2-3 0-4-.3-.9-.5.1-.4 2.3zm-253.1.5c0 1.4.2 1.9.5 1.2.2-.6.2-1.8 0-2.5-.3-.6-.5-.1-.5 1.3zm199 0c0 1.4.2 1.9.5 1.2.2-.6.2-1.8 0-2.5-.3-.6-.5-.1-.5 1.3zm-264 2.5c0 1.6.2 2.2.5 1.2.2-.9.2-2.3 0-3-.3-.6-.5.1-.5 1.8zm329 0c0 1.6.2 2.2.5 1.2.2-.9.2-2.3 0-3-.3-.6-.5.1-.5 1.8zm-328.1 8.1c0 1.1.3 1.4.6.6.3-.7.2-1.6-.1-1.9-.3-.4-.6.2-.5 1.3zm10.2 2.4c0 2.5.2 3.5.4 2.2.2-1.2.2-3.2 0-4.5-.2-1.2-.4-.2-.4 2.3zm307 0c0 2.5.2 3.5.4 2.2.2-1.2.2-3.2 0-4.5-.2-1.2-.4-.2-.4 2.3zm9.8-2.4c0 1.1.3 1.4.6.6.3-.7.2-1.6-.1-1.9-.3-.4-.6.2-.5 1.3zm-316 12c0 1.1.3 1.4.6.6.3-.7.2-1.6-.1-1.9-.3-.4-.6.2-.5 1.3zm305 0c0 1.1.3 1.4.6.6.3-.7.2-1.6-.1-1.9-.3-.4-.6.2-.5 1.3zM245 338.4c0 .2.8 1 1.8 1.7 1.5 1.3 1.6 1.2.3-.4s-2.1-2.1-2.1-1.3zm275.9 1.3c-1.3 1.6-1.2 1.7.4.4.9-.7 1.7-1.5 1.7-1.7 0-.8-.8-.3-2.1 1.3zM251 344.5c1.3 1.4 2.6 2.5 2.8 2.5.3 0-.5-1.1-1.8-2.5s-2.6-2.5-2.8-2.5c-.3 0 .5 1.1 1.8 2.5zm264.9.2-2.4 2.8 2.8-2.4c1.5-1.4 2.7-2.6 2.7-2.8 0-.8-.8-.1-3.1 2.4zm-276.7 4.8c0 1.6.2 2.2.5 1.2.2-.9.2-2.3 0-3-.3-.6-.5.1-.5 1.8zm289 0c0 1.6.2 2.2.5 1.2.2-.9.2-2.3 0-3-.3-.6-.5.1-.5 1.8zm-335.1 83.1c0 1.1.3 1.4.6.6.3-.7.2-1.6-.1-1.9-.3-.4-.6.2-.5 1.3zm381 0c0 1.1.3 1.4.6.6.3-.7.2-1.6-.1-1.9-.3-.4-.6.2-.5 1.3zm-314.2 7.1-2.4 2.8 2.8-2.4c2.5-2.3 3.2-3.1 2.4-3.1-.2 0-1.4 1.2-2.8 2.7zm247.6.3c1 1.1 2 2 2.3 2 .3 0-.3-.9-1.3-2s-2-2-2.3-2c-.3 0 .3.9 1.3 2zm-315.2 9c0 3.6.2 5 .4 3.2.2-1.7.2-4.7 0-6.5-.2-1.7-.4-.3-.4 3.3zm383 0c0 3.6.2 5 .4 3.2.2-1.7.2-4.7 0-6.5-.2-1.7-.4-.3-.4 3.3zm-382.2 13.6c0 1.1.3 1.4.6.6.3-.7.2-1.6-.1-1.9-.3-.4-.6.2-.5 1.3zm381 0c0 1.1.3 1.4.6.6.3-.7.2-1.6-.1-1.9-.3-.4-.6.2-.5 1.3zm-198.8 27.1c4.8.2 12.6.2 17.5 0 4.8-.1.8-.3-8.8-.3-9.6 0-13.6.2-8.7.3zM263 496.4c0 .2.8 1 1.8 1.7 1.5 1.3 1.6 1.2.3-.4s-2.1-2.1-2.1-1.3zm239.9 1.3c-1.3 1.6-1.2 1.7.4.4.9-.7 1.7-1.5 1.7-1.7 0-.8-.8-.3-2.1 1.3zm-221.1 7c.6.2 1.8.2 2.5 0 .6-.3.1-.5-1.3-.5-1.4 0-1.9.2-1.2.5zm8 0c.6.2 1.8.2 2.5 0 .6-.3.1-.5-1.3-.5-1.4 0-1.9.2-1.2.5zm186 0c.6.2 1.8.2 2.5 0 .6-.3.1-.5-1.3-.5-1.4 0-1.9.2-1.2.5zm8 0c.6.2 1.8.2 2.5 0 .6-.3.1-.5-1.3-.5-1.4 0-1.9.2-1.2.5zM230.5 534c3.8 3.8 7.2 7 7.4 7 .3 0-2.6-3.2-6.4-7-3.8-3.9-7.2-7-7.4-7-.3 0 2.6 3.1 6.4 7zm115-5c1 1.1 2 2 2.3 2 .3 0-.3-.9-1.3-2s-2-2-2.3-2c-.3 0 .3.9 1.3 2zm75.9.2-1.9 2.3 2.3-1.9c1.2-1.1 2.2-2.1 2.2-2.3 0-.8-.8-.2-2.6 1.9zm115.1 5-7 7.3 7.3-7c6.7-6.4 7.7-7.5 6.9-7.5-.1 0-3.4 3.3-7.2 7.2zm-177.7 1.5c.7.3 1.6.2 1.9-.1.4-.3-.2-.6-1.3-.5-1.1 0-1.4.3-.6.6zm10 0c.6.2 1.8.2 2.5 0 .6-.3.1-.5-1.3-.5-1.4 0-1.9.2-1.2.5zm28 0c.6.2 1.8.2 2.5 0 .6-.3.1-.5-1.3-.5-1.4 0-1.9.2-1.2.5zm11 0c.7.3 1.6.2 1.9-.1.4-.3-.2-.6-1.3-.5-1.1 0-1.4.3-.6.6zM241 543.4c0 .2.8 1 1.8 1.7 1.5 1.3 1.6 1.2.3-.4s-2.1-2.1-2.1-1.3zm283.9 1.3c-1.3 1.6-1.2 1.7.4.4 1.6-1.3 2.1-2.1 1.3-2.1-.2 0-1 .8-1.7 1.7zm-175.1 45c.7.3 1.6.2 1.9-.1.4-.3-.2-.6-1.3-.5-1.1 0-1.4.3-.6.6zm67 0c.7.3 1.6.2 1.9-.1.4-.3-.2-.6-1.3-.5-1.1 0-1.4.3-.6.6zm-58 1c.7.3 1.6.2 1.9-.1.4-.3-.2-.6-1.3-.5-1.1 0-1.4.3-.6.6zm49 0c.7.3 1.6.2 1.9-.1.4-.3-.2-.6-1.3-.5-1.1 0-1.4.3-.6.6zm-35 1c1.8.2 4.5.2 6 0s0-.4-3.3-.4-4.5.2-2.7.4zm17 0c1.8.2 4.5.2 6 0s0-.4-3.3-.4-4.5.2-2.7.4z"/><path fill="#BF8040" d="M258.7 172.7c-1 42.5-.9 48.3.6 48.3.7 0 3.4 2 6 4.4 13.9 13.4 20.6 33.7 19.4 58.9-.6 13.2-2.6 22.2-7.7 35.6-3.7 9.6-14.1 25.7-17.6 27.3-2.4 1.1-2.4 1.4-2.4 14.5v13.5l-3.9-3.1c-2.1-1.7-6.5-6.3-9.6-10.1-5-6.2-6.2-7-8.3-6.5-1.4.3-3.4 0-4.8-1-2.3-1.5-2.4-1.4-8.2 7.2-11.8 17.8-20.2 36-24.8 54l-2.4 9.5 12.4 13.7c6.8 7.5 16 17 20.3 21.2 8 7.8 21.4 19.1 22 18.6.2-.2-.2-3-.8-6.2-2.8-15.1 5.7-32.1 19.8-39.7 18.8-10.2 43-2.4 52.5 17 3.1 6.3 3.3 7.3 3.3 17.2 0 9.7-.2 11-3 16.4-4.8 9.5-13.7 17.3-22.9 20l-4.1 1.2 6 2.3c8.3 3.1 28 8.8 33.8 9.6l4.7.7v-3.1c0-3.6 3-7.1 6-7.1 2.8 0 7 4.4 7 7.3 0 4.7 1.8 5.6 12.5 6.3 9.5.6 10.1.5 11.3-1.6.7-1.2 1.6-4.3 1.9-7l.6-4.8-6.4-3.2c-3.5-1.8-7.2-3.9-8.1-4.8-2.2-1.9-2.3-5.1-.2-8 1.5-2.1 2-2.2 20.4-2.2s18.9.1 20.4 2.2c2.1 2.9 2 6.1-.1 8-1 .9-4.7 3-8.2 4.8l-6.4 3.2.6 4.8c.3 2.7 1.2 5.8 1.9 7 1.2 2.1 1.8 2.2 11.3 1.6 10.7-.7 12.5-1.6 12.5-6.3 0-2.9 4.2-7.3 7-7.3 3 0 6 3.5 6 7.1v3.1l4.8-.7c5.7-.8 25.4-6.5 33.7-9.6l6-2.3-4.1-1.2c-2.3-.6-6-2.4-8.3-3.8-29.1-18.4-22-62 11.3-70.3 12.6-3.1 26.5.9 35.9 10.4 8.7 8.7 12.9 21.4 10.8 32.8-.6 3.2-1 6-.8 6.2.6.5 14-10.8 22-18.6 4.3-4.2 13.5-13.7 20.3-21.2l12.4-13.7-2.4-9.5c-4.6-18-13-36.2-24.8-54-5.8-8.6-5.9-8.7-8.2-7.2-1.4 1-3.4 1.3-4.8 1-2.1-.5-3.3.3-8.3 6.5-3.1 3.8-7.5 8.4-9.6 10.1l-3.9 3.1v-13.5c0-13.1 0-13.4-2.4-14.5-3.5-1.6-13.9-17.7-17.6-27.3-5.1-13.4-7.1-22.4-7.7-35.6-1.2-25.2 5.5-45.5 19.4-58.9 2.6-2.4 5.3-4.4 6.1-4.4 1.3 0 1.4-5.2.7-38.3-.4-21-.9-38.4-1.1-38.6-.8-.8-8.5 7.3-12.8 13.4-17.4 24.6-25.7 56.5-24.3 93.4 1 25.9 5.8 48.1 15.9 72.7 2.4 6.1 1.9 9.5-1.8 11.4-2.2 1.2-2.9 1.2-5.2-.1-2.6-1.4-4.7-5.6-9.6-19-1.4-3.9-2.1-4.7-4.2-4.7-1.4 0-3.4-.8-4.3-1.8-1-1.1-7.1-13.8-13.6-28.4-6.5-14.6-11.9-26.7-12.1-26.8-.1-.2-4.9 1.7-10.5 4.2s-11.4 4.6-12.7 4.6c-1.9 0-5.9-3.4-15.9-13.2L384 236.6l-13.3 13.2c-10 9.8-14 13.2-15.9 13.2-1.3 0-7.1-2.1-12.7-4.6-5.6-2.5-10.4-4.4-10.5-4.2-.2.1-5.6 12.2-12.1 26.8-6.5 14.6-12.6 27.3-13.6 28.4-.9 1-2.8 1.8-4.2 1.8-1.8 0-2.9.8-3.6 2.7-.5 1.4-2.4 6.3-4.1 10.9-3.5 9.1-6.2 11.9-10.5 10.8-4.1-1-5.3-4.9-3.1-10.5 8.8-23 13.6-42 15.5-61 4.8-46.4-7-90.5-30.8-115.4-2.5-2.6-4.8-4.7-5.2-4.7-.3 0-.9 12.9-1.2 28.7z"/><path fill="#804000" d="M544.1 224.6c0 1.1.3 1.4.6.6.3-.7.2-1.6-.1-1.9-.3-.4-.6.2-.5 1.3zm-293.2 1.1c-1.3 1.6-1.2 1.7.4.4.9-.7 1.7-1.5 1.7-1.7 0-.8-.8-.3-2.1 1.3zm264.1-1.3c0 .2.8 1 1.8 1.7 1.5 1.3 1.6 1.2.3-.4s-2.1-2.1-2.1-1.3zM221.2 235c0 1.4.2 1.9.5 1.2.2-.6.2-1.8 0-2.5-.3-.6-.5-.1-.5 1.3zm324.9.6c0 1.1.3 1.4.6.6.3-.7.2-1.6-.1-1.9-.3-.4-.6.2-.5 1.3zm-291.3 7.6c-12.2 23.3-15.5 48.5-8.9 69.9 2.2 6.8 7.8 17 9.8 17.7.9.3 1.3-10.2 1.5-45.5.2-25.2.2-46 .1-46.1-.1-.2-1.2 1.6-2.5 4zm256 41.6c.2 25.1.5 45.9.8 46.2.8.8 4.3-3.8 7.1-9.3 8-15.9 8.7-41.5 1.7-62.3-1.6-4.8-7.9-18.2-9.2-19.6-.4-.4-.6 19.8-.4 45zm-290.7-42.2c0 1.1.3 1.4.6.6.3-.7.2-1.6-.1-1.9-.3-.4-.6.2-.5 1.3zm327 0c0 1.1.3 1.4.6.6.3-.7.2-1.6-.1-1.9-.3-.4-.6.2-.5 1.3zM219.3 254c0 2.5.2 3.5.4 2.2.2-1.2.2-3.2 0-4.5-.2-1.2-.4-.2-.4 2.3zm329 0c0 2.5.2 3.5.4 2.2.2-1.2.2-3.2 0-4.5-.2-1.2-.4-.2-.4 2.3zm-318.2 23.6c0 1.1.3 1.4.6.6.3-.7.2-1.6-.1-1.9-.3-.4-.6.2-.5 1.3zm307 0c0 1.1.3 1.4.6.6.3-.7.2-1.6-.1-1.9-.3-.4-.6.2-.5 1.3zm-317.9 2.9c0 1.6.2 2.2.5 1.2.2-.9.2-2.3 0-3-.3-.6-.5.1-.5 1.8zm329 0c0 1.6.2 2.2.5 1.2.2-.9.2-2.3 0-3-.3-.6-.5.1-.5 1.8zm-328.1 10.1c0 1.1.3 1.4.6.6.3-.7.2-1.6-.1-1.9-.3-.4-.6.2-.5 1.3zm327 0c0 1.1.3 1.4.6.6.3-.7.2-1.6-.1-1.9-.3-.4-.6.2-.5 1.3zm-326 7c0 1.1.3 1.4.6.6.3-.7.2-1.6-.1-1.9-.3-.4-.6.2-.5 1.3zm325 0c0 1.1.3 1.4.6.6.3-.7.2-1.6-.1-1.9-.3-.4-.6.2-.5 1.3zm-316 4c0 1.1.3 1.4.6.6.3-.7.2-1.6-.1-1.9-.3-.4-.6.2-.5 1.3zm307 0c0 1.1.3 1.4.6.6.3-.7.2-1.6-.1-1.9-.3-.4-.6.2-.5 1.3zM242 335.4c0 .2.8 1 1.8 1.7 1.5 1.3 1.6 1.2.3-.4s-2.1-2.1-2.1-1.3zm281.9 1.3c-1.3 1.6-1.2 1.7.4.4.9-.7 1.7-1.5 1.7-1.7 0-.8-.8-.3-2.1 1.3zM248 342.5c1.3 1.4 2.6 2.5 2.8 2.5.3 0-.5-1.1-1.8-2.5s-2.6-2.5-2.8-2.5c-.3 0 .5 1.1 1.8 2.5zm270.9.2-2.4 2.8 2.8-2.4c1.5-1.4 2.7-2.6 2.7-2.8 0-.8-.8-.1-3.1 2.4zm-281 11c-1.3 1.6-1.2 1.7.4.4.9-.7 1.7-1.5 1.7-1.7 0-.8-.8-.3-2.1 1.3zm290.1-1.3c0 .2.8 1 1.8 1.7 1.5 1.3 1.6 1.2.3-.4s-2.1-2.1-2.1-1.3zm-333.9 76.2c0 1.1.3 1.4.6.6.3-.7.2-1.6-.1-1.9-.3-.4-.6.2-.5 1.3zm379 0c0 1.1.3 1.4.6.6.3-.7.2-1.6-.1-1.9-.3-.4-.6.2-.5 1.3zM193.2 437c0 1.9.2 2.7.5 1.7.2-.9.2-2.5 0-3.5-.3-.9-.5-.1-.5 1.8zm381 0c0 1.9.2 2.7.5 1.7.2-.9.2-2.5 0-3.5-.3-.9-.5-.1-.5 1.8zm-381 22c0 1.4.2 1.9.5 1.2.2-.6.2-1.8 0-2.5-.3-.6-.5-.1-.5 1.3zm381 0c0 1.4.2 1.9.5 1.2.2-.6.2-1.8 0-2.5-.3-.6-.5-.1-.5 1.3zm-380.1 6.6c0 1.1.3 1.4.6.6.3-.7.2-1.6-.1-1.9-.3-.4-.6.2-.5 1.3zm379 0c0 1.1.3 1.4.6.6.3-.7.2-1.6-.1-1.9-.3-.4-.6.2-.5 1.3zm-378 5c0 1.1.3 1.4.6.6.3-.7.2-1.6-.1-1.9-.3-.4-.6.2-.5 1.3zm377 0c0 1.1.3 1.4.6.6.3-.7.2-1.6-.1-1.9-.3-.4-.6.2-.5 1.3zm-301 5.2-8.4 1.7 3.4 4.5c5.1 6.7 12.5 10.3 20.9 10.3 5.5 0 7.6-.5 12-2.9 4.5-2.5 11-9.1 11-11.4 0-1.1-17.5-4-24.1-3.9-3.5 0-10.2.8-14.8 1.7zm194.7 0c-4.3.8-7.8 1.9-7.8 2.2 0 2.3 6.4 8.9 11 11.4 11 6 25.1 2.8 32.8-7.4l3.5-4.5-8.9-1.7c-10.8-2.1-20.3-2.1-30.6 0zM256 490.4c0 .2.8 1 1.8 1.7 1.5 1.3 1.6 1.2.3-.4s-2.1-2.1-2.1-1.3zm253.9 1.3c-1.3 1.6-1.2 1.7.4.4 1.6-1.3 2.1-2.1 1.3-2.1-.2 0-1 .8-1.7 1.7zM261.5 496c1 1.1 2 2 2.3 2 .3 0-.3-.9-1.3-2s-2-2-2.3-2c-.3 0 .3.9 1.3 2zm243.9.2-1.9 2.3 2.3-1.9c2.1-1.8 2.7-2.6 1.9-2.6-.2 0-1.2 1-2.3 2.2zm-226.6 8.5c.7.3 1.6.2 1.9-.1.4-.3-.2-.6-1.3-.5-1.1 0-1.4.3-.6.6zm209 0c.7.3 1.6.2 1.9-.1.4-.3-.2-.6-1.3-.5-1.1 0-1.4.3-.6.6zM218 519.4c0 .2.8 1 1.8 1.7 1.5 1.3 1.6 1.2.3-.4s-2.1-2.1-2.1-1.3zm329.9 1.3c-1.3 1.6-1.2 1.7.4.4 1.6-1.3 2.1-2.1 1.3-2.1-.2 0-1 .8-1.7 1.7zm-185.6 3c1.5.2 3.7.2 5 0 1.2-.2 0-.4-2.8-.4-2.7 0-3.8.2-2.2.4zm39 0c1.5.2 3.7.2 5 0 1.2-.2 0-.4-2.8-.4-2.7 0-3.8.2-2.2.4zM223.5 526c1 1.1 2 2 2.3 2 .3 0-.3-.9-1.3-2s-2-2-2.3-2c-.3 0 .3.9 1.3 2zm319.9.2-1.9 2.3 2.3-1.9c1.2-1.1 2.2-2.1 2.2-2.3 0-.8-.8-.2-2.6 1.9zm-161.5 4.5c-1.3 1.6-1.2 1.7.4.4 1.4-1.1 2-1.1 3.5 0 1.5 1.3 1.6 1.2.3-.4-.7-.9-1.7-1.7-2.1-1.7-.4 0-1.4.8-2.1 1.7zM238.5 541c1 1.1 2 2 2.3 2 .3 0-.3-.9-1.3-2s-2-2-2.3-2c-.3 0 .3.9 1.3 2zm289.9.2-1.9 2.3 2.3-1.9c1.2-1.1 2.2-2.1 2.2-2.3 0-.8-.8-.2-2.6 1.9zM244.5 546c1 1.1 2 2 2.3 2 .3 0-.3-.9-1.3-2s-2-2-2.3-2c-.3 0 .3.9 1.3 2zm277.9.2-1.9 2.3 2.3-1.9c1.2-1.1 2.2-2.1 2.2-2.3 0-.8-.8-.2-2.6 1.9zm-182.6 41.5c.7.3 1.6.2 1.9-.1.4-.3-.2-.6-1.3-.5-1.1 0-1.4.3-.6.6zm87 0c.7.3 1.6.2 1.9-.1.4-.3-.2-.6-1.3-.5-1.1 0-1.4.3-.6.6zm-82 1c.6.2 1.8.2 2.5 0 .6-.3.1-.5-1.3-.5-1.4 0-1.9.2-1.2.5zm76 0c.6.2 1.8.2 2.5 0 .6-.3.1-.5-1.3-.5-1.4 0-1.9.2-1.2.5zm-68 1c.6.2 1.8.2 2.5 0 .6-.3.1-.5-1.3-.5-1.4 0-1.9.2-1.2.5zm60 0c.6.2 1.8.2 2.5 0 .6-.3.1-.5-1.3-.5-1.4 0-1.9.2-1.2.5zm-50.5 1c.9.2 2.3.2 3 0 .6-.3-.1-.5-1.8-.5-1.6 0-2.2.2-1.2.5zm41 0c.9.2 2.3.2 3 0 .6-.3-.1-.5-1.8-.5-1.6 0-2.2.2-1.2.5zm-21 1c.9.2 2.5.2 3.5 0 .9-.3.1-.5-1.8-.5-1.9 0-2.7.2-1.7.5z"/><g fill="#BF8000" stroke-width="0"><path d="M253.8 152.7c-8.9 13.3-14.7 24.5-20.5 39.3-19.4 50.3-18.5 107.4 2.3 146.9 4.4 8.4 5.4 12.7 3.2 14.9-.8.8.3 2.8 4.7 8.2 3.2 3.9 7.5 8.4 9.6 10.1l3.9 3.1v-26.7l-3-1.3c-3.9-1.8-10.9-10-15.3-18.2-5.6-10.1-7.8-19.5-8.4-34.8-.6-14.8.5-24.2 4.4-36.7 4.6-14.6 16.6-35 21.3-36.2 1.6-.4 1.8-3.5 2.5-37.4.4-20.4.5-37.2.3-37.5-.3-.2-2.5 2.6-5 6.3zm255.6 20.2c.3 15.1.6 32 .6 37.6 0 9.2.2 10.3 1.9 10.8 4.8 1.2 16.8 21.4 21.4 36.2 3.9 12.5 5 21.9 4.4 36.7-.6 15.3-2.8 24.7-8.4 34.8-4.4 8.2-11.4 16.4-15.3 18.2l-3 1.3v26.7l3.9-3.1c2.1-1.7 6.4-6.2 9.6-10.1 4.4-5.4 5.5-7.4 4.7-8.2-2.2-2.2-1.2-6.5 3.2-14.9 25.5-48.3 20.5-121.5-12-176.5-4.3-7.3-8.5-13.5-10.7-15.9-.6-.6-.7 9.4-.3 26.4zm-314.7 256c-1.8 8.9-1.9 24.8-.2 34.6 4.3 25.3 14 44.6 32.7 65.2 10.3 11.3 18.4 18.1 32.4 27.2 71.8 46.8 177 46.8 248.8 0 14-9.1 22.1-15.9 32.4-27.2 23.9-26.3 35.5-56.1 33.8-86.2-1.1-19.1-.3-18.8-13.8-3.9-13.4 14.9-27.6 28.8-36.5 35.8-4.2 3.2-7 6.4-8.5 9.5-6.3 13.1-19.7 21.2-35 21.2-6.5 0-9.9.7-21.1 4.4-7.3 2.4-17.2 5.2-22 6.2-8.1 1.6-8.7 1.9-9.7 4.8-2 5.8-6.1 10.4-11.6 13.1-4.8 2.3-6.2 2.6-14.6 2.2-8.1-.3-9.9-.7-13.5-3.1L384 530l-4.2 2.7c-3.7 2.4-5.5 2.8-13.6 3.1-8.4.4-9.8.1-14.6-2.2-5.5-2.7-9.6-7.3-11.6-13.1-1-2.9-1.6-3.2-9.7-4.8-4.8-1-14.7-3.8-22-6.2-11.2-3.7-14.6-4.4-21.1-4.4-15.3 0-28.7-8.1-35-21.1-1.5-3.3-4.7-6.7-10.9-11.7-8.9-7.2-23.3-21.6-37.9-37.7l-8.1-9-.6 3.3z"/><path d="M356.4 521.4c2.2 1.8 13.1 2.2 15.6.6 1.1-.7.8-1-1.6-1-1.7 0-6-.3-9.5-.6-5.9-.5-6.3-.4-4.5 1zm43.6-.5c-3.8.4-4.9.8-3.7 1.3 3.2 1.4 13.2.9 15.3-.7 1.8-1.3 1.6-1.4-2.1-1.3-2.2.1-6.5.4-9.5.7z"/></g><path fill="#804040" d="M263 146.3c0 .2 1.5 1.6 3.3 3.3l3.2 2.9-2.9-3.3c-2.8-3-3.6-3.7-3.6-2.9zm238.4 2.9-2.9 3.3 3.3-2.9c1.7-1.7 3.2-3.1 3.2-3.3 0-.8-.8-.1-3.6 2.9zm-206.3 68.4c0 1.1.3 1.4.6.6.3-.7.2-1.6-.1-1.9-.3-.4-.6.2-.5 1.3zm177 0c0 1.1.3 1.4.6.6.3-.7.2-1.6-.1-1.9-.3-.4-.6.2-.5 1.3zm-176 44c0 1.1.3 1.4.6.6.3-.7.2-1.6-.1-1.9-.3-.4-.6.2-.5 1.3zm175 0c0 1.1.3 1.4.6.6.3-.7.2-1.6-.1-1.9-.3-.4-.6.2-.5 1.3zm-187 28c0 1.1.3 1.4.6.6.3-.7.2-1.6-.1-1.9-.3-.4-.6.2-.5 1.3zm199 0c0 1.1.3 1.4.6.6.3-.7.2-1.6-.1-1.9-.3-.4-.6.2-.5 1.3zm-198.3 46.1c.7.3 1.6.2 1.9-.1.4-.3-.2-.6-1.3-.5-1.1 0-1.4.3-.6.6zm197 0c.7.3 1.6.2 1.9-.1.4-.3-.2-.6-1.3-.5-1.1 0-1.4.3-.6.6zm-220.9 10c-1.3 1.6-1.2 1.7.4.4 1.6-1.3 2.1-2.1 1.3-2.1-.2 0-1 .8-1.7 1.7zm244.1-1.3c0 .2.8 1 1.8 1.7 1.5 1.3 1.6 1.2.3-.4s-2.1-2.1-2.1-1.3zm-222.2 84.3c.6.2 1.8.2 2.5 0 .6-.3.1-.5-1.3-.5-1.4 0-1.9.2-1.2.5zm5 0c.7.3 1.6.2 1.9-.1.4-.3-.2-.6-1.3-.5-1.1 0-1.4.3-.6.6zm189.5 0c.9.2 2.3.2 3 0 .6-.3-.1-.5-1.8-.5-1.6 0-2.2.2-1.2.5zM248.2 466c0 1.9.2 2.7.5 1.7.2-.9.2-2.5 0-3.5-.3-.9-.5-.1-.5 1.8zm271 .5c0 1.6.2 2.2.5 1.2.2-.9.2-2.3 0-3-.3-.6-.5.1-.5 1.8zm-174.4 41.2c.7.3 1.6.2 1.9-.1.4-.3-.2-.6-1.3-.5-1.1 0-1.4.3-.6.6zm77 0c.7.3 1.6.2 1.9-.1.4-.3-.2-.6-1.3-.5-1.1 0-1.4.3-.6.6zm-42 96c.7.3 1.6.2 1.9-.1.4-.3-.2-.6-1.3-.5-1.1 0-1.4.3-.6.6zm7 0c.7.3 1.6.2 1.9-.1.4-.3-.2-.6-1.3-.5-1.1 0-1.4.3-.6.6z"/><path fill="olive" d="M228 530.5c1.3 1.4 2.6 2.5 2.8 2.5.3 0-.5-1.1-1.8-2.5s-2.6-2.5-2.8-2.5c-.3 0 .5 1.1 1.8 2.5zm310.9.2-2.4 2.8 2.8-2.4c2.5-2.3 3.2-3.1 2.4-3.1-.2 0-1.4 1.2-2.8 2.7z"/><path fill="maroon" d="M257.4 251.5c0 4.9.1 7.1.3 4.8.2-2.3.2-6.4 0-9-.2-2.6-.3-.8-.3 4.2zm253 0c0 4.9.1 7.1.3 4.8.2-2.3.2-6.4 0-9-.2-2.6-.3-.8-.3 4.2z"/><path fill="gray" d="M225.5 570c1 1.1 2 2 2.3 2 .3 0-.3-.9-1.3-2s-2-2-2.3-2c-.3 0 .3.9 1.3 2zm315.9.2-1.9 2.3 2.3-1.9c1.2-1.1 2.2-2.1 2.2-2.3 0-.8-.8-.2-2.6 1.9zm-168.1 57.5c.9.2 2.3.2 3 0 .6-.3-.1-.5-1.8-.5-1.6 0-2.2.2-1.2.5zm19 0c.9.2 2.3.2 3 0 .6-.3-.1-.5-1.8-.5-1.6 0-2.2.2-1.2.5z"/><path fill="#BFBFBF" d="M459.9 451.7c-1.3 1.6-1.2 1.7.4.4 1.6-1.3 2.1-2.1 1.3-2.1-.2 0-1 .8-1.7 1.7zm8.1-1.3c0 .2.8 1 1.8 1.7 1.5 1.3 1.6 1.2.3-.4s-2.1-2.1-2.1-1.3zm-203.5 2.7c-.4.6-.5 1.2-.2 1.5.2.3.7-.2 1-1.1.7-1.7.1-2-.8-.4zm193.7 2.9c0 1.4.2 1.9.5 1.2.2-.6.2-1.8 0-2.5-.3-.6-.5-.1-.5 1.3zM273 462c-.9.6-1 1-.3 1 .6 0 1.5-.5 1.8-1 .8-1.2.4-1.2-1.5 0zm-44 109.9c0 .5.5 1.3 1 1.6.6.3 1 .2 1-.4 0-.5-.4-1.3-1-1.6-.5-.3-1-.2-1 .4zm308.7-.2c-.4.3-.7 1.1-.7 1.7 0 .6.5.5 1.2-.2.6-.6.9-1.4.7-1.7-.3-.3-.9-.2-1.2.2zm-303.2 4.2c-.3.5-.2 1.2.3 1.5.5.3.9-.1.9-.9 0-1.7-.3-1.9-1.2-.6zm297.8.6c0 .8.4 1.2.9.9.5-.3.6-1 .3-1.5-.9-1.3-1.2-1.1-1.2.6zm-187.5 33.2c.6.2 1.8.2 2.5 0 .6-.3.1-.5-1.3-.5-1.4 0-1.9.2-1.2.5zm76 0c.6.2 1.8.2 2.5 0 .6-.3.1-.5-1.3-.5-1.4 0-1.9.2-1.2.5zm-64 1c.7.3 1.6.2 1.9-.1.4-.3-.2-.6-1.3-.5-1.1 0-1.4.3-.6.6zm53 0c.7.3 1.6.2 1.9-.1.4-.3-.2-.6-1.3-.5-1.1 0-1.4.3-.6.6zm-30 1c2.3.2 6.1.2 8.5 0 2.3-.2.4-.4-4.3-.4s-6.6.2-4.2.4zm3 16c.6.2 1.8.2 2.5 0 .6-.3.1-.5-1.3-.5-1.4 0-1.9.2-1.2.5z"/><path fill="#FFF" d="M266.6 451.5c-3.4 3.5-2.8 8.3 1.5 10.5 3.9 2.1 8.9-1.2 8.9-5.9 0-5.2-6.8-8.2-10.4-4.6zm194.1.3c-2.3 2.5-2.1 6.8.3 9.2 5.7 5.7 13.9-3.1 8.5-9-2.3-2.5-6.7-2.6-8.8-.2z"/><path fill="#BF8080" d="M185 483.9c0 .6.4 1.3 1 1.6.6.3.7-.1.4-.9-.7-1.8-1.4-2.1-1.4-.7zm396.6.8c-.6 1.4-.5 1.5.5.6.7-.7 1-1.5.7-1.8-.3-.3-.9.2-1.2 1.2zM221.5 542c3.8 3.8 7.2 7 7.4 7 .3 0-2.6-3.2-6.4-7-3.8-3.9-7.2-7-7.4-7-.3 0 2.6 3.1 6.4 7zm324 .2-7 7.3 7.3-7c6.7-6.4 7.7-7.5 6.9-7.5-.1 0-3.4 3.3-7.2 7.2zM233 552.4c0 .2.8 1 1.8 1.7 1.5 1.3 1.6 1.2.3-.4s-2.1-2.1-2.1-1.3zm299.9 1.3c-1.3 1.6-1.2 1.7.4.4 1.6-1.3 2.1-2.1 1.3-2.1-.2 0-1 .8-1.7 1.7zM219.5 564c2.1 2.2 4.1 4 4.4 4 .3 0-1.3-1.8-3.4-4-2.1-2.2-4.1-4-4.4-4-.3 0 1.3 1.8 3.4 4zm328 .2-4 4.3 4.3-4c3.9-3.6 4.7-4.5 3.9-4.5-.2 0-2.1 1.9-4.2 4.2zm-178.2 39.5c.9.2 2.3.2 3 0 .6-.3-.1-.5-1.8-.5-1.6 0-2.2.2-1.2.5zm27 0c.9.2 2.3.2 3 0 .6-.3-.1-.5-1.8-.5-1.6 0-2.2.2-1.2.5z"/><path fill="#BFBF80" d="M185 493c0 22.1 11.2 45.8 31.8 67.1C238.7 583 285 601.2 340 608.7c10.6 1.4 20 1.8 44 1.8s33.4-.4 44-1.8c55-7.5 101.3-25.7 123.2-48.6 20.6-21.3 31.8-45 31.8-67 0-8.9-.8-9.6-3-2.6-5.2 16.4-22.6 41.8-38.9 56.5-33.3 30.2-73.5 47.9-125.6 55.2-11.7 1.6-51.3 1.6-63 0-52.1-7.3-92.3-25-125.6-55.2-16.3-14.7-33.7-40.1-38.9-56.5-2.2-7-3-6.3-3 2.5zm194.8 134.7c.7.3 1.6.2 1.9-.1.4-.3-.2-.6-1.3-.5-1.1 0-1.4.3-.6.6zm7 0c.7.3 1.6.2 1.9-.1.4-.3-.2-.6-1.3-.5-1.1 0-1.4.3-.6.6z"/><path fill="#FFBFBF" d="M234 575.9c6.3 5.6 26.2 18.6 37.7 24.4C306.5 618.1 343.9 627 384 627c40.1 0 77.5-8.9 112.3-26.7 11.5-5.8 31.4-18.8 37.7-24.4l3.5-3.1-3.5 2.1c-1.9 1.2-7.3 4.1-12 6.5-78.6 40.1-197.4 40.1-276 0-4.7-2.4-10.1-5.3-12-6.5l-3.5-2.1 3.5 3.1z"/></svg>