<svg xmlns="http://www.w3.org/2000/svg" version="1.0" viewBox="0 0 768 768"><path fill-opacity=".2" d="M183.1 428.6c0 1.1.3 1.4.6.6.3-.7.2-1.6-.1-1.9-.3-.4-.6.2-.5 1.3zm401 0c0 1.1.3 1.4.6.6.3-.7.2-1.6-.1-1.9-.3-.4-.6.2-.5 1.3z"/><path fill-opacity=".5" d="M183.1 447.6c0 1.1.3 1.4.6.6.3-.7.2-1.6-.1-1.9-.3-.4-.6.2-.5 1.3zm401 0c0 1.1.3 1.4.6.6.3-.7.2-1.6-.1-1.9-.3-.4-.6.2-.5 1.3z"/><path fill-opacity=".6" d="M183.2 443.5c0 1.6.2 2.2.5 1.2.2-.9.2-2.3 0-3-.3-.6-.5.1-.5 1.8zm401 0c0 1.6.2 2.2.5 1.2.2-.9.2-2.3 0-3-.3-.6-.5.1-.5 1.8z"/><path fill-opacity=".7" d="M298.9 166.7c-1.3 1.6-1.2 1.7.4.4 1.6-1.3 2.1-2.1 1.3-2.1-.2 0-1 .8-1.7 1.7zm168.1-1.3c0 .2.8 1 1.8 1.7 1.5 1.3 1.6 1.2.3-.4s-2.1-2.1-2.1-1.3zM183.1 439.6c0 1.1.3 1.4.6.6.3-.7.2-1.6-.1-1.9-.3-.4-.6.2-.5 1.3zm401 0c0 1.1.3 1.4.6.6.3-.7.2-1.6-.1-1.9-.3-.4-.6.2-.5 1.3zM373.8 639.7c.7.3 1.6.2 1.9-.1.4-.3-.2-.6-1.3-.5-1.1 0-1.4.3-.6.6zm19 0c.7.3 1.6.2 1.9-.1.4-.3-.2-.6-1.3-.5-1.1 0-1.4.3-.6.6z"/><path fill-opacity=".8" d="m294.4 171.2-2.9 3.3 3.3-2.9c1.7-1.7 3.2-3.1 3.2-3.3 0-.8-.8-.1-3.6 2.9zm175.6-2.9c0 .2 1.5 1.6 3.3 3.3l3.2 2.9-2.9-3.3c-2.8-3-3.6-3.7-3.6-2.9zm-93.2 471.4c.6.2 1.8.2 2.5 0 .6-.3.1-.5-1.3-.5-1.4 0-1.9.2-1.2.5zm12 0c.6.2 1.8.2 2.5 0 .6-.3.1-.5-1.3-.5-1.4 0-1.9.2-1.2.5z"/><path fill-opacity=".9" d="M382.8 128.7c.6.2 1.8.2 2.5 0 .6-.3.1-.5-1.3-.5-1.4 0-1.9.2-1.2.5zm-78.9 34c-1.3 1.6-1.2 1.7.4.4 1.6-1.3 2.1-2.1 1.3-2.1-.2 0-1 .8-1.7 1.7zm158.1-1.3c0 .2.8 1 1.8 1.7 1.5 1.3 1.6 1.2.3-.4s-2.1-2.1-2.1-1.3zm-180.1 23.3c-1.3 1.6-1.2 1.7.4.4 1.6-1.3 2.1-2.1 1.3-2.1-.2 0-1 .8-1.7 1.7zm202.1-1.3c0 .2.8 1 1.8 1.7 1.5 1.3 1.6 1.2.3-.4s-2.1-2.1-2.1-1.3zm-255 383c0 .2.8 1 1.8 1.7 1.5 1.3 1.6 1.2.3-.4s-2.1-2.1-2.1-1.3zm299.4 10.8-1.9 2.3 2.3-1.9c1.2-1.1 2.2-2.1 2.2-2.3 0-.8-.8-.2-2.6 1.9zm-290.4-.8c0 .2.8 1 1.8 1.7 1.5 1.3 1.6 1.2.3-.4s-2.1-2.1-2.1-1.3zm7.5 7.6c1 1.1 2 2 2.3 2 .3 0-.3-.9-1.3-2s-2-2-2.3-2c-.3 0 .3.9 1.3 2zm275.9.2-1.9 2.3 2.3-1.9c1.2-1.1 2.2-2.1 2.2-2.3 0-.8-.8-.2-2.6 1.9zm-139.6 55.5c1.2.2 3.2.2 4.5 0 1.2-.2.2-.4-2.3-.4s-3.5.2-2.2.4z"/><path fill-opacity=".1" d="m291.9 172.7-2.4 2.8 2.8-2.4c2.5-2.3 3.2-3.1 2.4-3.1-.2 0-1.4 1.2-2.8 2.7zm183.1-.2c1.3 1.4 2.6 2.5 2.8 2.5.3 0-.5-1.1-1.8-2.5s-2.6-2.5-2.8-2.5c-.3 0 .5 1.1 1.8 2.5z"/><path fill-opacity=".4" d="M241 580.4c0 .2.8 1 1.8 1.7 1.5 1.3 1.6 1.2.3-.4s-2.1-2.1-2.1-1.3zm283.9 1.3c-1.3 1.6-1.2 1.7.4.4 1.6-1.3 2.1-2.1 1.3-2.1-.2 0-1 .8-1.7 1.7z"/><path d="M365 130.5c-22.6 5.1-44.7 17.5-65.9 37.2C246 217 199.6 314.3 186.5 404c-2.5 17-3 45.3-1.1 60 10.8 81.6 69 147.6 148.7 168.9 16.9 4.5 30.2 6.1 49.9 6.1s33-1.6 49.9-6.1c35.3-9.4 65.9-27 91.4-52.6 31.4-31.4 51.4-72 57.3-116.3 1.9-14.7 1.4-43-1.1-60-13.1-89.8-59.5-187-112.6-236.3-18.3-17-39.2-29.6-58.4-35.3-7.6-2.2-11.4-2.7-24-3-10.6-.3-16.9.1-21.5 1.1zm40.4 11.9c21.9 6.1 40.8 18 61 38.2 40.2 40.4 75.6 107.3 95 179.6 3.4 12.7 7 30.4 9.2 45.3 2.2 15.2 2.5 48.3.5 60.5-6.6 41.7-24.3 77-53.2 106.1-36.2 36.4-82.8 55.9-133.6 55.9-51.2 0-97.5-19.2-133.8-55.5-29.2-29.1-46.9-64.5-53.6-106.5-2-12.2-1.7-45.3.5-60.5 9.1-62.8 35.4-131.1 70.6-183.5 30.7-45.7 63.5-72.4 99-80.6 7.6-1.8 30.7-1.2 38.4 1z"/><path fill="#404040" d="M373.3 140.7c.9.2 2.3.2 3 0 .6-.3-.1-.5-1.8-.5-1.6 0-2.2.2-1.2.5zm19 0c.9.2 2.3.2 3 0 .6-.3-.1-.5-1.8-.5-1.6 0-2.2.2-1.2.5zm-74.4 25c-1.3 1.6-1.2 1.7.4.4 1.6-1.3 2.1-2.1 1.3-2.1-.2 0-1 .8-1.7 1.7zm130.1-1.3c0 .2.8 1 1.8 1.7 1.5 1.3 1.6 1.2.3-.4s-2.1-2.1-2.1-1.3zm-136.1 6.3c-1.3 1.6-1.2 1.7.4.4.9-.7 1.7-1.5 1.7-1.7 0-.8-.8-.3-2.1 1.3zm142.1-1.3c0 .2.8 1 1.8 1.7 1.5 1.3 1.6 1.2.3-.4s-2.1-2.1-2.1-1.3zm-152.1 10.3c-1.3 1.6-1.2 1.7.4.4 1.6-1.3 2.1-2.1 1.3-2.1-.2 0-1 .8-1.7 1.7zm162.1-1.3c0 .2.8 1 1.8 1.7 1.5 1.3 1.6 1.2.3-.4s-2.1-2.1-2.1-1.3zm-173.1 13.3c-1.3 1.6-1.2 1.7.4.4.9-.7 1.7-1.5 1.7-1.7 0-.8-.8-.3-2.1 1.3zm184.1-1.3c0 .2.8 1 1.8 1.7 1.5 1.3 1.6 1.2.3-.4s-2.1-2.1-2.1-1.3zM198.1 399.6c0 1.1.3 1.4.6.6.3-.7.2-1.6-.1-1.9-.3-.4-.6.2-.5 1.3zm371 0c0 1.1.3 1.4.6.6.3-.7.2-1.6-.1-1.9-.3-.4-.6.2-.5 1.3zm-373.8 30.9c0 2.2.2 3 .4 1.7.2-1.2.2-3 0-4-.3-.9-.5.1-.4 2.3zm377 0c0 2.2.2 3 .4 1.7.2-1.2.2-3 0-4-.3-.9-.5.1-.4 2.3zM195.2 447c0 1.9.2 2.7.5 1.7.2-.9.2-2.5 0-3.5-.3-.9-.5-.1-.5 1.8zm377 0c0 1.9.2 2.7.5 1.7.2-.9.2-2.5 0-3.5-.3-.9-.5-.1-.5 1.8zM239.5 561c1 1.1 2 2 2.3 2 .3 0-.3-.9-1.3-2s-2-2-2.3-2c-.3 0 .3.9 1.3 2zm8.5 9.3c0 .2 1.5 1.6 3.3 3.3l3.2 2.9-2.9-3.3c-2.8-3-3.6-3.7-3.6-2.9zm258.9 11.4c-1.3 1.6-1.2 1.7.4.4 1.6-1.3 2.1-2.1 1.3-2.1-.2 0-1 .8-1.7 1.7zM261.5 583c1 1.1 2 2 2.3 2 .3 0-.3-.9-1.3-2s-2-2-2.3-2c-.3 0 .3.9 1.3 2zm107.8 44.7c.9.2 2.5.2 3.5 0 .9-.3.1-.5-1.8-.5-1.9 0-2.7.2-1.7.5zm26 0c.9.2 2.5.2 3.5 0 .9-.3.1-.5-1.8-.5-1.9 0-2.7.2-1.7.5z"/><path fill="gray" d="M377.8 140.7c.6.2 1.8.2 2.5 0 .6-.3.1-.5-1.3-.5-1.4 0-1.9.2-1.2.5zm10 0c.6.2 1.8.2 2.5 0 .6-.3.1-.5-1.3-.5-1.4 0-1.9.2-1.2.5zm-79.9 34-2.4 2.8 2.8-2.4c2.5-2.3 3.2-3.1 2.4-3.1-.2 0-1.4 1.2-2.8 2.7zm151.6.3c1 1.1 2 2 2.3 2 .3 0-.3-.9-1.3-2s-2-2-2.3-2c-.3 0 .3.9 1.3 2zm-164.6 12.7-2.4 2.8 2.8-2.4c2.5-2.3 3.2-3.1 2.4-3.1-.2 0-1.4 1.2-2.8 2.7zm176.6-.7c1 1.1 2 2 2.3 2 .3 0-.3-.9-1.3-2s-2-2-2.3-2c-.3 0 .3.9 1.3 2zM197.1 409.6c0 1.1.3 1.4.6.6.3-.7.2-1.6-.1-1.9-.3-.4-.6.2-.5 1.3zm-1 8c0 1.1.3 1.4.6.6.3-.7.2-1.6-.1-1.9-.3-.4-.6.2-.5 1.3zm375.1.4c0 1.4.2 1.9.5 1.2.2-.6.2-1.8 0-2.5-.3-.6-.5-.1-.5 1.3zm-375.9 21c0 3 .2 4.3.4 2.7.2-1.5.2-3.9 0-5.5-.2-1.5-.4-.2-.4 2.8zm377 .5c0 2.7.2 3.8.4 2.2.2-1.5.2-3.7 0-5-.2-1.2-.4 0-.4 2.8zm-197 188.2c.9.2 2.5.2 3.5 0 .9-.3.1-.5-1.8-.5-1.9 0-2.7.2-1.7.5zm13 0c.9.2 2.5.2 3.5 0 .9-.3.1-.5-1.8-.5-1.9 0-2.7.2-1.7.5z"/><path fill="#BFBFBF" d="M382.3 140.7c1.6.4 1.7 3.5 1.7 46.3v45.8l4 .7c5.2.9 10.1 4.2 12.3 8.5 1.6 3.1 1.8 5.1 1.2 17-.3 7.4-1 18-1.4 23.5-.4 5.5-.4 14.7.1 20.5.4 5.8 1.1 16.3 1.4 23.5.5 11.4.3 13.4-1.3 16.5-2.2 4.3-7.1 7.6-12.3 8.5l-4 .7.1 53.1v53.2l2.3-5c10.5-22.7 20.6-43.7 25.3-52.5 12-22.6 24.3-37.4 35.8-43.1 5.8-2.8 7.1-3.1 14.2-2.8 6.6.3 9 1 14.5 3.8 16.2 8.2 27.1 23.2 33.4 46.1 2.6 9.3 2.6 39 .1 51-6 27.9-20.7 56-39.5 75.3-13.4 13.7-31.7 24.7-48.2 28.8-10.2 2.6-24.3 2.3-33-.7l-5.5-1.9.3 34.7.2 34.7-2.2.4c-1.3.2 2.4.2 8.2 0 27.7-1.1 53.5-7.6 77.5-19.6 8-3.9 25.5-14.3 25.5-15 0-.1-2.2-.2-5-.3-9-.2-15.8-6.9-12.9-12.7.6-1.2 8.2-9.2 16.8-17.7 9.7-9.5 19.8-20.7 26.1-28.8 10.2-13.3 15.5-18.2 19.6-18.2 3.4 0 8.1 5.6 9.5 11.3l1.2 5.1 4.4-8.8c8.6-17.1 14.9-37.8 17.7-58.4 11.8-84.9-43.6-228.4-112-290.4-18.9-17.1-40.1-28.6-58.4-31.6-6.8-1.1-20.8-2.3-17.7-1.5zm92.4 96.4c11.5 7.1 6.5 25.9-7 26.1-8.5.2-14.7-5.7-14.7-14.1 0-11.1 12.2-17.9 21.7-12zm38.7 60.3c6.8 2.9 10.3 12.1 6.9 18.6-6.9 13.3-26.3 9-26.3-5.9 0-10.4 9.7-16.8 19.4-12.7zM405.3 580.7c5 5.6-.5 14.1-7.3 11.3-2.4-1-5-4.6-5-6.9 0-.5.9-2 2.1-3.5 2.4-3.1 7.7-3.6 10.2-.9zm-86.9-414.5-1.9 2.3 2.3-1.9c1.2-1.1 2.2-2.1 2.2-2.3 0-.8-.8-.2-2.6 1.9zm-6 5-1.9 2.3 2.3-1.9c2.1-1.8 2.7-2.6 1.9-2.6-.2 0-1.2 1-2.3 2.2zm-10.9 10-4 4.3 4.3-4c2.3-2.1 4.2-4 4.2-4.2 0-.8-.9 0-4.5 3.9zm-10.6 11.5-2.4 2.8 2.8-2.4c2.5-2.3 3.2-3.1 2.4-3.1-.2 0-1.4 1.2-2.8 2.7zm-5 6c-1.3 1.6-1.2 1.7.4.4.9-.7 1.7-1.5 1.7-1.7 0-.8-.8-.3-2.1 1.3zm-7 9c-1.3 1.6-1.2 1.7.4.4 1.6-1.3 2.1-2.1 1.3-2.1-.2 0-1 .8-1.7 1.7zm-3 4c-1.3 1.6-1.2 1.7.4.4.9-.7 1.7-1.5 1.7-1.7 0-.8-.8-.3-2.1 1.3zm44.2 10c.7 1.2 1.5 2 1.8 1.7.3-.2-.3-1.2-1.3-2.2-1.7-1.6-1.8-1.6-.5.5zm-7.2 6.5c.7 1 2.5 1.7 4 1.7l2.6-.2-2.5-.4c-1.4-.3-3.2-1-4-1.6-1.3-1.1-1.3-1-.1.5zm58.9 5.5c.7.3 1.6.2 1.9-.1.4-.3-.2-.6-1.3-.5-1.1 0-1.4.3-.6.6zm-20.3 6.3c-.3.6.1.7.9.4 1.8-.7 2.1-1.4.7-1.4-.6 0-1.3.4-1.6 1zm-5.6 3.7c-1.3 1.6-1.2 1.7.4.4.9-.7 1.7-1.5 1.7-1.7 0-.8-.8-.3-2.1 1.3zm-5 4-2.4 2.8 2.8-2.4c2.5-2.3 3.2-3.1 2.4-3.1-.2 0-1.4 1.2-2.8 2.7zm-6 6-2.4 2.8 2.8-2.4c2.5-2.3 3.2-3.1 2.4-3.1-.2 0-1.4 1.2-2.8 2.7zm-4 5c-1.3 1.6-1.2 1.7.4.4 1.6-1.3 2.1-2.1 1.3-2.1-.2 0-1 .8-1.7 1.7zm-3.4 5.4c-.4.6-.5 1.2-.2 1.5.2.3.7-.2 1-1.1.7-1.7.1-2-.8-.4zm-58.7 7.6c.7.3 1.6.2 1.9-.1.4-.3-.2-.6-1.3-.5-1.1 0-1.4.3-.6.6zm5 0c.7.3 1.6.2 1.9-.1.4-.3-.2-.6-1.3-.5-1.1 0-1.4.3-.6.6zm5.2 1.7c0 .2.8 1 1.8 1.7 1.5 1.3 1.6 1.2.3-.4s-2.1-2.1-2.1-1.3zM259.2 284c0 1.9.2 2.7.5 1.7.2-.9.2-2.5 0-3.5-.3-.9-.5-.1-.5 1.8zm25 0c0 1.9.2 2.7.5 1.7.2-.9.2-2.5 0-3.5-.3-.9-.5-.1-.5 1.8zm36.9-.4c0 1.1.3 1.4.6.6.3-.7.2-1.6-.1-1.9-.3-.4-.6.2-.5 1.3zm-38.5 6.1c-.6 1.4-.5 1.5.5.6.7-.7 1-1.5.7-1.8-.3-.3-.9.2-1.2 1.2zm-5 4.8c-1.1.8-1.5 1.5-.9 1.5s1.6-.7 2.3-1.5c1.6-1.9 1.1-1.9-1.4 0zm-6.8 2.2c.6.2 1.8.2 2.5 0 .6-.3.1-.5-1.3-.5-1.4 0-1.9.2-1.2.5zm50.3 4.9c0 1.1.3 1.4.6.6.3-.7.2-1.6-.1-1.9-.3-.4-.6.2-.5 1.3zm5.9 18.3c0 .6.4 1.3 1 1.6.6.3.7-.1.4-.9-.7-1.8-1.4-2.1-1.4-.7zm3 5.5c0 .2.8 1 1.8 1.7 1.5 1.3 1.6 1.2.3-.4s-2.1-2.1-2.1-1.3zm8 9.1c3 3 5.7 5.5 5.9 5.5.3 0-1.9-2.5-4.9-5.5-3-3-5.7-5.5-5.9-5.5-.3 0 1.9 2.5 4.9 5.5zm7.4 6.4c.7 1.1 4.6 3.5 4.6 2.8 0-.3-1.2-1.2-2.6-2.2-1.5-.9-2.3-1.2-2-.6zm-59.5 8.8c-1.3 1.6-1.2 1.7.4.4 1.6-1.3 2.1-2.1 1.3-2.1-.2 0-1 .8-1.7 1.7zm85.9 2c.7.3 1.6.2 1.9-.1.4-.3-.2-.6-1.3-.5-1.1 0-1.4.3-.6.6zm-73.6 3.3c0 1.4.2 1.9.5 1.2.2-.6.2-1.8 0-2.5-.3-.6-.5-.1-.5 1.3zm-14.2 1.4c0 .8.4 1.7.9 2 .5.4.7-.3.4-1.4-.6-2.3-1.3-2.6-1.3-.6zm3.7 4.7c.7.7 1.5 1 1.8.7.3-.3-.2-.9-1.2-1.2-1.4-.6-1.5-.5-.6.5zm6.3-.1c-.9.6-1 1-.3 1 .6 0 1.5-.5 1.8-1 .8-1.2.4-1.2-1.5 0zm-94.9 35.6c0 1.1.3 1.4.6.6.3-.7.2-1.6-.1-1.9-.3-.4-.6.2-.5 1.3zm-1 8c0 1.1.3 1.4.6.6.3-.7.2-1.6-.1-1.9-.3-.4-.6.2-.5 1.3zm-1.8 17.9c0 2.2.2 3 .4 1.7.2-1.2.2-3 0-4-.3-.9-.5.1-.4 2.3zm-.1 32.5c0 1.9.2 2.7.5 1.7.2-.9.2-2.5 0-3.5-.3-.9-.5-.1-.5 1.8zm.9 8.6c0 1.1.3 1.4.6.6.3-.7.2-1.6-.1-1.9-.3-.4-.6.2-.5 1.3zm179.5 9.9c-.9 2.6-.7 3.2.5 1.2.6-1 .9-2.1.6-2.3-.2-.3-.7.2-1.1 1.1zm-4 9c-.9 2.6-.7 3.2.5 1.2.6-1 .9-2.1.6-2.3-.2-.3-.7.2-1.1 1.1zm-65.8 1.2c1.2.2 3 .2 4 0 .9-.3-.1-.5-2.3-.4-2.2 0-3 .2-1.7.4zm-5.3 1.3c-.3.6.1.7.9.4 1.8-.7 2.1-1.4.7-1.4-.6 0-1.3.4-1.6 1zm13 .2c1.1.6 2.9 1.8 4 2.7 1.2.9.8.4-.7-1.2-1.6-1.5-3.4-2.7-4.1-2.7-.6 0-.3.6.8 1.2zm-17.4 3.4c-1.2 1.5-2.1 3.2-2.1 3.8 0 .6.6.2 1.2-.9s1.8-2.8 2.6-3.8c.8-.9 1.2-1.7.9-1.7-.3 0-1.5 1.2-2.6 2.6zm-2.8 8.9c0 2.2.2 3 .4 1.7.2-1.2.2-3 0-4-.3-.9-.5.1-.4 2.3zm27.8-1.9c0 1.1.3 1.4.6.6.3-.7.2-1.6-.1-1.9-.3-.4-.6.2-.5 1.3zm.1 4.4c0 1.4.2 1.9.5 1.2.2-.6.2-1.8 0-2.5-.3-.6-.5-.1-.5 1.3zm-24.2 7.5c1.3 1.4 2.6 2.5 2.8 2.5.3 0-.5-1.1-1.8-2.5s-2.6-2.5-2.8-2.5c-.3 0 .5 1.1 1.8 2.5zm19.9.2-2.4 2.8 2.8-2.4c2.5-2.3 3.2-3.1 2.4-3.1-.2 0-1.4 1.2-2.8 2.7zm-13.1 4c.7.3 1.6.2 1.9-.1.4-.3-.2-.6-1.3-.5-1.1 0-1.4.3-.6.6zm6 0c.7.3 1.6.2 1.9-.1.4-.3-.2-.6-1.3-.5-1.1 0-1.4.3-.6.6zm50.3 3.9c0 1.1.3 1.4.6.6.3-.7.2-1.6-.1-1.9-.3-.4-.6.2-.5 1.3zm-134.6.4c-.3.6.1.7.9.4 1.8-.7 2.1-1.4.7-1.4-.6 0-1.3.4-1.6 1zm-3.6 3.7c-1.3 1.6-1.2 1.7.4.4.9-.7 1.7-1.5 1.7-1.7 0-.8-.8-.3-2.1 1.3zm137.4 6.3c0 3.6.2 5 .4 3.2.2-1.7.2-4.7 0-6.5-.2-1.7-.4-.3-.4 3.3zM242 523.4c0 .2.8 1 1.8 1.7 1.5 1.3 1.6 1.2.3-.4s-2.1-2.1-2.1-1.3zm-22.2 5.1c-.3 1.4-.1 2.5.3 2.5.5 0 .9-1.1.9-2.5s-.2-2.5-.4-2.5-.6 1.1-.8 2.5zm26.2-.1c0 .2.8 1 1.8 1.7 1.5 1.3 1.6 1.2.3-.4s-2.1-2.1-2.1-1.3zm3 4c0 .2.8 1 1.8 1.7 1.5 1.3 1.6 1.2.3-.4s-2.1-2.1-2.1-1.3zm4 5c0 .2.8 1 1.8 1.7 1.5 1.3 1.6 1.2.3-.4s-2.1-2.1-2.1-1.3zm5 6.1c1.3 1.4 2.6 2.5 2.8 2.5.3 0-.5-1.1-1.8-2.5s-2.6-2.5-2.8-2.5c-.3 0 .5 1.1 1.8 2.5zm108 1.8c0 .2 1.5 1.6 3.3 3.3l3.2 2.9-2.9-3.3c-2.8-3-3.6-3.7-3.6-2.9zm-104 3c0 .1 3.5 3.6 7.8 7.7l7.7 7.5-7.5-7.8c-6.9-7.1-8-8.2-8-7.4zm111.4 3.6c.7 1.1 4.6 3.5 4.6 2.8 0-.3-1.2-1.2-2.6-2.2-1.5-.9-2.3-1.2-2-.6zM285.5 571c3.3 3.3 6.2 6 6.4 6 .3 0-2.1-2.7-5.4-6-3.3-3.3-6.2-6-6.4-6-.3 0 2.1 2.7 5.4 6zm81.3.7c.7.3 1.6.2 1.9-.1.4-.3-.2-.6-1.3-.5-1.1 0-1.4.3-.6.6zm-4.9 2c-1.3 1.6-1.2 1.7.4.4.9-.7 1.7-1.5 1.7-1.7 0-.8-.8-.3-2.1 1.3zm9.1-1.3c0 .2.8 1 1.8 1.7 1.5 1.3 1.6 1.2.3-.4s-2.1-2.1-2.1-1.3zm-10.8 6.1c0 1.6.2 2.2.5 1.2.2-.9.2-2.3 0-3-.3-.6-.5.1-.5 1.8zm14 0c0 1.6.2 2.2.5 1.2.2-.9.2-2.3 0-3-.3-.6-.5.1-.5 1.8zm-11.8 5.2c1.1 1.3 2.6 2.3 3.5 2.2 1.4 0 1.4-.1.1-.6-.8-.3-2.4-1.3-3.5-2.2-2-1.6-2-1.6-.1.6zm10.1-.6c-.4.6-1.7 1.4-2.9 1.9-1.4.6-1.6.9-.5.9.9.1 2.4-.8 3.4-1.9 1-1.1 1.5-2 1.2-2-.3 0-.9.5-1.2 1.1zm-79.8 1.8c-.4 1.7-.3 2.1.5 1.3.5-.5.8-1.6.6-2.3-.3-.8-.7-.3-1.1 1zm-17.7 7.5c0 .2.8 1 1.7 1.7.9.8 1.4.9 1 .2-.4-.6-.1-1.4.5-1.6.7-.3.3-.6-.9-.6-1.3-.1-2.3.1-2.3.3zm75.8 32.3c.7.3 1.6.2 1.9-.1.4-.3-.2-.6-1.3-.5-1.1 0-1.4.3-.6.6zm13 2c.6.2 1.8.2 2.5 0 .6-.3.1-.5-1.3-.5-1.4 0-1.9.2-1.2.5z"/><path fill="#BFBF80" d="M467 182.4c0 .2.8 1 1.8 1.7 1.5 1.3 1.6 1.2.3-.4s-2.1-2.1-2.1-1.3z"/><path fill="#80BF80" d="M313 221.5c-1.9 2.2-.8 2.5 1.3.3.9-1 1.3-1.8.8-1.8s-1.4.7-2.1 1.5zm63.3 12.2c1.5.2 3.9.2 5.5 0 1.5-.2.2-.4-2.8-.4s-4.3.2-2.7.4zm-33.4 13c-1.3 1.6-1.2 1.7.4.4.9-.7 1.7-1.5 1.7-1.7 0-.8-.8-.3-2.1 1.3zm-9 9c-1.3 1.6-1.2 1.7.4.4.9-.7 1.7-1.5 1.7-1.7 0-.8-.8-.3-2.1 1.3zm122.6 3.3c1 1.1 2 2 2.3 2 .3 0-.3-.9-1.3-2s-2-2-2.3-2c-.3 0 .3.9 1.3 2zm-55.4 4.6c0 1.1.3 1.4.6.6.3-.7.2-1.6-.1-1.9-.3-.4-.6.2-.5 1.3zm-.9 9.4c0 1.4.2 1.9.5 1.2.2-.6.2-1.8 0-2.5-.3-.6-.5-.1-.5 1.3zm-133.7 0c-.3.6.1.7.9.4 1.8-.7 2.1-1.4.7-1.4-.6 0-1.3.4-1.6 1zm13 2c1 1.1 2 2 2.3 2 .3 0-.3-.9-1.3-2s-2-2-2.3-2c-.3 0 .3.9 1.3 2zm-16.6.7c-1.3 1.6-1.2 1.7.4.4 1.6-1.3 2.1-2.1 1.3-2.1-.2 0-1 .8-1.7 1.7zm-2.4 3.4c-.4.6-.5 1.2-.2 1.5.2.3.7-.2 1-1.1.7-1.7.1-2-.8-.4zm22.1.2c.3 1 .9 1.5 1.2 1.2.3-.3 0-1.1-.7-1.8-1-.9-1.1-.8-.5.6zm116.7 5.7c0 2.5.2 3.5.4 2.2.2-1.2.2-3.2 0-4.5-.2-1.2-.4-.2-.4 2.3zm-78 7c0 4.1.2 5.8.4 3.7.2-2 .2-5.4 0-7.5-.2-2-.4-.3-.4 3.8zm78 8c0 2.5.2 3.5.4 2.2.2-1.2.2-3.2 0-4.5-.2-1.2-.4-.2-.4 2.3zm105.5-3.3c.7.3 1.6.2 1.9-.1.4-.3-.2-.6-1.3-.5-1.1 0-1.4.3-.6.6zm4 0c.7.3 1.6.2 1.9-.1.4-.3-.2-.6-1.3-.5-1.1 0-1.4.3-.6.6zm7.7 3.3c1 1.1 2 2 2.3 2 .3 0-.3-.9-1.3-2s-2-2-2.3-2c-.3 0 .3.9 1.3 2zm4.7 10.5c0 1.6.2 2.2.5 1.2.2-.9.2-2.3 0-3-.3-.6-.5.1-.5 1.8zm-121 1.5c0 1.4.2 1.9.5 1.2.2-.6.2-1.8 0-2.5-.3-.6-.5-.1-.5 1.3zm97.3 8c1 1.1 2 2 2.3 2 .3 0-.3-.9-1.3-2s-2-2-2.3-2c-.3 0 .3.9 1.3 2zm-96.4 1.6c0 1.1.3 1.4.6.6.3-.7.2-1.6-.1-1.9-.3-.4-.6.2-.5 1.3zm-68.1 6.8c0 .2.8 1 1.8 1.7 1.5 1.3 1.6 1.2.3-.4s-2.1-2.1-2.1-1.3zm9 9c0 .2.8 1 1.8 1.7 1.5 1.3 1.6 1.2.3-.4s-2.1-2.1-2.1-1.3zm-56.1 13.3c-1.3 1.6-1.2 1.7.4.4.9-.7 1.7-1.5 1.7-1.7 0-.8-.8-.3-2.1 1.3zm82.9 0c.7.3 1.6.2 1.9-.1.4-.3-.2-.6-1.3-.5-1.1 0-1.4.3-.6.6zm7.5 1c1.5.2 3.9.2 5.5 0 1.5-.2.2-.4-2.8-.4s-4.3.2-2.7.4zm9.5 0c.7.3 1.6.2 1.9-.1.4-.3-.2-.6-1.3-.5-1.1 0-1.4.3-.6.6zm-95 10c.7.3 1.6.2 1.9-.1.4-.3-.2-.6-1.3-.5-1.1 0-1.4.3-.6.6zm199.2 7.5c4.1 4.5 5 5.3 5 4.5 0-.2-2.1-2.3-4.7-4.7l-4.8-4.5 4.5 4.7zm21.1 48.4c0 1.1.3 1.4.6.6.3-.7.2-1.6-.1-1.9-.3-.4-.6.2-.5 1.3zm0 25c0 1.1.3 1.4.6.6.3-.7.2-1.6-.1-1.9-.3-.4-.6.2-.5 1.3zm-212.7 45.6-1.9 2.3 2.3-1.9c1.2-1.1 2.2-2.1 2.2-2.3 0-.8-.8-.2-2.6 1.9zm19.7.3c.9 1.1 2.1 2.9 2.7 4 .6 1.1 1.2 1.4 1.2.8 0-.7-1.2-2.5-2.7-4.1-1.6-1.5-2.1-1.9-1.2-.7zm-10.3 23.2c.7.3 1.6.2 1.9-.1.4-.3-.2-.6-1.3-.5-1.1 0-1.4.3-.6.6zm54.3 1.9c0 1.1.3 1.4.6.6.3-.7.2-1.6-.1-1.9-.3-.4-.6.2-.5 1.3zm-132.3 2.1c.6.2 1.8.2 2.5 0 .6-.3.1-.5-1.3-.5-1.4 0-1.9.2-1.2.5zm131.3 2.9c0 1.1.3 1.4.6.6.3-.7.2-1.6-.1-1.9-.3-.4-.6.2-.5 1.3zM239 520.5c1.3 1.4 2.6 2.5 2.8 2.5.3 0-.5-1.1-1.8-2.5s-2.6-2.5-2.8-2.5c-.3 0 .5 1.1 1.8 2.5zm288.4.7-2.9 3.3 3.3-2.9c1.7-1.7 3.2-3.1 3.2-3.3 0-.8-.8-.1-3.6 2.9zm-304.4-.7c-.7.9-1.1 1.7-.9 2 .3.2 1-.5 1.7-1.5 1.4-2.4 1-2.6-.8-.5zm19 3.9c0 .2.8 1 1.8 1.7 1.5 1.3 1.6 1.2.3-.4s-2.1-2.1-2.1-1.3zm230.9 3.3-2.4 2.8 2.8-2.4c1.5-1.4 2.7-2.6 2.7-2.8 0-.8-.8-.1-3.1 2.4zm74.3 2.3c0 1.4.2 1.9.5 1.2.2-.6.2-1.8 0-2.5-.3-.6-.5-.1-.5 1.3zm-301.2-.6c0 .2.8 1 1.8 1.7 1.5 1.3 1.6 1.2.3-.4s-2.1-2.1-2.1-1.3zm4 5c0 .2.8 1 1.8 1.7 1.5 1.3 1.6 1.2.3-.4s-2.1-2.1-2.1-1.3zm213.9 2.3-2.4 2.8 2.8-2.4c2.5-2.3 3.2-3.1 2.4-3.1-.2 0-1.4 1.2-2.8 2.7zM253 538.4c0 .2.8 1 1.8 1.7 1.5 1.3 1.6 1.2.3-.4s-2.1-2.1-2.1-1.3zm5.5 6.6c1 1.1 2 2 2.3 2 .3 0-.3-.9-1.3-2s-2-2-2.3-2c-.3 0 .3.9 1.3 2zm110.5 2.5c1.9 1.9 3.6 3.5 3.9 3.5.3 0-1-1.6-2.9-3.5s-3.6-3.5-3.9-3.5c-.3 0 1 1.6 2.9 3.5zM267.5 555c2.7 2.7 5.1 5 5.4 5 .3 0-1.7-2.3-4.4-5-2.7-2.8-5.1-5-5.4-5-.3 0 1.7 2.2 4.4 5zm131.3 6.7c.7.3 1.6.2 1.9-.1.4-.3-.2-.6-1.3-.5-1.1 0-1.4.3-.6.6zm90.6 2.5-2.9 3.3 3.3-2.9c3-2.8 3.7-3.6 2.9-3.6-.2 0-1.6 1.5-3.3 3.2zm-208.4 3c4.1 4.5 5 5.3 5 4.5 0-.2-2.1-2.3-4.7-4.7l-4.8-4.5 4.5 4.7zm81.4 7-1.9 2.3 2.5-2c1.4-1.1 2.7-2.1 2.9-2.2.2-.2 0-.3-.6-.3-.5 0-1.8 1-2.9 2.2zm6.7-1.9c.2.1 1.5 1.1 2.9 2.2l2.5 2-1.9-2.3c-1.1-1.2-2.4-2.2-2.9-2.2-.6 0-.8.1-.6.3zm-81.1 2.1c0 .2.8 1 1.8 1.7 1.5 1.3 1.6 1.2.3-.4s-2.1-2.1-2.1-1.3zm105.1 11.2c0 1.1.3 1.4.6.6.3-.7.2-1.6-.1-1.9-.3-.4-.6.2-.5 1.3zm-109.3 6.1c.7.3 1.6.2 1.9-.1.4-.3-.2-.6-1.3-.5-1.1 0-1.4.3-.6.6zm116 1c.7.3 1.6.2 1.9-.1.4-.3-.2-.6-1.3-.5-1.1 0-1.4.3-.6.6zm87.5 0c.9.2 2.5.2 3.5 0 .9-.3.1-.5-1.8-.5-1.9 0-2.7.2-1.7.5z"/><path fill="#FFFFBF" d="M363 143.5c-12.1 3.2-28.9 11.5-40.5 20.2-57.1 42.6-110.3 146.5-124.1 242.3-2.2 14.6-2.4 46.9-.6 59.5 2.9 19.2 9.3 39.9 17.5 56.2l4.4 8.8.8-4.4c1-5.8 5.6-11.1 9.9-11.1 5.5 0 8.1 2.5 24.6 23.4 4.6 6 14.7 16.7 22.3 24 14 13.2 16.7 16.6 16.7 20.8-.1 4.6-5.3 8.6-12.7 9.6l-4.8.7 10 6.1c22.6 13.6 44.2 21.5 70 25.4 7.2 1.1 16.3 2 20.3 2h7.2v-69l-4.7-2.4c-7-3.5-12.5-8.7-15.8-14.7-2.7-4.9-3-6.2-3-14.9.1-13.1 3.1-22.8 16.6-52.9l6.9-15.3V352h-5.7c-14.8-.1-28.3-5.9-39.8-17.5-12.4-12.3-17.5-24.6-17.5-42 0-17.2 5.1-29.6 17-41.6 4.1-4.1 10-8.9 13-10.6 7.2-4.1 18.9-7.3 26.7-7.3h6.3v-92h-5.7c-3.2.1-10.1 1.2-15.3 2.5zm-43.2 77.1c2.6 1.8 2.9 5.6.6 7.8-4 4-10.5-.4-8.5-5.7 1.5-3.8 4.4-4.6 7.9-2.1zm-41.7 51.9c1.6.9 3.9 3 4.9 4.8 6.2 10.2-4.3 23-15.1 18.4-7.6-3.2-10.6-10.3-7.3-17.2 3.2-6.7 10.9-9.4 17.5-6zm16.9 76c6.4 3.3 4.2 12.7-3.3 13.3-8 .7-10.8-10.8-3.4-13.8 3.1-1.2 3.4-1.2 6.7.5zm21.9 137.2c11.2 8.3 5.4 26.3-8.5 26.3-14.8 0-19.5-20.4-6.3-27.3 4.2-2.2 11-1.8 14.8 1zm55.6 87.8c3 3 3.2 6.4.4 9.9-4.1 5.3-12.9 1.8-12.9-5.1 0-3.2 4.2-7.3 7.5-7.3 1.4 0 3.7 1.1 5 2.5z"/><path fill="#004040" d="M527.9 560.7c-1.3 1.6-1.2 1.7.4.4 1.6-1.3 2.1-2.1 1.3-2.1-.2 0-1 .8-1.7 1.7zM517 572.5c-2.4 2.5-4.2 4.5-3.9 4.5.3 0 2.5-2 4.9-4.5 2.4-2.5 4.2-4.5 3.9-4.5-.3 0-2.5 2-4.9 4.5zm-13.1 12.2c-1.3 1.6-1.2 1.7.4.4.9-.7 1.7-1.5 1.7-1.7 0-.8-.8-.3-2.1 1.3z"/><path fill="#408080" d="M511.1 420.6c0 1.1.3 1.4.6.6.3-.7.2-1.6-.1-1.9-.3-.4-.6.2-.5 1.3zM500 554.5c-2.4 2.5-4.2 4.5-3.9 4.5.3 0 2.5-2 4.9-4.5 2.4-2.5 4.2-4.5 3.9-4.5-.3 0-2.5 2-4.9 4.5zm-16.1 15.2-2.4 2.8 2.8-2.4c2.5-2.3 3.2-3.1 2.4-3.1-.2 0-1.4 1.2-2.8 2.7z"/><path fill="#40BF40" d="M314 222c-1.1 1.1-2 2.4-2 2.9 0 1.6 3 4.1 4.9 4.1 3.8 0 5.4-4.5 2.5-7.4-2-2.1-3-2-5.4.4zm52.2 13.4c-20 4.9-37.4 22.1-42.6 42.2-2 7.7-2 22.1-.1 29.4 6.4 24.3 27.8 42.2 52.3 43.8l8.2.5V234l-6.2.1c-3.5 0-8.7.6-11.6 1.3zM266.3 274c-4.3 2.6-6.7 7.3-5.9 11.6.8 4.1 5.6 9 9.5 9.9 6 1.3 14.1-5.2 14.1-11.3 0-3.2-2.5-7.6-5.6-10.1-3.3-2.6-7.9-2.7-12.1-.1zm21.4 76.1c-3 2.3-3.4 5.4-1.1 8.7 1.9 2.8 6.7 2.9 9.4.2 2.5-2.5 2.5-5.1.3-7.8-2.8-3.1-5.6-3.5-8.6-1.1zm89 126.6c-18.8 42.3-20.3 57-6.9 70.2 3.2 3.1 7.6 6.6 10 7.9l4.2 2.3v-47.5c0-26.2-.2-47.6-.4-47.6s-3.3 6.6-6.9 14.7zm-73.7 9.1c-4.3 2.1-8 7.5-8 11.6 0 7 6.6 13.6 13.5 13.6s13.5-6.6 13.5-13.5c0-6.1-7.1-13.5-13-13.5-1.4 0-4.1.8-6 1.8zm-77.1 32.3c-2.7 2.7-4.9 8-4.9 11.9 0 8.8 27.6 42.3 46.8 56.8 7.2 5.4 7.3 5.5 12.7 4.9 6.2-.6 11.2-3.6 12.1-7.2.9-3.5-1.7-7.3-10.8-16-16.5-15.9-20.6-20.2-32-34.5-6.3-8-12.7-15.3-14.1-16.3-3.5-2.3-7.3-2.1-9.8.4zm137.7 56c-3.1 2.5-3.4 6.1-.6 8.9 3.9 3.9 11 1.1 11-4.4 0-2.5-4.1-6.6-6.5-6.6-.7 0-2.4.9-3.9 2.1z"/><path fill="#408040" d="M384 292.5V351h2.5c3.6 0 8.6-2.3 11.2-5.2 4-4.3 4.8-11.7 2.9-29-.9-8.4-1.6-19.4-1.6-24.3 0-5 .7-15.9 1.6-24.3 1.9-17.3 1.1-24.7-2.9-29-2.6-2.9-7.6-5.2-11.2-5.2H384v58.5zm77.5-55.7c-10.2 4.7-11 17.6-1.6 23.9 5.8 3.9 13.4 2.5 18-3.3 8.7-11.1-3.6-26.5-16.4-20.6zm38.4 62.5c-9 6.1-6.6 20.6 4 23.8 10.8 3.2 20.9-8.9 15.7-19-3.6-6.9-13.1-9.2-19.7-4.8zm-47.2 57.1c-2.6.7-7.2 3-10.3 5.1-14 9.7-24.9 26.9-46.8 73.7L384 460v97l2.6 1c9.5 3.6 24.6 4.3 35.9 1.5 9.1-2.2 25.3-10.1 33.6-16.4 3.7-2.8 10.5-9.1 15.2-14.1 44.8-47 54-123.5 19.2-158.6-8-8.1-13.9-11.7-22.1-13.9-6.9-1.8-9.3-1.8-15.7-.1zm78.6 162.1c-1.7 1.4-7.7 8.4-13.3 15.5-10.2 13.2-15.7 19.1-31.3 33.8-9.4 9-12.2 13.1-11.3 16.7 1 3.8 6 6.6 12.5 7.2 5.8.6 6 .5 12.3-4.3 8.9-6.8 26.3-24.4 33.6-34.1 12.8-17 14.9-22.2 11.8-29.7-3.2-7.7-8.5-9.6-14.3-5.1zm-286.3 48c1.9 1.9 3.6 3.5 3.9 3.5.3 0-1-1.6-2.9-3.5s-3.6-3.5-3.9-3.5c-.3 0 1 1.6 2.9 3.5zm11 11c1.9 1.9 3.6 3.5 3.9 3.5.3 0-1-1.6-2.9-3.5s-3.6-3.5-3.9-3.5c-.3 0 1 1.6 2.9 3.5zm140.2 3.5c-4.2 3.9-1.4 11 4.3 11 3.1 0 6.5-3.3 6.5-6.3 0-2.8-3.8-6.7-6.6-6.7-1.1 0-3 .9-4.2 2zM264 584.4c0 .2.8 1 1.8 1.7 1.5 1.3 1.6 1.2.3-.4s-2.1-2.1-2.1-1.3zm4 3c0 .2.8 1 1.8 1.7 1.5 1.3 1.6 1.2.3-.4s-2.1-2.1-2.1-1.3z"/></svg>