<svg xmlns="http://www.w3.org/2000/svg" version="1.0" viewBox="0 0 768 768"><path fill-opacity=".2" d="M283.3 256.7c55.4.2 146 .2 201.5 0 55.4-.1 10-.2-100.8-.2s-156.2.1-100.7.2z"/><path fill-opacity=".4" d="M266 192.4c0 .2.8 1 1.8 1.7 1.5 1.3 1.6 1.2.3-.4s-2.1-2.1-2.1-1.3zm233.9 1.3c-1.3 1.6-1.2 1.7.4.4.9-.7 1.7-1.5 1.7-1.7 0-.8-.8-.3-2.1 1.3zM303 229.5c4.7 4.7 8.7 8.5 9 8.5.2 0-3.3-3.8-8-8.5s-8.7-8.5-9-8.5c-.2 0 3.3 3.8 8 8.5zm161 .2-8.5 8.8 8.8-8.5c4.8-4.6 8.7-8.6 8.7-8.7 0-.8-1.1.3-9 8.4zm-161 309-8.5 8.8 8.8-8.5c4.8-4.6 8.7-8.6 8.7-8.7 0-.8-1.1.3-9 8.4zm161-.2c4.7 4.7 8.7 8.5 9 8.5.2 0-3.3-3.8-8-8.5s-8.7-8.5-9-8.5c-.2 0 3.3 3.8 8 8.5zm-197.1 36.2c-1.3 1.6-1.2 1.7.4.4 1.6-1.3 2.1-2.1 1.3-2.1-.2 0-1 .8-1.7 1.7zm232.1-1.3c0 .2.8 1 1.8 1.7 1.5 1.3 1.6 1.2.3-.4s-2.1-2.1-2.1-1.3z"/><path fill-opacity=".9" d="m146.4 271.2-1.9 2.3 2.3-1.9c2.1-1.8 2.7-2.6 1.9-2.6-.2 0-1.2 1-2.3 2.2zm474.1-.2c1 1.1 2 2 2.3 2 .3 0-.3-.9-1.3-2s-2-2-2.3-2c-.3 0 .3.9 1.3 2zm-478.6 4.7c-1.3 1.6-1.2 1.7.4.4 1.6-1.3 2.1-2.1 1.3-2.1-.2 0-1 .8-1.7 1.7zm482.1-1.3c0 .2.8 1 1.8 1.7 1.5 1.3 1.6 1.2.3-.4s-2.1-2.1-2.1-1.3zM144 467.5c1.9 1.9 3.6 3.5 3.9 3.5.3 0-1-1.6-2.9-3.5s-3.6-3.5-3.9-3.5c-.3 0 1 1.6 2.9 3.5zm478.9.2-3.4 3.8 3.8-3.4c3.4-3.3 4.2-4.1 3.4-4.1-.2 0-1.9 1.7-3.8 3.7zM361.5 502c9.9 9.9 18.2 18 18.5 18 .3 0-7.6-8.1-17.5-18s-18.2-18-18.5-18c-.3 0 7.6 8.1 17.5 18zm44 .2-18 18.3 18.3-18c10-9.9 18.2-18.1 18.2-18.2 0-.8-1.8 1-18.5 17.9z"/><g stroke-width="0"><path d="M381.3 160.8c-2.3 1.5-3.4 6.3-2.3 9.8 1.9 5.6 7.8 5.8 10 .4 2.6-6.4-2.7-13.4-7.7-10.2zm-114.8 24.6c-1.5 2.2-1.5 2.7-.1 5.5 2.6 5 7.9 6.7 11 3.5 2.4-2.3 1.9-5.2-1.3-8.5-3.7-3.6-7.5-3.8-9.6-.5zm225.4.5c-3.2 3.3-3.7 6.2-1.3 8.5 3.1 3.2 8.4 1.5 11-3.5 1.4-2.8 1.4-3.3-.1-5.5-2.1-3.3-5.9-3.1-9.6.5zm-112 16.7c-1.8 2.2-2.5 22.3-1 27.6 1.8 6 8 6.4 10 .6 1.5-4.3 1.4-23.7-.2-26.8-1.6-3.1-6.7-3.9-8.8-1.4zm-83.8 10.3c-1.2 1.2-2.1 3.1-2.1 4.2 0 2.9 18.9 21.9 21.8 21.9 1.1 0 3-1.2 4.1-2.6 1.8-2.3 1.9-2.9.6-5.3-1.9-3.6-17.5-18.8-20.2-19.5-1.5-.5-2.8-.1-4.2 1.3zm170.4-.9c-1.1.4-5.9 4.8-10.7 9.8-6.3 6.3-8.8 9.7-8.8 11.4 0 2.8 2.8 5.8 5.5 5.8 2.6 0 21.5-19.2 21.5-21.9 0-2-3.2-6.2-4.7-6-.5 0-1.7.4-2.8.9zm-291.7 46c-19.6 3.4-36.5 17.4-42.9 35.6-3.6 10.1-4.1 21-3.6 83.8.4 65.3.3 63.7 6.3 76.1 3.4 7 12.5 17.1 19.4 21.5 2.7 1.8 8.2 4.4 12.2 5.8l7.3 2.7 85.6.3 85.5.3 18.4 18.4c14.2 14.2 19.1 18.5 21 18.5 1.9 0 6.8-4.3 21-18.5l18.4-18.4 85.5-.3 85.6-.3 7.3-2.7c17.7-6.5 30.5-20 36-38.3 1.3-4.2 1.6-15.1 1.9-65.1.5-62.8 0-73.7-3.6-83.8-5.3-15.2-19-28.4-35-33.9l-6.6-2.2-207.5-.1c-114.1-.1-209.6.2-212.2.6zm415.7 11c16.8 2.5 30 13.4 35.5 29.4 1.9 5.7 2 8.3 2 71.7 0 60.8-.1 66.2-1.8 71.6-4.2 13.5-14.2 23.6-27.6 28.3-5.7 1.9-8.1 2-84.5 2h-78.5l3.7-3.8c2-2.1 3.7-4.6 3.7-5.7 0-2.5-2.9-5.5-5.4-5.5-1.4 0-10.6 8.5-27.8 25.7L384 508.5l-25.8-25.8C342.5 467 331.7 457 330.6 457c-2.6 0-5.6 2.9-5.6 5.4 0 1.1 1.7 3.7 3.7 5.8l3.7 3.8h-78.5c-76.4 0-78.8-.1-84.5-2-13.4-4.7-23.4-14.8-27.6-28.3-1.7-5.4-1.8-10.8-1.8-71.6 0-63.4.1-66 2-71.7 5.3-15.6 18.9-27 34.6-29.3 8.6-1.3 405.2-1.3 413.9-.1z"/><path d="M182.6 339.2c-1.4 1.9-1.6 6.6-1.6 31.4 0 28.3.1 29.1 2.1 31 1.9 1.7 3.9 1.9 22.9 1.9 16.1 0 21.1-.3 22.3-1.4 2.5-2 2.5-34.2.1-36.2-1.8-1.5-16.5-2.5-21.8-1.5-4.1.8-7.1 4.4-6.2 7.4.9 2.8 4.9 4.2 12.1 4.2h6.5v16h-27v-44h17.3c15.6 0 17.6-.2 19-1.8 2-2.2 2.2-6.3.5-8-.9-.9-7.4-1.2-22.9-1.2-21.4 0-21.8 0-23.3 2.2zm62.1-.4c-1.5 1.6-1.7 5.3-1.7 31.4 0 28.7.1 29.5 2.1 31.4 1.9 1.7 3.9 1.9 22.9 1.9 16.1 0 21.1-.3 22.3-1.4 1.5-1.2 1.7-4.7 1.7-31.7 0-26.2-.2-30.5-1.6-31.8-1.3-1.4-4.8-1.6-22.8-1.6-19.4 0-21.4.2-22.9 1.8zM281 370v22h-27v-44h27v22zm25.7-31.2c-1 1-1.7 2.8-1.7 4 0 3.6 3.7 5.2 11.7 5.2h7.3v25.9c0 28.4.1 29.1 5.9 29.1 5 0 5.1-.5 5.1-28.7V348h7.8c8.5 0 11.2-1.4 11.2-5.8 0-4.9-1.6-5.2-24.4-5.2-19.4 0-21.4.2-22.9 1.8zm61.9-.2c-2.4 2.3-2.4 60.5-.1 62.8 2.4 2.4 6.8 2.8 26.4 2.4 16.7-.3 18.4-.5 19.7-2.2 2.1-2.9 1.7-6.3-.8-8-1.8-1.3-5.5-1.6-19-1.6H378v-44h17.3c15.6 0 17.6-.2 19-1.8 2.1-2.3 2.2-5.6.1-7.6-1.3-1.4-4.8-1.6-22.9-1.6-18.1 0-21.6.2-22.9 1.6zm62 0c-1.4 1.3-1.6 5.6-1.6 31 0 18.5.4 30.3 1 31.5 1.3 2.3 6.2 2.6 8.4.3 1.3-1.2 1.6-4 1.6-13.5V376h27v11.9c0 13 .8 15.1 5.5 15.1 5.4 0 5.5-.6 5.5-33 0-32.3-.1-33-5.4-33-4.6 0-5.6 2.7-5.6 15.3V364h-27v-11.8c0-10.3-.3-12.1-1.8-13.5-2.3-2.1-5.6-2.2-7.6-.1zm62 0c-1.4 1.3-1.6 5.6-1.6 31.8 0 32.4 0 32.6 5.1 32.6s5.9-1.9 5.9-15.1V376h27v11.6c0 13.1.8 15.4 5 15.4 6 0 6-.2 6-32.9 0-27.6-.1-29.9-1.8-31.4-2.7-2.5-43.2-2.5-45.6-.1zM529 356v8h-27v-16h27v8zm25.6-17.4c-1.4 1.3-1.6 4.8-1.6 22.9 0 21 0 21.4 2.2 22.9 3 2.1 4.4 2 6.8-.4 1.9-1.9 2-3.3 2-22.8 0-19-.2-21-1.8-22.5-2.3-2.1-5.6-2.2-7.6-.1zm23 0c-1.4 1.3-1.6 4.8-1.6 22.9 0 21 0 21.4 2.2 22.9 3 2.1 4.4 2 6.8-.4 1.9-1.9 2-3.3 2-22.3 0-16.7-.3-20.6-1.6-22.5-1.8-2.6-5.6-2.9-7.8-.6zm-22.4 55c-4.3 3-2 10.4 3.3 10.4 2.5 0 5.5-3.3 5.5-6 0-4.2-5.3-6.9-8.8-4.4zm23 0c-4.3 3-2 10.4 3.3 10.4 2.5 0 5.5-3.3 5.5-6 0-4.2-5.3-6.9-8.8-4.4zM303.9 538.9c-10.5 10.4-11.5 12.5-7.8 16.2 3 3 5.3 1.8 15.7-8.5 6.7-6.8 9.2-10 9.2-11.8 0-2.8-2.8-5.8-5.5-5.8-1 0-6.2 4.4-11.6 9.9zm144.2-7.3c-1.8 2.3-1.9 2.9-.6 5.3 1.9 3.6 17.5 18.8 20.2 19.5 2.7.8 6.3-2.4 6.3-5.5 0-2.9-18.9-21.9-21.8-21.9-1.1 0-3 1.2-4.1 2.6zm-66.8 2.2c-2.3 1.5-3.3 6.5-3.3 17 0 13 1.1 15.7 6 15.7s6-2.7 6-15.7c0-13.4-1.5-17.8-6-17.8-.8 0-2 .4-2.7.8zm-111.6 39.3c-.9.5-2.4 2.4-3.3 4-1.4 2.8-1.4 3.3.1 5.5 1 1.5 2.5 2.4 4.1 2.4 3.1 0 8.4-5 8.4-7.9 0-4.2-5.1-6.4-9.3-4zm220.9.5c-2.4 2.3-1.9 5.2 1.3 8.5 3.7 3.6 7.5 3.8 9.6.5 1.5-2.2 1.5-2.7.1-5.5-2.6-5-7.9-6.7-11-3.5zm-110 21c-2.4 2.3-3 6.1-1.6 9.4 2.2 5.4 8.1 5.2 10-.4 2.3-7.2-3.7-13.7-8.4-9z"/></g><path fill-opacity=".1" d="M361.5 503c9.9 9.9 18.2 18 18.5 18 .3 0-7.6-8.1-17.5-18s-18.2-18-18.5-18c-.3 0 7.6 8.1 17.5 18zm44 .2-18 18.3 18.3-18c16.9-16.7 18.7-18.5 17.9-18.5-.1 0-8.3 8.2-18.2 18.2z"/><path fill-opacity=".6" d="M275 184.4c0 .2.8 1 1.8 1.7 1.5 1.3 1.6 1.2.3-.4s-2.1-2.1-2.1-1.3zm215.9 1.3c-1.3 1.6-1.2 1.7.4.4.9-.7 1.7-1.5 1.7-1.7 0-.8-.8-.3-2.1 1.3zM311 220.5c4.7 4.7 8.7 8.5 9 8.5.2 0-3.3-3.8-8-8.5s-8.7-8.5-9-8.5c-.2 0 3.3 3.8 8 8.5zm144.5.7-8 8.3 8.3-8c4.5-4.4 8.2-8.1 8.2-8.2 0-.8-1.1.3-8.5 7.9zM311 547.7l-8.5 8.8 8.8-8.5c4.8-4.6 8.7-8.6 8.7-8.7 0-.8-1.1.3-9 8.4zm145-.2c4.7 4.7 8.7 8.5 9 8.5.2 0-3.3-3.8-8-8.5s-8.7-8.5-9-8.5c-.2 0 3.3 3.8 8 8.5zm-180.1 35.2c-1.3 1.6-1.2 1.7.4.4 1.6-1.3 2.1-2.1 1.3-2.1-.2 0-1 .8-1.7 1.7zm214.1-1.3c0 .2.8 1 1.8 1.7 1.5 1.3 1.6 1.2.3-.4s-2.1-2.1-2.1-1.3z"/><path fill="#400000" d="M230.4 384c0 7.4.1 10.5.3 6.7.2-3.7.2-9.7 0-13.5-.2-3.7-.3-.6-.3 6.8z"/><path fill="#404000" d="M283.3 268.7c55.4.2 146 .2 201.5 0 55.4-.1 10-.2-100.8-.2s-156.2.1-100.7.2zm-131.4 13-2.4 2.8 2.8-2.4c2.5-2.3 3.2-3.1 2.4-3.1-.2 0-1.4 1.2-2.8 2.7zm463.1-.2c1.3 1.4 2.6 2.5 2.8 2.5.3 0-.5-1.1-1.8-2.5s-2.6-2.5-2.8-2.5c-.3 0 .5 1.1 1.8 2.5zm-474.9 24.1c0 1.1.3 1.4.6.6.3-.7.2-1.6-.1-1.9-.3-.4-.6.2-.5 1.3zm487 0c0 1.1.3 1.4.6.6.3-.7.2-1.6-.1-1.9-.3-.4-.6.2-.5 1.3zm-431.3 31.1c5.7.2 14.7.2 20 0 5.3-.1.7-.3-10.3-.3s-15.4.2-9.7.3zm62 0c5.7.2 14.7.2 20 0 5.3-.1.7-.3-10.3-.3s-15.4.2-9.7.3zm62 0c5.7.2 14.7.2 20 0 5.3-.1.7-.3-10.3-.3s-15.4.2-9.7.3zm62 0c5.7.2 14.7.2 20 0 5.3-.1.7-.3-10.3-.3s-15.4.2-9.7.3zm124 0c5.7.2 14.7.2 20 0 5.3-.1.7-.3-10.3-.3s-15.4.2-9.7.3zm-199.9 2c-1.3 1.6-1.2 1.7.4.4 1.6-1.3 2.1-2.1 1.3-2.1-.2 0-1 .8-1.7 1.7zm-75.8 3.9c0 1.1.3 1.4.6.6.3-.7.2-1.6-.1-1.9-.3-.4-.6.2-.5 1.3zm62.3 27.4c0 16.2.2 22.9.3 14.7.2-8.1.2-21.3 0-29.5-.1-8.1-.3-1.4-.3 14.8zm283-9c0 11.3.2 15.9.3 10.2.2-5.6.2-14.8 0-20.5-.1-5.6-.3-1-.3 10.3zm-85 9c0 15.7.2 22.1.3 14.2.2-7.8.2-20.6 0-28.5-.1-7.8-.3-1.4-.3 14.3zm62-8.5c0 11 .2 15.6.3 10.3.2-5.3.2-14.3 0-20-.1-5.7-.3-1.3-.3 9.7zm-124 8.5c0 15.1.2 21.3.3 13.7.2-7.5.2-19.9 0-27.5-.1-7.5-.3-1.3-.3 13.8zm-236 0c0 12.4.2 17.4.3 11.2.2-6.1.2-16.3 0-22.5-.1-6.1-.3-1.1-.3 11.3zm62 0c0 12.4.2 17.4.3 11.2.2-6.1.2-16.3 0-22.5-.1-6.1-.3-1.1-.3 11.3zm81 3c0 14 .2 19.8.3 12.7.2-7 .2-18.4 0-25.5-.1-7-.3-1.2-.3 12.8zM181 400.4c0 .2.8 1 1.8 1.7 1.5 1.3 1.6 1.2.3-.4s-2.1-2.1-2.1-1.3zm147.8 3.3c.7.3 1.6.2 1.9-.1.4-.3-.2-.6-1.3-.5-1.1 0-1.4.3-.6.6zm105 0c.7.3 1.6.2 1.9-.1.4-.3-.2-.6-1.3-.5-1.1 0-1.4.3-.6.6zm38 0c.7.3 1.6.2 1.9-.1.4-.3-.2-.6-1.3-.5-1.1 0-1.4.3-.6.6zm24 0c.7.3 1.6.2 1.9-.1.4-.3-.2-.6-1.3-.5-1.1 0-1.4.3-.6.6zm38 0c.7.3 1.6.2 1.9-.1.4-.3-.2-.6-1.3-.5-1.1 0-1.4.3-.6.6zm-393.7 31.9c0 1.1.3 1.4.6.6.3-.7.2-1.6-.1-1.9-.3-.4-.6.2-.5 1.3zm487 0c0 1.1.3 1.4.6.6.3-.7.2-1.6-.1-1.9-.3-.4-.6.2-.5 1.3zM151 458.4c0 .2.8 1 1.8 1.7 1.5 1.3 1.6 1.2.3-.4s-2.1-2.1-2.1-1.3zM358.8 483l25.2 25.5 25.3-25.5 25.2-25.5-25.2 25-25.3 25-25.2-25-25.3-25 25.3 25.5zm256.1-23.3c-1.3 1.6-1.2 1.7.4.4 1.6-1.3 2.1-2.1 1.3-2.1-.2 0-1 .8-1.7 1.7zM328 468.5c1.9 1.9 3.6 3.5 3.9 3.5.3 0-1-1.6-2.9-3.5s-3.6-3.5-3.9-3.5c-.3 0 1 1.6 2.9 3.5zm110.9.2-3.4 3.8 3.8-3.4c2-1.9 3.7-3.6 3.7-3.8 0-.8-.8 0-4.1 3.4zm-264.1 3c.7.3 1.6.2 1.9-.1.4-.3-.2-.6-1.3-.5-1.1 0-1.4.3-.6.6zm417 0c.7.3 1.6.2 1.9-.1.4-.3-.2-.6-1.3-.5-1.1 0-1.4.3-.6.6z"/><path fill="#804000" d="M176.8 269.7c.7.3 1.6.2 1.9-.1.4-.3-.2-.6-1.3-.5-1.1 0-1.4.3-.6.6zm413 0c.7.3 1.6.2 1.9-.1.4-.3-.2-.6-1.3-.5-1.1 0-1.4.3-.6.6zm-449.7 38.9c0 1.1.3 1.4.6.6.3-.7.2-1.6-.1-1.9-.3-.4-.6.2-.5 1.3zm487 0c0 1.1.3 1.4.6.6.3-.7.2-1.6-.1-1.9-.3-.4-.6.2-.5 1.3zM366.4 370c0 16.2.2 22.9.3 14.7.2-8.1.2-21.3 0-29.5-.1-8.1-.3-1.4-.3 14.8zm49.7-27.4c0 1.1.3 1.4.6.6.3-.7.2-1.6-.1-1.9-.3-.4-.6.2-.5 1.3zm24.3 9.9c0 6.6.1 9.2.3 5.7.2-3.4.2-8.8 0-12-.2-3.1-.3-.3-.3 6.3zm26 0c0 6.6.1 9.2.3 5.7.2-3.4.2-8.8 0-12-.2-3.1-.3-.3-.3 6.3zm12 17.5c0 16.2.2 22.9.3 14.7.2-8.1.2-21.3 0-29.5-.1-8.1-.3-1.4-.3 14.8zm62 0c0 16.2.2 22.9.3 14.7.2-8.1.2-21.3 0-29.5-.1-8.1-.3-1.4-.3 14.8zm-298 0c0 15.7.2 22.1.3 14.2.2-7.8.2-20.6 0-28.5-.1-7.8-.3-1.4-.3 14.3zm-62 0c0 15.1.2 21.3.3 13.7.2-7.5.2-19.9 0-27.5-.1-7.5-.3-1.3-.3 13.8zm384-8.5c0 10.4.2 14.6.3 9.2.2-5.4.2-13.9 0-19-.1-5.1-.3-.7-.3 9.8zm23 0c0 10.4.2 14.6.3 9.2.2-5.4.2-13.9 0-19-.1-5.1-.3-.7-.3 9.8zm-386.6-12.8c4.5.2 11.9.2 16.5 0 4.5-.1.8-.3-8.3-.3-9.1 0-12.8.2-8.2.3zm60.5 0c3.7.2 9.7.2 13.5 0 3.7-.2.6-.3-6.8-.3-7.4 0-10.5.1-6.7.3zm55.4 0 6.3.4.3 24.2.3 24.2-.1-24.5v-24.5l-6.5-.1h-6.5l6.2.3zm22 0c1.8.2 5 .2 7 0 2.1-.2.7-.4-3.2-.4-3.8 0-5.5.2-3.8.4zm39.7.6c-.2.7-.3 10.5-.1 21.7l.2 20.5.3-21.2.2-21.3 16.3-.3 16.2-.3-16.3-.2c-12.4-.1-16.4.1-16.8 1.1zm124 0c-.3.8-.3 4.5-.1 8.3l.3 6.9.2-7.8.2-7.7h24.9l.4 7.2.3 7.3V356l-.1-7.5-12.8-.3c-10.1-.2-12.8 0-13.3 1.1zm-62 38.2c0 6.6.1 9.2.3 5.7.2-3.4.2-8.8 0-12-.2-3.1-.3-.3-.3 6.3zm26 0c0 6.6.1 9.2.3 5.7.2-3.4.2-8.8 0-12-.2-3.1-.3-.3-.3 6.3zm36-.5c0 6.3.1 8.9.3 5.7.2-3.1.2-8.3 0-11.5-.2-3.1-.3-.5-.3 5.8zm26 1c0 6.3.1 8.9.3 5.7.2-3.1.2-8.3 0-11.5-.2-3.1-.3-.5-.3 5.8zm-112.2 10c0 1.4.2 1.9.5 1.2.2-.6.2-1.8 0-2.5-.3-.6-.5-.1-.5 1.3zm141.6 6.7c.7.3 1.6.2 1.9-.1.4-.3-.2-.6-1.3-.5-1.1 0-1.4.3-.6.6zm23 0c.7.3 1.6.2 1.9-.1.4-.3-.2-.6-1.3-.5-1.1 0-1.4.3-.6.6zm-251 52c.7.3 1.6.2 1.9-.1.4-.3-.2-.6-1.3-.5-1.1 0-1.4.3-.6.6zm107 0c.7.3 1.6.2 1.9-.1.4-.3-.2-.6-1.3-.5-1.1 0-1.4.3-.6.6z"/><path fill="#BF8000" d="M179.8 269.7c.7.3 1.6.2 1.9-.1.4-.3-.2-.6-1.3-.5-1.1 0-1.4.3-.6.6zm407 0c.7.3 1.6.2 1.9-.1.4-.3-.2-.6-1.3-.5-1.1 0-1.4.3-.6.6zm-434.4 12.5-2.9 3.3 3.3-2.9c3-2.8 3.7-3.6 2.9-3.6-.2 0-1.6 1.5-3.3 3.2zm459.6-2.9c0 .2 1.5 1.6 3.3 3.3l3.2 2.9-2.9-3.3c-2.8-3-3.6-3.7-3.6-2.9zm-471.5 91.2c0 33.5.1 47.1.2 30.2.2-17 .2-44.4 0-61-.1-16.6-.2-2.8-.2 30.8zm487 0c0 33.5.1 47.1.2 30.2.2-17 .2-44.4 0-61-.1-16.6-.2-2.8-.2 30.8zm-321.6-32.8c-1.3 1.6-1.2 1.7.4.4 1.6-1.3 2.1-2.1 1.3-2.1-.2 0-1 .8-1.7 1.7zm46.6.3c1 1.1 2 2 2.3 2 .3 0-.3-.9-1.3-2s-2-2-2.3-2c-.3 0 .3.9 1.3 2zm15 0c-1 1.1-1.6 2.2-1.4 2.4.2.2 1.2-.7 2.2-2 2.2-2.9 1.7-3.2-.8-.4zm47 0c1 1.1 2 2 2.3 2 .3 0-.3-.9-1.3-2s-2-2-2.3-2c-.3 0 .3.9 1.3 2zm15 0c-1 1.1-1.6 2.2-1.4 2.4.2.2 1.2-.7 2.2-2 2.2-2.9 1.7-3.2-.8-.4zm7.5-1.6c0 .2.8 1 1.8 1.7 1.5 1.3 1.6 1.2.3-.4s-2.1-2.1-2.1-1.3zm30.9 1.3c-1.3 1.6-1.2 1.7.4.4 1.6-1.3 2.1-2.1 1.3-2.1-.2 0-1 .8-1.7 1.7zm8.7.5c1 1.4 2.1 2.4 2.3 2.2.3-.3-.6-1.5-1.8-2.7l-2.4-2.2 1.9 2.7zm14.8 0-1.9 2.3 2.3-1.9c1.2-1.1 2.2-2.1 2.2-2.3 0-.8-.8-.2-2.6 1.9zm45.6-1.8c0 .2.8 1 1.8 1.7 1.5 1.3 1.6 1.2.3-.4s-2.1-2.1-2.1-1.3zm-308.1 10.3c-1.3 1.6-1.2 1.7.4.4.9-.7 1.7-1.5 1.7-1.7 0-.8-.8-.3-2.1 1.3zm-28 19c-1.3 1.6-1.2 1.7.4.4 1.6-1.3 2.1-2.1 1.3-2.1-.2 0-1 .8-1.7 1.7zm-1.8 4.9c0 1.1.3 1.4.6.6.3-.7.2-1.6-.1-1.9-.3-.4-.6.2-.5 1.3zm12.7 6.1 6.2.4v13.8l-12.5.4-12.5.3 12.7-.1h12.8v-15l-6.5-.1h-6.5l6.3.3zm235.5 0c3.7.2 9.6.2 13 0 3.4-.2.4-.3-6.8-.3-7.1 0-9.9.1-6.2.3zm62 0c3.7.2 9.6.2 13 0 3.4-.2.4-.3-6.8-.3-7.1 0-9.9.1-6.2.3zm48.5 10c.7.3 1.6.2 1.9-.1.4-.3-.2-.6-1.3-.5-1.1 0-1.4.3-.6.6zm23 0c.7.3 1.6.2 1.9-.1.4-.3-.2-.6-1.3-.5-1.1 0-1.4.3-.6.6zm-319.5 5c3.7.2 9.6.2 13 0 3.4-.2.4-.3-6.8-.3-7.1 0-9.9.1-6.2.3zm126 0c4.8.2 12.5.2 17 0 4.5-.1.6-.3-8.8-.3-9.3 0-13 .2-8.2.3zm-21.3 8.2c0 .6.4 1.3 1 1.6.6.3.7-.1.4-.9-.7-1.8-1.4-2.1-1.4-.7zm73.6.8c-.6 1.4-.5 1.5.5.6.7-.7 1-1.5.7-1.8-.3-.3-.9.2-1.2 1.2zm26.4-.8c0 .6.4 1.3 1 1.6.6.3.7-.1.4-.9-.7-1.8-1.4-2.1-1.4-.7zm11.6.8c-.6 1.4-.5 1.5.5.6.7-.7 1-1.5.7-1.8-.3-.3-.9.2-1.2 1.2zm50.4-.8c0 .6.4 1.3 1 1.6.6.3.7-.1.4-.9-.7-1.8-1.4-2.1-1.4-.7zm11.6.8c-.6 1.4-.5 1.5.5.6.7-.7 1-1.5.7-1.8-.3-.3-.9.2-1.2 1.2zm-358.6.7c0 .2.8 1 1.8 1.7 1.5 1.3 1.6 1.2.3-.4s-2.1-2.1-2.1-1.3zm62 0c0 .2.8 1 1.8 1.7 1.5 1.3 1.6 1.2.3-.4s-2.1-2.1-2.1-1.3zm81 0c0 .2.8 1 1.8 1.7 1.5 1.3 1.6 1.2.3-.4s-2.1-2.1-2.1-1.3zm175.9 1.3c-1.3 1.6-1.2 1.7.4.4.9-.7 1.7-1.5 1.7-1.7 0-.8-.8-.3-2.1 1.3zm53.8.4c1.2 1.2 2.4 2.1 2.7 1.8.2-.2-.8-1.3-2.2-2.3l-2.7-1.9 2.2 2.4zm23 0c1.2 1.2 2.4 2.1 2.7 1.8.2-.2-.8-1.3-2.2-2.3l-2.7-1.9 2.2 2.4zm-217.4 79.4 24.7 25 24.8-25 24.7-25-24.7 24.5-24.8 24.5-24.7-24.5-24.8-24.5 24.8 25zm-31.3-13c1.3 1.4 2.6 2.5 2.8 2.5.3 0-.5-1.1-1.8-2.5s-2.6-2.5-2.8-2.5c-.3 0 .5 1.1 1.8 2.5zm110.9.2-2.4 2.8 2.8-2.4c2.5-2.3 3.2-3.1 2.4-3.1-.2 0-1.4 1.2-2.8 2.7z"/><g fill="#FF8000" stroke-width="0"><path d="M179.5 269.7c-17.5 2.2-31.3 13.3-36.8 29.7-1.5 4.4-1.7 12-1.7 69.7v64.7l3.8 4.5c7.6 9 15.8 14.3 26.8 17.2 8.6 2.2 416.2 2.2 424.8 0 11-2.9 19.2-8.2 26.9-17.2l3.7-4.5v-64.7c0-71.6.2-69.1-6.5-79.6-5.6-8.7-13.4-14.8-23.1-18.2-4.6-1.6-19-1.8-209.9-1.9-112.7-.1-206.3.1-208 .3zm49.7 68c2.6 2.3 2.4 7.8-.4 9.7-1.8 1.3-5.5 1.6-19 1.6H193v42h25v-13.8l-7.6-.4c-6.6-.3-7.9-.7-9.6-2.8-2-2.4-1.8-6.1.4-8.7 1.7-2.1 26.2-1.8 28.2.3 2.4 2.3 2.4 34.5 0 36.8-1.3 1.4-4.9 1.6-23.9 1.6H183l-1.5-2.4c-1.4-2.1-1.5-6.5-1.3-32.6.3-28.5.4-30.2 2.2-31.6 1.6-1.1 6.5-1.4 23.5-1.4 18.5 0 21.7.2 23.3 1.7zm62 0c1.7 1.5 1.8 3.8 1.8 32.4 0 26.6-.2 31-1.6 32.3-1.3 1.4-4.9 1.6-23.9 1.6-22 0-22.4 0-23.9-2.2-1.4-1.9-1.6-6.7-1.6-32 0-28.5.1-29.9 2-31.8 1.9-1.9 3.3-2 23.7-2 18.7 0 21.9.2 23.5 1.7zm62 0c2.4 2.1 2.3 6.8-.2 9.3-1.6 1.6-3.3 2-9.5 2H336v25.7c0 28.6-.2 29.3-6.6 29.3-6.1 0-6.4-1.3-6.4-29.7V349h-7.5c-6.2 0-7.9-.4-9.5-2-2.4-2.4-2.6-5.7-.4-8.8 1.5-2.2 1.9-2.2 23.6-2.2 19.2 0 22.4.2 24 1.7zm62 0c2.4 2.1 2.3 6.8-.2 9.3-1.8 1.8-3.3 2-19 2h-17v42h16.1c15.5 0 19.3.6 21.1 3.4 1.3 1.9.9 5.9-.9 7.8-1.5 1.6-3.6 1.8-23.6 1.8-19.1 0-22.3-.2-23.9-1.7-1.7-1.5-1.8-3.8-1.8-32.1 0-27 .2-30.8 1.7-32.4 1.5-1.6 3.6-1.8 23.6-1.8 19.1 0 22.3.2 23.9 1.7zm24.2.5c1.2 1.7 1.6 5 1.6 14V364h25v-11.8c0-13.5 1-16.2 6.2-16.2 1.7 0 4 .7 5 1.7 1.7 1.5 1.8 3.8 1.8 32.1 0 33.8-.1 34.2-6.3 34.2-5.8 0-6.7-1.9-6.7-15.2V377h-25v11.7c0 9.4-.3 12-1.7 13.5-2 2.2-7 2.3-9.5.1-1.7-1.5-1.8-3.8-1.8-32.1 0-27 .2-30.8 1.7-32.4 2.3-2.6 7.8-2.4 9.7.4zm100 0c1.4 1.9 1.6 6.7 1.6 32.2 0 33.1-.1 33.6-6.3 33.6-5.8 0-6.7-1.9-6.7-15.2V377h-25v11.3c0 13-1.1 15.7-6.2 15.7-1.7 0-4-.7-5-1.7-1.7-1.5-1.8-3.8-1.8-32.1 0-27 .2-30.8 1.7-32.4 1.5-1.6 3.6-1.8 23.9-1.8 21.9 0 22.3 0 23.8 2.2zm23.6-.2c1.9 1.9 2 3.3 2 23v21.1l-2.6 2.5c-1.9 2-3.1 2.4-5.2 1.9-5-1.2-5.2-2.3-5.2-25.4 0-18.5.2-21.7 1.7-23.3 2.1-2.4 6.8-2.3 9.3.2zm22.6-.6c1.8 1.3 1.9 3 2.2 23l.3 21.6-2.6 2.6c-2 2-3.2 2.4-5.3 1.9-5-1.2-5.2-2.3-5.2-25.4 0-18.5.2-21.7 1.7-23.3 1.9-2.2 6.2-2.3 8.9-.4zm-22.3 56.9c1.3 1.5 1.7 3 1.3 5.2-1.6 7.9-12.6 7.1-12.6-1 0-7 6.7-9.5 11.3-4.2zm23-.1c2 2.4 2.1 4.1.6 7.1-1.5 2.8-2.8 3.7-5.8 3.7-3.5 0-6.1-2.8-6.1-6.5 0-7 6.7-9.5 11.3-4.3z"/><path d="M255 370v21h25v-42h-25v21zm248-13.5v7.5h25v-15h-25v7.5z"/></g><path fill="#BF4000" d="M280.4 370c0 11.8.2 16.7.3 10.7.2-5.9.2-15.5 0-21.5-.1-5.9-.3-1-.3 10.8z"/><path fill="olive" d="M324.1 462.6c0 1.1.3 1.4.6.6.3-.7.2-1.6-.1-1.9-.3-.4-.6.2-.5 1.3zm119 0c0 1.1.3 1.4.6.6.3-.7.2-1.6-.1-1.9-.3-.4-.6.2-.5 1.3z"/><path fill="#FFBF00" d="M141.5 437c1.2 6.3 6.3 15.9 11.1 21 6.1 6.6 16.6 11.8 26 13 3.8.5 39.5.9 79.3 1h72.3l-3.1-3.5c-3.2-3.7-3.8-6.3-2.1-9.6 1.1-1.9-.1-1.9-73.3-1.9-80.7 0-79.7.1-91-5.6-6.1-3.1-10.7-6.9-16.1-13.3l-3.9-4.6.8 3.5zm484.5-2.3c0 2.2-12.6 13.6-18.1 16.4-12 6-10.4 5.9-91.6 5.9-73.2 0-74.4 0-73.3 1.9 1.7 3.3 1.1 5.9-2.1 9.6l-3.1 3.5h72.3c39.8-.1 75.4-.5 79.1-.9 13.6-1.8 26.5-10.5 32.6-21.9 3.2-6 5.7-14 4.8-15-.3-.3-.6-.1-.6.5zm-266.7 47 24.7 24.8 24.7-24.8 24.8-24.7h-99l24.8 24.7z"/></svg>