<svg xmlns="http://www.w3.org/2000/svg" version="1.0" viewBox="0 0 768 768"><path fill="#FF8040" fill-opacity=".9" d="M294.8 128.7c.6.2 1.8.2 2.5 0 .6-.3.1-.5-1.3-.5-1.4 0-1.9.2-1.2.5zM257.2 167c0 1.4.2 1.9.5 1.2.2-.6.2-1.8 0-2.5-.3-.6-.5-.1-.5 1.3zm77 0c0 1.4.2 1.9.5 1.2.2-.6.2-1.8 0-2.5-.3-.6-.5-.1-.5 1.3zm-39.4 38.7c.6.2 1.8.2 2.5 0 .6-.3.1-.5-1.3-.5-1.4 0-1.9.2-1.2.5zM524.2 258c0 1.4.2 1.9.5 1.2.2-.6.2-1.8 0-2.5-.3-.6-.5-.1-.5 1.3zM406.8 470.7c.7.3 1.6.2 1.9-.1.4-.3-.2-.6-1.3-.5-1.1 0-1.4.3-.6.6z"/><path fill="#80BF40" fill-opacity=".9" d="M599.8 128.7c.6.2 1.8.2 2.5 0 .6-.3.1-.5-1.3-.5-1.4 0-1.9.2-1.2.5zM562.2 167c0 1.4.2 1.9.5 1.2.2-.6.2-1.8 0-2.5-.3-.6-.5-.1-.5 1.3z"/><path fill="#FF8040" d="M288.6 130.9c-4.4 3-6.6 7.2-7.3 14.4l-.6 6.4-6.4.6c-10.6 1-16.3 6.2-16.3 14.7 0 8.6 5.7 13.7 16.3 14.7l6.4.6.6 6.4c1 10.6 6.1 16.3 14.7 16.3s13.7-5.7 14.7-16.3l.6-6.4 6.4-.6c10.6-1 16.3-6.1 16.3-14.7s-5.7-13.7-16.3-14.7l-6.4-.6-.6-6.4c-.7-7.3-3.1-11.9-7.5-14.6-4-2.3-10.9-2.2-14.6.2zm163.1 185.9-68.6 68.7 5.9 37.4c4 25.1 6.6 38.4 7.8 40.5 3.7 6.3 12.9 8.7 19.3 5 2.1-1.2 11-12.5 24.9-31.4l21.6-29.5 34.5-.5c30.4-.4 34.8-.7 37.6-2.3 6.1-3.3 9.1-10.5 6.9-16.6-.7-2.1-9.1-14.7-18.7-28.2-9.6-13.4-17.8-24.9-18.2-25.6-.4-.7 3.7-17.3 9.3-37 5.5-19.7 10-37.6 10-39.8 0-2.2-.8-5.2-1.8-6.7l-1.8-2.7-68.7 68.7z"/><path fill="#80BF40" d="M593.6 130.9c-4.4 3-6.6 7.2-7.3 14.4l-.6 6.4-6.4.6c-10.6 1-16.3 6.2-16.3 14.7s5.6 13.6 16 14.7l6.2.6 15.5-15.4 15.5-15.4-.6-6.3c-.6-7.2-3-11.8-7.4-14.5-4-2.3-10.9-2.2-14.6.2z"/><path fill="#BFBFBF" fill-opacity=".9" d="M438.8 145.7c.6.2 1.8.2 2.5 0 .6-.3.1-.5-1.3-.5-1.4 0-1.9.2-1.2.5zM401.2 184c0 1.4.2 1.9.5 1.2.2-.6.2-1.8 0-2.5-.3-.6-.5-.1-.5 1.3zm77 0c0 1.4.2 1.9.5 1.2.2-.6.2-1.8 0-2.5-.3-.6-.5-.1-.5 1.3zm-254.4 33.7c.7.3 1.6.2 1.9-.1.4-.3-.2-.6-1.3-.5-1.1 0-1.4.3-.6.6zm215 5c.6.2 1.8.2 2.5 0 .6-.3.1-.5-1.3-.5-1.4 0-1.9.2-1.2.5zm-229.7 8.9c0 1.1.3 1.4.6.6.3-.7.2-1.6-.1-1.9-.3-.4-.6.2-.5 1.3zm373.7 58.1c.6.2 1.8.2 2.5 0 .6-.3.1-.5-1.3-.5-1.4 0-1.9.2-1.2.5zM545.2 328c0 1.4.2 1.9.5 1.2.2-.6.2-1.8 0-2.5-.3-.6-.5-.1-.5 1.3zm77 0c0 1.4.2 1.9.5 1.2.2-.6.2-1.8 0-2.5-.3-.6-.5-.1-.5 1.3zm-39.4 38.7c.6.2 1.8.2 2.5 0 .6-.3.1-.5-1.3-.5-1.4 0-1.9.2-1.2.5zm-80 107c.7.3 1.6.2 1.9-.1.4-.3-.2-.6-1.3-.5-1.1 0-1.4.3-.6.6zM489.2 488c0 1.4.2 1.9.5 1.2.2-.6.2-1.8 0-2.5-.3-.6-.5-.1-.5 1.3zm61 56c0 1.4.2 1.9.5 1.2.2-.6.2-1.8 0-2.5-.3-.6-.5-.1-.5 1.3zm-15.4 14.7c.6.2 1.8.2 2.5 0 .6-.3.1-.5-1.3-.5-1.4 0-1.9.2-1.2.5z"/><path fill="#BFBFBF" d="M432.6 147.9c-4.4 3-6.6 7.2-7.3 14.4l-.6 6.4-6.4.6c-10.6 1-16.3 6.2-16.3 14.7 0 8.6 5.7 13.7 16.3 14.7l6.4.6.6 6.4c1 10.6 6.1 16.3 14.7 16.3s13.7-5.7 14.7-16.3l.6-6.4 6.4-.6c10.6-1 16.3-6.1 16.3-14.7s-5.7-13.7-16.3-14.7l-6.4-.6-.6-6.4c-.7-7.3-3.1-11.9-7.5-14.6-4-2.3-10.9-2.2-14.6.2zM216.3 220c-4.1 2.5-6.3 6.8-6.3 12.2 0 8.1 1.2 9.1 34.7 28.2C272 276 276.1 278 280 278c8.4 0 14-5.7 14-14.2 0-8.1-1.2-9.1-34.7-28.2C232 220 227.9 218 224 218c-2.7 0-5.8.8-7.7 2zm360.3 71.9c-4.4 3-6.6 7.2-7.3 14.4l-.6 6.4-6.4.6c-10.6 1-16.3 6.2-16.3 14.7 0 8.6 5.7 13.7 16.3 14.7l6.4.6.6 6.4c1 10.6 6.1 16.3 14.7 16.3s13.7-5.7 14.7-16.3l.6-6.4 6.4-.6c10.6-1 16.3-6.1 16.3-14.7s-5.7-13.7-16.3-14.7l-6.4-.6-.6-6.4c-.7-7.3-3.1-11.9-7.5-14.6-4-2.3-10.9-2.2-14.6.2zM496.3 476c-4.1 2.4-6.3 6.7-6.3 12.2 0 3.7 2.3 8.4 17.6 35.1 19.1 33.5 20.1 34.7 28.2 34.7 8.5 0 14.2-5.6 14.2-14 0-3.9-2-8-17.6-35.3-13.5-23.7-18.4-31.3-20.8-32.8-4.1-2.5-11.1-2.5-15.3.1z"/><path fill="#40BF40" d="M600.5 167c-8.2 8.2-14.7 15-14.5 15 .3 0 7.3-6.8 15.5-15 8.2-8.3 14.7-15 14.5-15-.3 0-7.3 6.7-15.5 15z"/><path fill="#00BF40" d="m601.1 167.3-15.4 15.5.6 6.1c.9 10.3 6.4 16.4 14.7 16.4 8.4 0 13.9-6.2 14.7-16.7l.6-6.3 6.3-.6c10.5-.8 16.7-6.3 16.7-14.7 0-8.4-6.2-13.9-16.6-14.7l-6.2-.5-15.4 15.5z"/><path fill="#FFBF40" fill-opacity=".9" d="M297.1 358.6c0 1.1.3 1.4.6.6.3-.7.2-1.6-.1-1.9-.3-.4-.6.2-.5 1.3z"/><path fill="#FFBF40" d="M371.7 226.5c-4.6 1.6-6.4 3-8.5 6.9-1.5 2.7-1.7 7.6-2 37.6l-.4 34.5-29.5 21.5c-16.6 12.1-30.4 22.8-31.4 24.5-4 6.4-1.5 16.6 4.9 19.9 1.6.8 20 4.2 40.8 7.5l37.9 6.1 68.2-68.3c66.8-66.7 68.2-68.2 66.4-70-4.1-4.2-8.4-3.5-46.5 7.2-19.7 5.6-36.2 10.1-36.6 10.1-.4 0-12-8.1-25.8-17.9-13.8-9.9-25.9-18.4-26.9-18.9-3.5-1.8-6.9-2-10.6-.7z"/><path fill="#80BFFF" fill-opacity=".9" d="M262.2 312c0 1.4.2 1.9.5 1.2.2-.6.2-1.8 0-2.5-.3-.6-.5-.1-.5 1.3zm-93 8c0 1.4.2 1.9.5 1.2.2-.6.2-1.8 0-2.5-.3-.6-.5-.1-.5 1.3zm13.6 14.7c.6.2 1.8.2 2.5 0 .6-.3.1-.5-1.3-.5-1.4 0-1.9.2-1.2.5z"/><path fill="#80BFFF" d="M214.2 301.6c-37.1 4.7-39.6 5.3-42.7 11.4-3.4 6.6-.6 16.3 5.5 19.5 4.2 2.2 9.2 1.9 43.8-2.5 33.9-4.2 36.6-5 39.7-11 2.2-4.2 1.9-10.7-.6-14.6-4.6-7.6-6.5-7.7-45.7-2.8z"/><path fill="#004080" fill-opacity=".8" d="M348.9 381.7c-1.3 1.6-1.2 1.7.4.4 1.6-1.3 2.1-2.1 1.3-2.1-.2 0-1 .8-1.7 1.7z"/><path fill="#004080" d="M249 471.6c-55.8 49.8-104.1 93.1-107.3 96.2-3.6 3.5-7.1 8.2-9 12.2-3 6.1-3.2 7.2-3.2 17.5 0 9.9.3 11.6 2.8 16.9 7.4 15.9 20.9 24.6 38.1 24.7 9.5 0 16.5-2.2 24-7.5 2.7-1.9 35.7-38 75.6-82.7l70.9-79.4-10.7-10.8-10.7-10.7 31.3-31.3 31.3-31.3-14.3-2.2c-7.9-1.2-15-2.2-15.8-2.2-.8 0-47.2 40.8-103 90.6z"/><path fill="#BF8040" d="M383.1 389.6c0 1.1.3 1.4.6.6.3-.7.2-1.6-.1-1.9-.3-.4-.6.2-.5 1.3zm1 6c0 1.1.3 1.4.6.6.3-.7.2-1.6-.1-1.9-.3-.4-.6.2-.5 1.3zm1 6c0 1.1.3 1.4.6.6.3-.7.2-1.6-.1-1.9-.3-.4-.6.2-.5 1.3zm1 7c0 1.1.3 1.4.6.6.3-.7.2-1.6-.1-1.9-.3-.4-.6.2-.5 1.3zm1 6c0 1.1.3 1.4.6.6.3-.7.2-1.6-.1-1.9-.3-.4-.6.2-.5 1.3z"/><path fill="#004080" fill-opacity=".2" d="M140.9 566.7c-1.3 1.6-1.2 1.7.4.4.9-.7 1.7-1.5 1.7-1.7 0-.8-.8-.3-2.1 1.3z"/><path fill="#004080" fill-opacity=".9" d="M345.9 384.7c-1.3 1.6-1.2 1.7.4.4 1.6-1.3 2.1-2.1 1.3-2.1-.2 0-1 .8-1.7 1.7zm-9 8c-1.3 1.6-1.2 1.7.4.4.9-.7 1.7-1.5 1.7-1.7 0-.8-.8-.3-2.1 1.3zm-9 8c-1.3 1.6-1.2 1.7.4.4 1.6-1.3 2.1-2.1 1.3-2.1-.2 0-1 .8-1.7 1.7zm-9.5 8.5-1.9 2.3 2.3-1.9c1.2-1.1 2.2-2.1 2.2-2.3 0-.8-.8-.2-2.6 1.9zm-9.5 8.5c-1.3 1.6-1.2 1.7.4.4 1.6-1.3 2.1-2.1 1.3-2.1-.2 0-1 .8-1.7 1.7zm-9 8c-1.3 1.6-1.2 1.7.4.4 1.6-1.3 2.1-2.1 1.3-2.1-.2 0-1 .8-1.7 1.7zm-9 8c-1.3 1.6-1.2 1.7.4.4 1.6-1.3 2.1-2.1 1.3-2.1-.2 0-1 .8-1.7 1.7zm-10 9c-1.3 1.6-1.2 1.7.4.4 1.6-1.3 2.1-2.1 1.3-2.1-.2 0-1 .8-1.7 1.7zm-9 8c-1.3 1.6-1.2 1.7.4.4 1.6-1.3 2.1-2.1 1.3-2.1-.2 0-1 .8-1.7 1.7zm-9 8c-1.3 1.6-1.2 1.7.4.4 1.6-1.3 2.1-2.1 1.3-2.1-.2 0-1 .8-1.7 1.7zm-9.5 8.5-1.9 2.3 2.3-1.9c2.1-1.8 2.7-2.6 1.9-2.6-.2 0-1.2 1-2.3 2.2zm83 7-1.9 2.3 2.3-1.9c2.1-1.8 2.7-2.6 1.9-2.6-.2 0-1.2 1-2.3 2.2zm-92.5 1.5c-1.3 1.6-1.2 1.7.4.4.9-.7 1.7-1.5 1.7-1.7 0-.8-.8-.3-2.1 1.3zm84 8-2.4 2.8 2.8-2.4c2.5-2.3 3.2-3.1 2.4-3.1-.2 0-1.4 1.2-2.8 2.7zm-93 0c-1.3 1.6-1.2 1.7.4.4.9-.7 1.7-1.5 1.7-1.7 0-.8-.8-.3-2.1 1.3zm-9 8c-1.3 1.6-1.2 1.7.4.4.9-.7 1.7-1.5 1.7-1.7 0-.8-.8-.3-2.1 1.3zm94 1-2.4 2.8 2.8-2.4c2.5-2.3 3.2-3.1 2.4-3.1-.2 0-1.4 1.2-2.8 2.7zm-103.5 7.5-1.9 2.3 2.3-1.9c2.1-1.8 2.7-2.6 1.9-2.6-.2 0-1.2 1-2.3 2.2zm95 2-1.9 2.3 2.3-1.9c2.1-1.8 2.7-2.6 1.9-2.6-.2 0-1.2 1-2.3 2.2zm-104.5 6.5c-1.3 1.6-1.2 1.7.4.4 1.6-1.3 2.1-2.1 1.3-2.1-.2 0-1 .8-1.7 1.7zm96.5 2.5-1.9 2.3 2.3-1.9c2.1-1.8 2.7-2.6 1.9-2.6-.2 0-1.2 1-2.3 2.2zm-105.5 5.5c-1.3 1.6-1.2 1.7.4.4.9-.7 1.7-1.5 1.7-1.7 0-.8-.8-.3-2.1 1.3zm97 4-2.4 2.8 2.8-2.4c2.5-2.3 3.2-3.1 2.4-3.1-.2 0-1.4 1.2-2.8 2.7zm-106.5 4.5-1.9 2.3 2.3-1.9c1.2-1.1 2.2-2.1 2.2-2.3 0-.8-.8-.2-2.6 1.9zm98.5 4.5-2.4 2.8 2.8-2.4c2.5-2.3 3.2-3.1 2.4-3.1-.2 0-1.4 1.2-2.8 2.7zm-108 4c-1.3 1.6-1.2 1.7.4.4.9-.7 1.7-1.5 1.7-1.7 0-.8-.8-.3-2.1 1.3zm99.5 5.5-1.9 2.3 2.3-1.9c1.2-1.1 2.2-2.1 2.2-2.3 0-.8-.8-.2-2.6 1.9zm-108.5 2.5c-1.3 1.6-1.2 1.7.4.4.9-.7 1.7-1.5 1.7-1.7 0-.8-.8-.3-2.1 1.3zm100.5 6.5-1.9 2.3 2.3-1.9c1.2-1.1 2.2-2.1 2.2-2.3 0-.8-.8-.2-2.6 1.9zm-109.5 1.5c-1.3 1.6-1.2 1.7.4.4.9-.7 1.7-1.5 1.7-1.7 0-.8-.8-.3-2.1 1.3zm101 8-2.4 2.8 2.8-2.4c2.5-2.3 3.2-3.1 2.4-3.1-.2 0-1.4 1.2-2.8 2.7zm-110.5.5-1.9 2.3 2.3-1.9c2.1-1.8 2.7-2.6 1.9-2.6-.2 0-1.2 1-2.3 2.2zm-11 10-2.9 3.3 3.3-2.9c1.7-1.7 3.2-3.1 3.2-3.3 0-.8-.8-.1-3.6 2.9zm113-1-1.9 2.3 2.3-1.9c1.2-1.1 2.2-2.1 2.2-2.3 0-.8-.8-.2-2.6 1.9zm-8 9-1.9 2.3 2.3-1.9c2.1-1.8 2.7-2.6 1.9-2.6-.2 0-1.2 1-2.3 2.2zm-8.5 9.5-2.4 2.8 2.8-2.4c2.5-2.3 3.2-3.1 2.4-3.1-.2 0-1.4 1.2-2.8 2.7zm-8.5 9.5-1.9 2.3 2.3-1.9c2.1-1.8 2.7-2.6 1.9-2.6-.2 0-1.2 1-2.3 2.2zM128.2 598c0 1.9.2 2.7.5 1.7.2-.9.2-2.5 0-3.5-.3-.9-.5-.1-.5 1.8zm92.2 6.2-1.9 2.3 2.3-1.9c2.1-1.8 2.7-2.6 1.9-2.6-.2 0-1.2 1-2.3 2.2zm-8 9-1.9 2.3 2.3-1.9c2.1-1.8 2.7-2.6 1.9-2.6-.2 0-1.2 1-2.3 2.2zm-8.5 9.5-2.4 2.8 2.8-2.4c2.5-2.3 3.2-3.1 2.4-3.1-.2 0-1.4 1.2-2.8 2.7zm-8 8c-1.3 1.6-1.2 1.7.4.4.9-.7 1.7-1.5 1.7-1.7 0-.8-.8-.3-2.1 1.3zm-28.6 9c.9.2 2.3.2 3 0 .6-.3-.1-.5-1.8-.5-1.6 0-2.2.2-1.2.5zm5.5 0c.7.3 1.6.2 1.9-.1.4-.3-.2-.6-1.3-.5-1.1 0-1.4.3-.6.6z"/><path fill="#004080" fill-opacity=".5" d="M199.9 627.7c-1.3 1.6-1.2 1.7.4.4.9-.7 1.7-1.5 1.7-1.7 0-.8-.8-.3-2.1 1.3z"/><path fill="navy" d="m350.5 417-31 31 11 10.8 11 10.7-10.5-10.8-10.5-10.7 31-31c17-17.1 30.8-31 30.5-31-.3 0-14.5 14-31.5 31z"/><path fill="#000040" d="M351 417.5 320.5 448l10.5 10.4 10.5 10.5 20.5-23c11.3-12.6 21.5-24.3 22.8-25.9l2.3-2.9-2.3-15c-1.2-8.3-2.5-15.1-2.8-15.1-.3 0-14.2 13.7-31 30.5z"/><path fill="#000040" fill-opacity=".9" d="M376.9 428.7c-1.3 1.6-1.2 1.7.4.4 1.6-1.3 2.1-2.1 1.3-2.1-.2 0-1 .8-1.7 1.7zm-8 9c-1.3 1.6-1.2 1.7.4.4.9-.7 1.7-1.5 1.7-1.7 0-.8-.8-.3-2.1 1.3zm-8 9c-1.3 1.6-1.2 1.7.4.4 1.6-1.3 2.1-2.1 1.3-2.1-.2 0-1 .8-1.7 1.7zm-8.5 9.5-1.9 2.3 2.3-1.9c1.2-1.1 2.2-2.1 2.2-2.3 0-.8-.8-.2-2.6 1.9zm-8 9-1.9 2.3 2.3-1.9c2.1-1.8 2.7-2.6 1.9-2.6-.2 0-1.2 1-2.3 2.2z"/><path fill="#FF4040" fill-opacity=".9" d="M599.8 433.7c.6.2 1.8.2 2.5 0 .6-.3.1-.5-1.3-.5-1.4 0-1.9.2-1.2.5zM562.2 472c0 1.4.2 1.9.5 1.2.2-.6.2-1.8 0-2.5-.3-.6-.5-.1-.5 1.3zm77 0c0 1.4.2 1.9.5 1.2.2-.6.2-1.8 0-2.5-.3-.6-.5-.1-.5 1.3zm-39.4 38.7c.6.2 1.8.2 2.5 0 .6-.3.1-.5-1.3-.5-1.4 0-1.9.2-1.2.5z"/><path fill="#FF4040" d="M593.6 435.9c-4.4 3-6.6 7.2-7.3 14.4l-.6 6.4-6.4.6c-10.6 1-16.3 6.2-16.3 14.7 0 8.6 5.7 13.7 16.3 14.7l6.4.6.6 6.4c1 10.6 6.1 16.3 14.7 16.3s13.7-5.7 14.7-16.3l.6-6.4 6.4-.6c10.6-1 16.3-6.1 16.3-14.7s-5.7-13.7-16.3-14.7l-6.4-.6-.6-6.4c-.7-7.3-3.1-11.9-7.5-14.6-4-2.3-10.9-2.2-14.6.2z"/><path fill="#4080FF" fill-opacity=".9" d="M454.8 505.7c.6.2 1.8.2 2.5 0 .6-.3.1-.5-1.3-.5-1.4 0-1.9.2-1.2.5zm15.4 14.3c0 1.4.2 1.9.5 1.2.2-.6.2-1.8 0-2.5-.3-.6-.5-.1-.5 1.3zm-37 64c0 1.4.2 1.9.5 1.2.2-.6.2-1.8 0-2.5-.3-.6-.5-.1-.5 1.3zm13.6 14.7c.7.3 1.6.2 1.9-.1.4-.3-.2-.6-1.3-.5-1.1 0-1.4.3-.6.6z"/><path fill="#4080FF" d="M448.8 507.5c-5.8 3.2-6.6 6.1-10.8 39.7-4.6 36.1-4.8 40-2 44.5 5.3 8.7 19.9 8.2 24.6-.9 1.6-3 9.4-61.2 9.4-70.1 0-6-2-9.9-6.3-12.6-4-2.5-10.9-2.7-14.9-.6z"/></svg>