<svg xmlns="http://www.w3.org/2000/svg" version="1.0" viewBox="0 0 768 768"><path fill="#404040" fill-opacity=".1" d="M209.9 195.7c-1.3 1.6-1.2 1.7.4.4.9-.7 1.7-1.5 1.7-1.7 0-.8-.8-.3-2.1 1.3zm-15 15c-1.3 1.6-1.2 1.7.4.4.9-.7 1.7-1.5 1.7-1.7 0-.8-.8-.3-2.1 1.3zm.6 347.3c1 1.1 2 2 2.3 2 .3 0-.3-.9-1.3-2s-2-2-2.3-2c-.3 0 .3.9 1.3 2zm14 14c1 1.1 2 2 2.3 2 .3 0-.3-.9-1.3-2s-2-2-2.3-2c-.3 0 .3.9 1.3 2z"/><path fill="#404040" fill-opacity=".2" d="M206.9 198.7c-1.3 1.6-1.2 1.7.4.4 1.6-1.3 2.1-2.1 1.3-2.1-.2 0-1 .8-1.7 1.7zm-9 9c-1.3 1.6-1.2 1.7.4.4.9-.7 1.7-1.5 1.7-1.7 0-.8-.8-.3-2.1 1.3zm.1 352.7c0 .2.8 1 1.8 1.7 1.5 1.3 1.6 1.2.3-.4s-2.1-2.1-2.1-1.3zm7 7c0 .2.8 1 1.8 1.7 1.5 1.3 1.6 1.2.3-.4s-2.1-2.1-2.1-1.3z"/><path fill="#404040" fill-opacity=".3" d="M203.9 201.7c-1.3 1.6-1.2 1.7.4.4.9-.7 1.7-1.5 1.7-1.7 0-.8-.8-.3-2.1 1.3zM202.5 565c1 1.1 2 2 2.3 2 .3 0-.3-.9-1.3-2s-2-2-2.3-2c-.3 0 .3.9 1.3 2z"/><path fill="#404040" fill-opacity=".8" d="M373.8 128.7c.6.2 1.8.2 2.5 0 .6-.3.1-.5-1.3-.5-1.4 0-1.9.2-1.2.5zm18 0c.6.2 1.8.2 2.5 0 .6-.3.1-.5-1.3-.5-1.4 0-1.9.2-1.2.5zM128.1 374.6c0 1.1.3 1.4.6.6.3-.7.2-1.6-.1-1.9-.3-.4-.6.2-.5 1.3zm0 19c0 1.1.3 1.4.6.6.3-.7.2-1.6-.1-1.9-.3-.4-.6.2-.5 1.3zM194 555.4c0 .2.8 1 1.8 1.7 1.5 1.3 1.6 1.2.3-.4s-2.1-2.1-2.1-1.3z"/><path fill="#404040" fill-opacity=".9" d="M378.3 128.7c.9.2 2.3.2 3 0 .6-.3-.1-.5-1.8-.5-1.6 0-2.2.2-1.2.5zm9 0c.9.2 2.3.2 3 0 .6-.3-.1-.5-1.8-.5-1.6 0-2.2.2-1.2.5zm-170.4 62c-1.3 1.6-1.2 1.7.4.4.9-.7 1.7-1.5 1.7-1.7 0-.8-.8-.3-2.1 1.3zM203 203.5c-4.1 4.1-7.2 7.5-6.9 7.5.2 0 3.8-3.4 7.9-7.5 4.1-4.1 7.2-7.5 6.9-7.5-.2 0-3.8 3.4-7.9 7.5zm-13.1 14.2c-1.3 1.6-1.2 1.7.4.4 1.6-1.3 2.1-2.1 1.3-2.1-.2 0-1 .8-1.7 1.7zM128.3 384c0 4.7.2 6.6.4 4.2.2-2.3.2-6.1 0-8.5-.2-2.3-.4-.4-.4 4.3zM189 549.4c0 .2.8 1 1.8 1.7 1.5 1.3 1.6 1.2.3-.4s-2.1-2.1-2.1-1.3zm14.5 15.6c3.8 3.8 7.2 7 7.4 7 .3 0-2.6-3.2-6.4-7-3.8-3.9-7.2-7-7.4-7-.3 0 2.6 3.1 6.4 7zm12.5 11.4c0 .2.8 1 1.8 1.7 1.5 1.3 1.6 1.2.3-.4s-2.1-2.1-2.1-1.3z"/><path fill="#404040" d="M369.5 129.1c-69.8 3.7-135.6 36.9-181.7 91.9-21.7 25.7-39.8 59.9-49.3 92.6-3.4 11.7-7.1 30.6-8.4 42.6-1.4 12.5-1.4 43.1 0 55.6 5 46.5 24.6 93.8 53.9 130.7 8.7 10.9 25.6 28.1 37 37.7 20.2 17 49.8 34.3 74.4 43.3 10.4 3.8 33.7 10.5 36.7 10.5 1.3 0 3-2.6 6-9 2.7-5.7 4.8-9 5.8-9.1.9 0-2.4-.9-7.3-1.9-45-9.5-84.7-30.9-117.4-63.3-19.7-19.4-33.6-38.6-45.7-63.2-14.8-30-22.5-59.6-24.2-93.2l-.6-12.6 2.5.6c5.3 1.4 33.9 5.7 47.3 7.1 21 2.4 37.7 3.5 60.2 4.3l20.3.6v2.7c0 4.4 4.5 21 8 29.2 9.6 23.3 31.4 45.2 54.9 55.4 12.5 5.4 22 7.5 36.2 8.1 12.8.6 27.1-.3 25.2-1.5-.7-.5.9-4.9 4.1-11.9l5.1-11.2 6.1-2.6c14.2-6.1 28.2-18 36.9-31.4 13.6-21 17.5-44.4 11.4-68.9-2.3-9.4-2.5-8.5 4.6-23.3l4.2-8.6-4.6-6.9c-6-8.9-18.8-21.6-27.9-27.7-36.2-24.2-83.5-24-118.9.5-23.4 16.1-40.3 42.6-44.6 69.7l-1.1 7.4-21.6-.6c-35.5-1.1-76.4-5.4-101.7-10.9l-5.1-1.1.5-3.6c4.2-30.3 10.3-50.9 22.3-75.6 11.8-24.3 27.4-45.8 47.2-65 14-13.7 19.3-18 34.1-27.9 28.9-19.3 61.6-31.8 97.2-37.2 16.4-2.5 48.3-2.5 65 0 42.1 6.3 81.6 23.4 113.5 49.1 4.7 3.7 7.7 5.9 6.7 4.7-1.8-2-1.8-2.2 2.4-11.2l4.3-9.3-2.9-2.4c-1.7-1.3-9.1-6.5-16.5-11.4-45.2-30.3-98.7-44.7-154.5-41.8zm25 213.4c21.3 5.5 35.2 26.8 31.7 48.1-4.7 28.4-35.3 44.3-61.1 31.8-7.2-3.5-16-12.3-19.5-19.6-15.9-32.6 13.9-69.3 48.9-60.3zm51.9 53.2c-1.7 8.1-5.1 16.1-9.5 22.8-2.7 4.1-5.1 7.5-5.4 7.5-.4 0-.4-.3-.2-.8.2-.4 3.7-7.8 7.7-16.5 4-8.6 7.5-15.7 7.7-15.7.2 0 .1 1.2-.3 2.7zM549 217.5c5.2 5.2 9.7 9.5 10 9.5.2 0-3.8-4.3-9-9.5s-9.7-9.5-10-9.5c-.2 0 3.8 4.3 9 9.5zm13 14c1.3 1.4 2.6 2.5 2.8 2.5.3 0-.5-1.1-1.8-2.5s-2.6-2.5-2.8-2.5c-.3 0 .5 1.1 1.8 2.5zm4 4.9c0 .2.8 1 1.8 1.7 1.5 1.3 1.6 1.2.3-.4s-2.1-2.1-2.1-1.3zm9 12c0 .2.8 1 1.8 1.7 1.5 1.3 1.6 1.2.3-.4s-2.1-2.1-2.1-1.3zm-86.9 119.2c0 1.1.3 1.4.6.6.3-.7.2-1.6-.1-1.9-.3-.4-.6.2-.5 1.3zm89.7.1c.7.3 1.6.2 1.9-.1.4-.3-.2-.6-1.3-.5-1.1 0-1.4.3-.6.6zm-8 1c.7.3 1.6.2 1.9-.1.4-.3-.2-.6-1.3-.5-1.1 0-1.4.3-.6.6zm-9 1c.7.3 1.6.2 1.9-.1.4-.3-.2-.6-1.3-.5-1.1 0-1.4.3-.6.6zm-10.5 1c.9.2 2.3.2 3 0 .6-.3-.1-.5-1.8-.5-1.6 0-2.2.2-1.2.5zm-13 1c.9.2 2.3.2 3 0 .6-.3-.1-.5-1.8-.5-1.6 0-2.2.2-1.2.5zm-16.5 1c1.2.2 3 .2 4 0 .9-.3-.1-.5-2.3-.4-2.2 0-3 .2-1.7.4zm-29 1c1.7.2 4.7.2 6.5 0 1.7-.2.3-.4-3.3-.4-3.6 0-5 .2-3.2.4zm77 16c.7.3 1.6.2 1.9-.1.4-.3-.2-.6-1.3-.5-1.1 0-1.4.3-.6.6zm-10 1c.7.3 1.6.2 1.9-.1.4-.3-.2-.6-1.3-.5-1.1 0-1.4.3-.6.6zm-12 1c.6.2 1.8.2 2.5 0 .6-.3.1-.5-1.3-.5-1.4 0-1.9.2-1.2.5zm-14 1c.6.2 1.8.2 2.5 0 .6-.3.1-.5-1.3-.5-1.4 0-1.9.2-1.2.5zm-20.5 1c.9.2 2.5.2 3.5 0 .9-.3.1-.5-1.8-.5-1.9 0-2.7.2-1.7.5zm105.9 4.8c0 1.6.2 2.2.5 1.2.2-.9.2-2.3 0-3-.3-.6-.5.1-.5 1.8zm-153.3 53.2c-1.3 1.6-1.2 1.7.4.4 1.6-1.3 2.1-2.1 1.3-2.1-.2 0-1 .8-1.7 1.7zm-7 8-3.4 3.8 3.8-3.4c2-1.9 3.7-3.6 3.7-3.8 0-.8-.8 0-4.1 3.4zm-8 7c-1.3 1.6-1.2 1.7.4.4.9-.7 1.7-1.5 1.7-1.7 0-.8-.8-.3-2.1 1.3zm112 70c-1.3 1.6-1.2 1.7.4.4.9-.7 1.7-1.5 1.7-1.7 0-.8-.8-.3-2.1 1.3zm-12.4 13.5-7 7.3 7.3-7c6.7-6.4 7.7-7.5 6.9-7.5-.1 0-3.4 3.3-7.2 7.2zm-13.6 12.5c-1.3 1.6-1.2 1.7.4.4 1.6-1.3 2.1-2.1 1.3-2.1-.2 0-1 .8-1.7 1.7zm-6 5c-1.3 1.6-1.2 1.7.4.4 1.6-1.3 2.1-2.1 1.3-2.1-.2 0-1 .8-1.7 1.7zm-173.1 50c.7.3 1.6.2 1.9-.1.4-.3-.2-.6-1.3-.5-1.1 0-1.4.3-.6.6zm10.5 1c.9.2 2.3.2 3 0 .6-.3-.1-.5-1.8-.5-1.6 0-2.2.2-1.2.5zm30.5 0c.6.2 1.8.2 2.5 0 .6-.3.1-.5-1.3-.5-1.4 0-1.9.2-1.2.5z"/><path fill="#804040" d="M377.3 149.7c3.7.2 9.6.2 13 0 3.4-.2.4-.3-6.8-.3-7.1 0-9.9.1-6.2.3zm-17.5 1c.6.2 1.8.2 2.5 0 .6-.3.1-.5-1.3-.5-1.4 0-1.9.2-1.2.5zm46 0c.6.2 1.8.2 2.5 0 .6-.3.1-.5-1.3-.5-1.4 0-1.9.2-1.2.5zm-54 1c.7.3 1.6.2 1.9-.1.4-.3-.2-.6-1.3-.5-1.1 0-1.4.3-.6.6zm63 0c.7.3 1.6.2 1.9-.1.4-.3-.2-.6-1.3-.5-1.1 0-1.4.3-.6.6zm-174.9 47c-1.3 1.6-1.2 1.7.4.4 1.6-1.3 2.1-2.1 1.3-2.1-.2 0-1 .8-1.7 1.7zm-12 10c-1.3 1.6-1.2 1.7.4.4.9-.7 1.7-1.5 1.7-1.7 0-.8-.8-.3-2.1 1.3zm311.6.3c1 1.1 2 2 2.3 2 .3 0-.3-.9-1.3-2s-2-2-2.3-2c-.3 0 .3.9 1.3 2zm17.5 17.4c0 .2.8 1 1.8 1.7 1.5 1.3 1.6 1.2.3-.4s-2.1-2.1-2.1-1.3zm-349.6 2.8-1.9 2.3 2.3-1.9c2.1-1.8 2.7-2.6 1.9-2.6-.2 0-1.2 1-2.3 2.2zm-5.5 6.5c-1.3 1.6-1.2 1.7.4.4.9-.7 1.7-1.5 1.7-1.7 0-.8-.8-.3-2.1 1.3zm-4 5c-1.3 1.6-1.2 1.7.4.4.9-.7 1.7-1.5 1.7-1.7 0-.8-.8-.3-2.1 1.3zm178.9 37c1.2.2 3.2.2 4.5 0 1.2-.2.2-.4-2.3-.4s-3.5.2-2.2.4zm10 0c1.2.2 3.2.2 4.5 0 1.2-.2.2-.4-2.3-.4s-3.5.2-2.2.4zm-72.4 25.5-1.9 2.3 2.3-1.9c2.1-1.8 2.7-2.6 1.9-2.6-.2 0-1.2 1-2.3 2.2zm136.6-1.8c0 .2.8 1 1.8 1.7 1.5 1.3 1.6 1.2.3-.4s-2.1-2.1-2.1-1.3zm-147.6 12.8-1.9 2.3 2.3-1.9c1.2-1.1 2.2-2.1 2.2-2.3 0-.8-.8-.2-2.6 1.9zm159.6-.8c0 .2.8 1 1.8 1.7 1.5 1.3 1.6 1.2.3-.4s-2.1-2.1-2.1-1.3zm-311.9 39.2c0 1.1.3 1.4.6.6.3-.7.2-1.6-.1-1.9-.3-.4-.6.2-.5 1.3zm7.7 10.1c.7.3 1.6.2 1.9-.1.4-.3-.2-.6-1.3-.5-1.1 0-1.4.3-.6.6zm120.3 2.9c0 1.1.3 1.4.6.6.3-.7.2-1.6-.1-1.9-.3-.4-.6.2-.5 1.3zm-102.3.1c.7.3 1.6.2 1.9-.1.4-.3-.2-.6-1.3-.5-1.1 0-1.4.3-.6.6zm6 1c.6.2 1.8.2 2.5 0 .6-.3.1-.5-1.3-.5-1.4 0-1.9.2-1.2.5zm8 1c.7.3 1.6.2 1.9-.1.4-.3-.2-.6-1.3-.5-1.1 0-1.4.3-.6.6zm8 1c.6.2 1.8.2 2.5 0 .6-.3.1-.5-1.3-.5-1.4 0-1.9.2-1.2.5zm368 0c.7.3 1.6.2 1.9-.1.4-.3-.2-.6-1.3-.5-1.1 0-1.4.3-.6.6zm-359 1c.6.2 1.8.2 2.5 0 .6-.3.1-.5-1.3-.5-1.4 0-1.9.2-1.2.5zm349 0c.6.2 1.8.2 2.5 0 .6-.3.1-.5-1.3-.5-1.4 0-1.9.2-1.2.5zm-336.5 1c.9.2 2.3.2 3 0 .6-.3-.1-.5-1.8-.5-1.6 0-2.2.2-1.2.5zm325 0c.9.2 2.3.2 3 0 .6-.3-.1-.5-1.8-.5-1.6 0-2.2.2-1.2.5zm-313 1c.9.2 2.5.2 3.5 0 .9-.3.1-.5-1.8-.5-1.9 0-2.7.2-1.7.5zm299 0c.9.2 2.5.2 3.5 0 .9-.3.1-.5-1.8-.5-1.9 0-2.7.2-1.7.5zm-282 1c1.5.2 3.9.2 5.5 0 1.5-.2.2-.4-2.8-.4s-4.3.2-2.7.4zm262 0c1.5.2 3.9.2 5.5 0 1.5-.2.2-.4-2.8-.4s-4.3.2-2.7.4z"/><path fill="#BF4040" d="M353.5 151.5c-78.6 11.1-145.1 58.9-179.6 129-10.8 21.9-17.6 43.3-21.4 66.5-2.1 13.4-2.1 13.6 1.8 14.3 31.6 5.5 43.6 7.1 69.2 9.1 9.9.8 26.2 1.8 36.2 2.2l18.2.7.5-2.9c2.2-11.3 6-24.3 9-30.8 12.2-26.4 34.7-47.1 61.6-56.4 12.5-4.3 21-5.7 35-5.7s22.5 1.4 35 5.7c25.7 8.9 47.9 28.6 60.4 53.6 3.5 6.9 8.2 21.4 9.1 27.8 1.3 9.5-.4 8.8 17.8 8 8.9-.4 16.2-.8 16.3-.9 1-1.2 45.4-97.5 45.4-98.5 0-5.8-10.5-34.4-18.1-49.2-2.3-4.7-4.3-8.8-4.3-9.3-.1-.4-3.2-3.5-7.1-6.8-33.9-29.4-72.7-47.7-117.5-55.5-13.2-2.3-53.8-2.8-67.5-.9z"/><path fill="#004040" fill-opacity=".1" d="M571 209.4c0 .2.8 1 1.8 1.7 1.5 1.3 1.6 1.2.3-.4s-2.1-2.1-2.1-1.3z"/><path fill="#004040" fill-opacity=".2" d="M568 206.4c0 .2.8 1 1.8 1.7 1.5 1.3 1.6 1.2.3-.4s-2.1-2.1-2.1-1.3z"/><path fill="#004040" fill-opacity=".9" d="M563.5 203c3.8 3.8 7.2 7 7.4 7 .3 0-2.6-3.2-6.4-7-3.8-3.9-7.2-7-7.4-7-.3 0 2.6 3.1 6.4 7zm12.5 13.4c0 .2.8 1 1.8 1.7 1.5 1.3 1.6 1.2.3-.4s-2.1-2.1-2.1-1.3zM378.3 639.7c.9.2 2.3.2 3 0 .6-.3-.1-.5-1.8-.5-1.6 0-2.2.2-1.2.5zm9 0c.9.2 2.3.2 3 0 .6-.3-.1-.5-1.8-.5-1.6 0-2.2.2-1.2.5z"/><g fill="#004040" stroke-width="0"><path d="m539.1 194-4.1 8.9 13.8 13.8c31.8 31.9 53.1 69.1 63.2 110.6 3.2 12.8 6.4 32.6 5.5 33.5-.9.9-24.3 4.9-41.5 7.1-17.8 2.3-47.3 4.6-71.6 5.6l-15.2.6-.7-5.3c-1.6-11.5-11.7-39.3-13.5-37.1-.3.4-2.8 5.5-5.4 11.2l-4.8 10.4 2 8.6c4.9 20 3.7 36.7-4.1 55.8-7.7 19-25.2 36.7-44.1 44.8l-6.1 2.6-5.1 11.2c-3.8 8.2-4.8 11.3-3.8 11.5 2.6.6 16.9-3.9 26-8.3 30.6-14.7 52.9-44.6 58.5-78.4l1.1-6.8 18.7-.7c35.4-1.3 73.1-4.9 98.5-9.5 5.9-1.1 11-2.1 11.1-2.3.2-.2 4.5-9.2 9.5-20l9.3-19.8-2.8-12.2c-8.8-39.9-27.4-78-53.3-108.9-7.8-9.3-31.8-33.1-35.2-34.9-1.5-.8-2.3.4-5.9 8z"/><path d="M439 408.7c-4 8.7-7.5 16.1-7.7 16.5-.2.5-.2.8.2.8 1.4 0 10.6-15.7 12.3-21.3 2.3-7 3.4-11.7 2.9-11.7-.2 0-3.7 7.1-7.7 15.7zm118.9 133c-1.3 1.6-1.2 1.7.4.4 1.6-1.3 2.1-2.1 1.3-2.1-.2 0-1 .8-1.7 1.7zm-17 17c-1.3 1.6-1.2 1.7.4.4.9-.7 1.7-1.5 1.7-1.7 0-.8-.8-.3-2.1 1.3zm-15.2 12.8c-23.5 18-53.7 32.5-83.2 40.1-18.3 4.7-31.3 6.4-52 7.1-16.3.5-23.3.1-43.1-2.3l-5-.6-4.2 9c-2.3 5-4.2 9.2-4.2 9.5 0 1 22.6 3.9 35.9 4.6 42.2 2.2 81.2-5.2 119.5-22.5 6.7-3 15-7.1 18.5-9.2l6.4-3.7 8.3-17.8c4.5-9.7 8.1-17.7 8-17.7-.2 0-2.4 1.6-4.9 3.5z"/></g><path fill="#004040" fill-opacity=".8" d="M571 210.4c0 .2.8 1 1.8 1.7 1.5 1.3 1.6 1.2.3-.4s-2.1-2.1-2.1-1.3zM374.8 639.7c.7.3 1.6.2 1.9-.1.4-.3-.2-.6-1.3-.5-1.1 0-1.4.3-.6.6zm17 0c.7.3 1.6.2 1.9-.1.4-.3-.2-.6-1.3-.5-1.1 0-1.4.3-.6.6z"/><path fill="#004040" fill-opacity=".3" d="M565.5 204c1 1.1 2 2 2.3 2 .3 0-.3-.9-1.3-2s-2-2-2.3-2c-.3 0 .3.9 1.3 2z"/><path fill="#BF4000" d="M546.8 218c.9 1.6 1.9 2.5 2.1 1.9.2-.6 1.7.2 3.5 1.8 1.7 1.5 1.1.6-1.4-2-5.1-5.4-6.7-6.1-4.2-1.7zm21.3 55c-.1.9-10.2 23.2-22.6 49.7-12.4 26.5-22.5 48.5-22.5 48.8 0 .5 3.1.3 30.9-2 9.5-.8 17.6-1.7 18.1-2 1.6-1 3.5-23.8 3.4-40.5-.1-12.4-.8-21.6-2.3-31.5-2-13.3-4.8-25.8-5-22.5z"/><path fill="#BF0000" d="M549.3 220.5c.3 1.1 3 7.4 6 14.1 9 19.8 15 40.7 18.4 63.9 2.1 14.8 2.2 46.5.1 60.2-1.4 9.2-1.4 9.2.6 8.8 1.2-.2 7.3-1.2 13.6-2 6.3-.9 15.3-2.4 20-3.3l8.5-1.7-.3-5.5c-.5-8.2-4.8-28.4-8.8-40.9-7-22.1-16.5-42-29.5-61.2-10-15-30.1-37.6-28.6-32.4z"/><path fill="maroon" d="M616.2 354c0 1.4.2 1.9.5 1.2.2-.6.2-1.8 0-2.5-.3-.6-.5-.1-.5 1.3zm-9.4 8.7c.7.3 1.6.2 1.9-.1.4-.3-.2-.6-1.3-.5-1.1 0-1.4.3-.6.6zm-25 4c.7.3 1.6.2 1.9-.1.4-.3-.2-.6-1.3-.5-1.1 0-1.4.3-.6.6zm-7 1c.7.3 1.6.2 1.9-.1.4-.3-.2-.6-1.3-.5-1.1 0-1.4.3-.6.6z"/><path fill="#000040" fill-opacity=".2" d="M567.9 561.7c-1.3 1.6-1.2 1.7.4.4 1.6-1.3 2.1-2.1 1.3-2.1-.2 0-1 .8-1.7 1.7z"/><path fill="#400040" d="M591.8 365.7c.7.3 1.6.2 1.9-.1.4-.3-.2-.6-1.3-.5-1.1 0-1.4.3-.6.6z"/><path fill="#000040" fill-opacity=".1" d="m571.4 558.2-1.9 2.3 2.3-1.9c1.2-1.1 2.2-2.1 2.2-2.3 0-.8-.8-.2-2.6 1.9zm-14 14-1.9 2.3 2.3-1.9c1.2-1.1 2.2-2.1 2.2-2.3 0-.8-.8-.2-2.6 1.9z"/><path fill="gray" d="M379.8 341.7c.6.2 1.8.2 2.5 0 .6-.3.1-.5-1.3-.5-1.4 0-1.9.2-1.2.5zm6 0c.6.2 1.8.2 2.5 0 .6-.3.1-.5-1.3-.5-1.4 0-1.9.2-1.2.5zM341.2 381c0 1.4.2 1.9.5 1.2.2-.6.2-1.8 0-2.5-.3-.6-.5-.1-.5 1.3zm85.1 3c0 3 .2 4.3.4 2.7.2-1.5.2-3.9 0-5.5-.2-1.5-.4-.2-.4 2.8zm-276.5-1.3c.7.3 1.6.2 1.9-.1.4-.3-.2-.6-1.3-.5-1.1 0-1.4.3-.6.6zm468 4c.5 8.3.9 9 1.1 2 0-3.7-.2-6.7-.7-6.7-.4 0-.6 2.1-.4 4.7zm-276.6.3c0 1.4.2 1.9.5 1.2.2-.6.2-1.8 0-2.5-.3-.6-.5-.1-.5 1.3zm253.6-.3c.7.3 1.6.2 1.9-.1.4-.3-.2-.6-1.3-.5-1.1 0-1.4.3-.6.6zm-415 1c.7.3 1.6.2 1.9-.1.4-.3-.2-.6-1.3-.5-1.1 0-1.4.3-.6.6zm408 0c.7.3 1.6.2 1.9-.1.4-.3-.2-.6-1.3-.5-1.1 0-1.4.3-.6.6zm-400 1c.7.3 1.6.2 1.9-.1.4-.3-.2-.6-1.3-.5-1.1 0-1.4.3-.6.6zm393 0c.7.3 1.6.2 1.9-.1.4-.3-.2-.6-1.3-.5-1.1 0-1.4.3-.6.6zM149.3 394c0 2.5.2 3.5.4 2.2.2-1.2.2-3.2 0-4.5-.2-1.2-.4-.2-.4 2.3zm55.5-3.3c.7.3 1.6.2 1.9-.1.4-.3-.2-.6-1.3-.5-1.1 0-1.4.3-.6.6zm357 0c.7.3 1.6.2 1.9-.1.4-.3-.2-.6-1.3-.5-1.1 0-1.4.3-.6.6zm-347 1c.6.2 1.8.2 2.5 0 .6-.3.1-.5-1.3-.5-1.4 0-1.9.2-1.2.5zm337 0c.7.3 1.6.2 1.9-.1.4-.3-.2-.6-1.3-.5-1.1 0-1.4.3-.6.6zm-323.5 1c.9.2 2.3.2 3 0 .6-.3-.1-.5-1.8-.5-1.6 0-2.2.2-1.2.5zm309.5 0c.6.2 1.8.2 2.5 0 .6-.3.1-.5-1.3-.5-1.4 0-1.9.2-1.2.5zm-292 1c1.2.2 3 .2 4 0 .9-.3-.1-.5-2.3-.4-2.2 0-3 .2-1.7.4zm274.5 0c.9.2 2.5.2 3.5 0 .9-.3.1-.5-1.8-.5-1.9 0-2.7.2-1.7.5zm-248.3.7c0 .2 1.5.6 3.4.8 1.9.2 3.2 0 3-.4-.5-.8-6.4-1.2-6.4-.4zm217.6.4c-.2.4 1.1.6 3 .4 1.9-.2 3.4-.6 3.4-.8 0-.8-5.9-.4-6.4.4zm127.5 11.8c0 1.1.3 1.4.6.6.3-.7.2-1.6-.1-1.9-.3-.4-.6.2-.5 1.3zM150.2 408c0 1.4.2 1.9.5 1.2.2-.6.2-1.8 0-2.5-.3-.6-.5-.1-.5 1.3zm.9 8.6c0 1.1.3 1.4.6.6.3-.7.2-1.6-.1-1.9-.3-.4-.6.2-.5 1.3zm203.9-1.2c0 .2.8 1 1.8 1.7 1.5 1.3 1.6 1.2.3-.4s-2.1-2.1-2.1-1.3zm26.3 11.3c1.5.2 3.9.2 5.5 0 1.5-.2.2-.4-2.8-.4s-4.3.2-2.7.4zM303 453.4c0 .2.8 1 1.8 1.7 1.5 1.3 1.6 1.2.3-.4s-2.1-2.1-2.1-1.3zm159.9 1.3c-1.3 1.6-1.2 1.7.4.4.9-.7 1.7-1.5 1.7-1.7 0-.8-.8-.3-2.1 1.3zM313 463.4c0 .2.8 1 1.8 1.7 1.5 1.3 1.6 1.2.3-.4s-2.1-2.1-2.1-1.3zm139.9 1.3c-1.3 1.6-1.2 1.7.4.4 1.6-1.3 2.1-2.1 1.3-2.1-.2 0-1 .8-1.7 1.7zm-73.1 26c2.3.2 6.1.2 8.5 0 2.3-.2.4-.4-4.3-.4s-6.6.2-4.2.4zM207 538.4c0 .2.8 1 1.8 1.7 1.5 1.3 1.6 1.2.3-.4s-2.1-2.1-2.1-1.3zm351.9 1.3c-1.3 1.6-1.2 1.7.4.4.9-.7 1.7-1.5 1.7-1.7 0-.8-.8-.3-2.1 1.3zM227 558.4c0 .2.8 1 1.8 1.7 1.5 1.3 1.6 1.2.3-.4s-2.1-2.1-2.1-1.3zm311.9 1.3c-1.3 1.6-1.2 1.7.4.4 1.6-1.3 2.1-2.1 1.3-2.1-.2 0-1 .8-1.7 1.7zm-199.1 55c.7.3 1.6.2 1.9-.1.4-.3-.2-.6-1.3-.5-1.1 0-1.4.3-.6.6zm75 2c.7.3 1.6.2 1.9-.1.4-.3-.2-.6-1.3-.5-1.1 0-1.4.3-.6.6zm-55 1c.6.2 1.8.2 2.5 0 .6-.3.1-.5-1.3-.5-1.4 0-1.9.2-1.2.5zm46 0c.6.2 1.8.2 2.5 0 .6-.3.1-.5-1.3-.5-1.4 0-1.9.2-1.2.5zm-28 1c3.4.2 9 .2 12.5 0 3.4-.2.6-.3-6.3-.3-6.9 0-9.7.1-6.2.3z"/><g fill="#BFBFBF" stroke-width="0"><path d="M377.5 342.2c-12.9 1.7-25.5 11-31.4 23-10.4 21.2-1.5 46.6 19.8 57.1 6.2 3 7.1 3.2 18.1 3.2 11 0 11.9-.2 18.1-3.2 8.4-4.1 16-11.8 20.1-20.1 2.8-5.5 3.3-7.8 3.6-15.7.5-11.5-1.2-18.1-7.1-26.7-9-13.2-24.6-19.8-41.2-17.6zM149.2 385c0 1.4.2 1.9.5 1.2.2-.6.2-1.8 0-2.5-.3-.6-.5-.1-.5 1.3zm452.3.6c-7.1 1.2-18.3 2.9-24.8 3.5-6.4.7-11.2 1.6-10.6 1.9 1.4.9-1.6 11-7.5 25.8-28.3 70.3-87.6 122.4-160.2 140.8-20.3 5.1-34.1 6.8-56.4 6.8-10.7 0-23.8-.5-29-1.2-44.6-5.9-87.4-24.7-121.8-53.6-11-9.2-11.1-8.9-2.2 4.4 38.5 57.1 97.4 93.5 166.4 102.6 14.6 1.9 43.2 1.8 58.8-.2 84.2-10.8 156.9-67.8 188.1-147.4 9.5-24.2 15.7-54.7 15.7-77.2 0-7.8-.2-8.8-1.7-8.7-1 .1-7.6 1.2-14.8 2.5zm-442.7-.9c.7.3 1.6.2 1.9-.1.4-.3-.2-.6-1.3-.5-1.1 0-1.4.3-.6.6zm12 2c.7.3 1.6.2 1.9-.1.4-.3-.2-.6-1.3-.5-1.1 0-1.4.3-.6.6zm6 1c.7.3 1.6.2 1.9-.1.4-.3-.2-.6-1.3-.5-1.1 0-1.4.3-.6.6zm8 1c.7.3 1.6.2 1.9-.1.4-.3-.2-.6-1.3-.5-1.1 0-1.4.3-.6.6zm7 1c.6.2 1.8.2 2.5 0 .6-.3.1-.5-1.3-.5-1.4 0-1.9.2-1.2.5zm9 1c.6.2 1.8.2 2.5 0 .6-.3.1-.5-1.3-.5-1.4 0-1.9.2-1.2.5zm10 1c.6.2 1.8.2 2.5 0 .6-.3.1-.5-1.3-.5-1.4 0-1.9.2-1.2.5zm345 0c.7.3 1.6.2 1.9-.1.4-.3-.2-.6-1.3-.5-1.1 0-1.4.3-.6.6zm-332.5 1c.9.2 2.3.2 3 0 .6-.3-.1-.5-1.8-.5-1.6 0-2.2.2-1.2.5zm319.5 0c.6.2 1.8.2 2.5 0 .6-.3.1-.5-1.3-.5-1.4 0-1.9.2-1.2.5zm-305 1c1.2.2 3.2.2 4.5 0 1.2-.2.2-.4-2.3-.4s-3.5.2-2.2.4zm289 0c1.2.2 3 .2 4 0 .9-.3-.1-.5-2.3-.4-2.2 0-3 .2-1.7.4zm-265.5 1c2 .2 5.4.2 7.5 0 2-.2.3-.4-3.8-.4s-5.8.2-3.7.4zm241 0c1.5.2 3.9.2 5.5 0 1.5-.2.2-.4-2.8-.4s-4.3.2-2.7.4zm-224.2 3.9c0 1.1.3 1.4.6.6.3-.7.2-1.6-.1-1.9-.3-.4-.6.2-.5 1.3zm211 0c0 1.1.3 1.4.6.6.3-.7.2-1.6-.1-1.9-.3-.4-.6.2-.5 1.3zM150.2 404c0 1.4.2 1.9.5 1.2.2-.6.2-1.8 0-2.5-.3-.6-.5-.1-.5 1.3zm.9 9.6c0 1.1.3 1.4.6.6.3-.7.2-1.6-.1-1.9-.3-.4-.6.2-.5 1.3zm1 7c0 1.1.3 1.4.6.6.3-.7.2-1.6-.1-1.9-.3-.4-.6.2-.5 1.3zM300.5 451c1 1.1 2 2 2.3 2 .3 0-.3-.9-1.3-2s-2-2-2.3-2c-.3 0 .3.9 1.3 2z"/><path d="M465.9 451.7c-1.3 1.6-1.2 1.7.4.4 1.6-1.3 2.1-2.1 1.3-2.1-.2 0-1 .8-1.7 1.7zM308.5 460c2.7 2.7 5.1 5 5.4 5 .3 0-1.7-2.3-4.4-5-2.7-2.8-5.1-5-5.4-5-.3 0 1.7 2.2 4.4 5zm150 .2-5 5.3 5.3-5c4.8-4.6 5.7-5.5 4.9-5.5-.1 0-2.5 2.4-5.2 5.2zM316 466.4c0 .2.8 1 1.8 1.7 1.5 1.3 1.6 1.2.3-.4s-2.1-2.1-2.1-1.3zm133.9 1.3c-1.3 1.6-1.2 1.7.4.4.9-.7 1.7-1.5 1.7-1.7 0-.8-.8-.3-2.1 1.3zM338 481c.8.5 2 1 2.5 1 .6 0 .3-.5-.5-1s-1.9-1-2.5-1c-.5 0-.3.5.5 1zm34.8 9.7c.6.2 1.8.2 2.5 0 .6-.3.1-.5-1.3-.5-1.4 0-1.9.2-1.2.5zm20 0c.6.2 1.8.2 2.5 0 .6-.3.1-.5-1.3-.5-1.4 0-1.9.2-1.2.5z"/></g><path fill="#000040" d="m627 361.7-8.3 17.8.2 8.6c.9 36-13.8 86.2-35.2 120.1-12.3 19.4-31.7 42.1-46.6 54.3-5.8 4.8-6.4 5.7-14.1 22.4-4.5 9.5-7.9 17.5-7.7 17.7.5.6 20.1-12.9 28.2-19.4 3.8-3.1 11.9-10.4 17.9-16.2 33.5-32.4 56.8-71.8 69.1-116.5 5.8-21.3 7.7-34.5 8.2-59.1.5-21.2-.8-44.8-2.6-46.7-.4-.4-4.5 7.2-9.1 17z"/><path fill="#000040" fill-opacity=".9" d="M639.3 384c0 4.1.2 5.8.4 3.7.2-2 .2-5.4 0-7.5-.2-2-.4-.3-.4 3.8zm-62.4 166.7c-1.3 1.6-1.2 1.7.4.4.9-.7 1.7-1.5 1.7-1.7 0-.8-.8-.3-2.1 1.3zm-13.4 14.5-7 7.3 7.3-7c6.7-6.4 7.7-7.5 6.9-7.5-.1 0-3.4 3.3-7.2 7.2zm-13.6 12.5c-1.3 1.6-1.2 1.7.4.4 1.6-1.3 2.1-2.1 1.3-2.1-.2 0-1 .8-1.7 1.7z"/><path fill="#000040" fill-opacity=".8" d="M639.1 375.6c0 1.1.3 1.4.6.6.3-.7.2-1.6-.1-1.9-.3-.4-.6.2-.5 1.3zm0 17c0 1.1.3 1.4.6.6.3-.7.2-1.6-.1-1.9-.3-.4-.6.2-.5 1.3zm-67.2 164.1c-1.3 1.6-1.2 1.7.4.4 1.6-1.3 2.1-2.1 1.3-2.1-.2 0-1 .8-1.7 1.7z"/><path fill="#000040" fill-opacity=".3" d="m564.4 565.2-1.9 2.3 2.3-1.9c1.2-1.1 2.2-2.1 2.2-2.3 0-.8-.8-.2-2.6 1.9z"/><path fill="#FFF" d="M150.3 396.1c1.5 32 10.9 66.5 26 95.4 4.9 9.3 5.9 10.6 15.2 18.4 34.1 28.6 77.1 47.4 121.5 53.3 14 1.8 46 1.5 60.4-.6 83.8-12.2 153.6-67.2 185.2-145.8 4.7-11.8 8.8-24.7 8.1-25.5-.3-.2-9.5.2-20.4 1.1-10.9.8-27.9 1.8-37.9 2.2l-18.1.7-1.7 8.9c-7.8 41-38 73.2-78.6 83.7-11.8 3.1-31.4 3.9-43.5 1.8-17.8-3.2-32.4-9.5-46.9-20.4-20.4-15.3-34.6-38-39.9-63.9l-2.1-10.2-18.6-.6c-38.9-1.5-88.1-6.7-106.9-11.3l-2.4-.6.6 13.4z"/><path fill="#80BFBF" d="M497.8 394.7c.7.3 1.6.2 1.9-.1.4-.3-.2-.6-1.3-.5-1.1 0-1.4.3-.6.6z"/></svg>